<svg xmlns="http://www.w3.org/2000/svg" width="14" height="10" fill="none"><path fill="#D8F2FF" fill-rule="evenodd" d="M2.1 10a2.234 2.234 0 0 1-1.485-.55A1.78 1.78 0 0 1 0 8.126v-6.25C0 1.378.221.901.615.549 1.01.198 1.543 0 2.1 0h9.8c.557 0 1.091.198 1.485.55.394.35.615.828.615 1.325v6.25c0 .497-.221.974-.615 1.326-.394.351-.928.549-1.485.549H2.1Zm1.837-7.362a.728.728 0 0 0-.243-.121.78.78 0 0 0-.543.046.688.688 0 0 0-.214.159.604.604 0 0 0-.128.221.56.56 0 0 0 .069.484c.047.072.11.135.184.185l2.626 1.876c.372.266.835.411 1.312.411.477 0 .94-.145 1.313-.41l2.624-1.876a.648.648 0 0 0 .176-.187.577.577 0 0 0 .06-.475.604.604 0 0 0-.126-.217.688.688 0 0 0-.21-.157.762.762 0 0 0-.532-.052.733.733 0 0 0-.242.112L7.437 4.512A.754.754 0 0 1 7 4.649a.754.754 0 0 1-.438-.137L3.938 2.638Z" clip-rule="evenodd"/></svg>