<svg width="68" height="68" viewBox="0 0 68 68" fill="none" xmlns="http://www.w3.org/2000/svg">
<mask id="mask0_253_2520" style="mask-type:alpha" maskUnits="userSpaceOnUse" x="0" y="0" width="68" height="68">
<rect width="68" height="68" fill="#D9D9D9"/>
</mask>
<g mask="url(#mask0_253_2520)">
<path d="M21.5772 62.3333C20.3093 62.3333 19.2294 61.8875 18.3373 60.996C17.4458 60.104 17 59.024 17 57.7561V10.2439C17 8.97599 17.4458 7.89602 18.3373 7.00399C19.2294 6.11243 20.3093 5.66666 21.5772 5.66666H46.4228C47.6907 5.66666 48.7706 6.11243 49.6627 7.00399C50.5542 7.89602 51 8.97599 51 10.2439V19.6152H48.1667V15.5833H19.8333V52.4167H48.1667V48.3848H51V57.7561C51 59.024 50.5542 60.104 49.6627 60.996C48.7706 61.8875 47.6907 62.3333 46.4228 62.3333H21.5772ZM19.8333 55.25V57.7561C19.8333 58.1924 20.0149 58.5921 20.378 58.9553C20.7412 59.3184 21.1409 59.5 21.5772 59.5H46.4228C46.8591 59.5 47.2588 59.3184 47.622 58.9553C47.9851 58.5921 48.1667 58.1924 48.1667 57.7561V55.25H19.8333ZM48.1667 42.9356L47.9598 40.5932C47.2184 40.4515 46.588 40.2253 46.0686 39.9146C45.5491 39.6039 45.0934 39.2162 44.7015 38.7515L42.6417 39.7864L41.225 37.3348L43.0773 35.9727C42.8379 35.2677 42.7182 34.6047 42.7182 33.9837C42.7182 33.3627 42.8379 32.6997 43.0773 31.9947L41.225 30.6326L42.6743 28.2136L44.7015 29.2159C45.0934 28.7621 45.5491 28.3824 46.0686 28.0769C46.588 27.7719 47.2184 27.5485 47.9598 27.4068L48.1667 25.0644H51L51.2068 27.4068C51.9482 27.5485 52.5786 27.7719 53.0981 28.0769C53.6175 28.3824 54.0732 28.7621 54.4652 29.2159L56.4924 28.2136L57.9417 30.6326L56.0894 31.9947C56.3288 32.6997 56.4485 33.3627 56.4485 33.9837C56.4485 34.6047 56.3288 35.2677 56.0894 35.9727L57.9417 37.3348L56.525 39.7864L54.4652 38.7515C54.0732 39.2162 53.6175 39.6039 53.0981 39.9146C52.5786 40.2253 51.9482 40.4515 51.2068 40.5932L51 42.9356H48.1667ZM49.5833 38.3591C50.8111 38.3591 51.8446 37.9395 52.6837 37.1004C53.5228 36.2612 53.9424 35.2278 53.9424 34C53.9424 32.7722 53.5228 31.7388 52.6837 30.8996C51.8446 30.0605 50.8111 29.6409 49.5833 29.6409C48.3556 29.6409 47.3221 30.0605 46.483 30.8996C45.6438 31.7388 45.2243 32.7722 45.2243 34C45.2243 35.2278 45.6438 36.2612 46.483 37.1004C47.3221 37.9395 48.3556 38.3591 49.5833 38.3591ZM19.8333 12.75H48.1667V10.2439C48.1667 9.80757 47.9851 9.40784 47.622 9.0447C47.2588 8.68156 46.8591 8.49999 46.4228 8.49999H21.5772C21.1409 8.49999 20.7412 8.68156 20.378 9.0447C20.0149 9.40784 19.8333 9.80757 19.8333 10.2439V12.75Z" fill="#0B80C5"/>
</g>
</svg>
