<svg width="68" height="68" viewBox="0 0 68 68" fill="none" xmlns="http://www.w3.org/2000/svg">
<path d="M33.3462 56.6666V54.4871H52.7439C53.2161 54.4871 53.6246 54.3419 53.9693 54.0515C54.3145 53.7606 54.4871 53.379 54.4871 52.9068V32.7356C54.4871 27.28 52.4726 22.7214 48.4436 19.0598C44.4151 15.3982 39.6024 13.5674 34.0057 13.5674C28.4094 13.5674 23.5948 15.3982 19.562 19.0598C15.5293 22.7214 13.5129 27.28 13.5129 32.7356V48.8204H12.75C11.5912 48.8204 10.5931 48.429 9.75587 47.646C8.91862 46.8636 8.5 45.8929 8.5 44.7341V39.3939C8.5 38.5477 8.77507 37.7969 9.32521 37.1414C9.87582 36.4855 10.5452 35.9524 11.3333 35.542L11.3822 32.0606C11.4696 29.1035 12.1389 26.3646 13.3903 23.8439C14.6417 21.3227 16.2891 19.1285 18.3324 17.2614C20.3757 15.3942 22.7495 13.9395 25.454 12.8973C28.1584 11.8546 31.0071 11.3333 34 11.3333C36.9929 11.3333 39.839 11.8546 42.5382 12.8973C45.237 13.9395 47.6109 15.3916 49.6598 17.2536C51.7083 19.1151 53.3557 21.3062 54.6019 23.8269C55.8476 26.3481 56.5196 29.087 56.6178 32.0436L56.6667 35.4549C57.4184 35.8072 58.0786 36.2813 58.6472 36.8772C59.2157 37.4727 59.5 38.1881 59.5 39.0235V45.1591C59.5 45.9944 59.2157 46.7101 58.6472 47.306C58.0786 47.9015 57.4184 48.3754 56.6667 48.7276V52.9068C56.6667 53.9585 56.2778 54.8481 55.5 55.5758C54.7223 56.303 53.8036 56.6666 52.7439 56.6666H33.3462ZM26.5767 38.0318C26.0804 38.0318 25.6497 37.863 25.2847 37.5254C24.9196 37.1877 24.7371 36.771 24.7371 36.2751C24.7371 35.7793 24.9241 35.3579 25.2981 35.0108C25.6721 34.6637 26.107 34.4901 26.6029 34.4901C27.0992 34.4901 27.5298 34.6682 27.8949 35.0242C28.2599 35.3798 28.4424 35.8058 28.4424 36.3021C28.4424 36.7979 28.2554 37.2101 27.8814 37.5388C27.5074 37.8675 27.0725 38.0318 26.5767 38.0318ZM41.3971 38.0318C40.9008 38.0318 40.4702 37.863 40.1051 37.5254C39.7401 37.1877 39.5576 36.771 39.5576 36.2751C39.5576 35.7793 39.7446 35.3579 40.1186 35.0108C40.4926 34.6637 40.9275 34.4901 41.4233 34.4901C41.9196 34.4901 42.3503 34.6682 42.7153 35.0242C43.0804 35.3798 43.2629 35.8058 43.2629 36.3021C43.2629 36.7979 43.0759 37.2101 42.7019 37.5388C42.3279 37.8675 41.893 38.0318 41.3971 38.0318ZM19.0322 33.8583C18.7744 29.6154 20.1403 25.9994 23.1299 23.0102C26.1196 20.0205 29.7977 18.5257 34.1643 18.5257C37.749 18.5257 40.9162 19.6381 43.6659 21.8627C46.4157 24.0878 48.1029 26.9584 48.7277 30.4746C45.0335 30.4274 41.6146 29.4558 38.471 27.5598C35.3269 25.6634 32.8997 23.0805 31.1893 19.8114C30.5093 23.0805 29.0896 25.9458 26.9301 28.407C24.7707 30.8677 22.138 32.6848 19.0322 33.8583Z" fill="#0B80C5"/>
</svg>
