<svg width="68" height="68" viewBox="0 0 68 68" fill="none" xmlns="http://www.w3.org/2000/svg">
<path d="M32.5018 59.5C30.9142 59.5 29.4012 59.1803 27.9628 58.5409C26.5245 57.9015 25.3439 56.9663 24.4212 55.7352L11.0117 37.983L11.8454 37.0621C12.1798 36.6806 12.5904 36.4435 13.0772 36.351C13.5636 36.2584 14.0413 36.3212 14.5102 36.5394L23.8651 41.0019V18.1985C23.8651 17.8897 23.9711 17.6309 24.1832 17.4222C24.3947 17.2135 24.6571 17.1091 24.9701 17.1091C25.2832 17.1091 25.5406 17.2135 25.7422 17.4222C25.9439 17.6309 26.0447 17.8897 26.0447 18.1985V44.3799L14.3735 38.8167L26.35 54.5311C27.08 55.5043 27.9902 56.2126 29.0806 56.6561C30.171 57.099 31.3114 57.3205 32.5018 57.3205H44.1893C46.2742 57.3205 48.0396 56.6067 49.4855 55.1792C50.931 53.7517 51.6538 51.9955 51.6538 49.9106V39.5576C51.6538 38.2302 51.2047 37.1174 50.3065 36.2192C49.4083 35.3211 48.2956 34.872 46.9681 34.872H33.8909V32.6924H46.9625C48.8707 32.6924 50.493 33.3599 51.8294 34.6949C53.1653 36.0299 53.8333 37.6508 53.8333 39.5576V49.9063C53.8333 52.5933 52.8943 54.864 51.0163 56.7184C49.1378 58.5728 46.8621 59.5 44.1893 59.5H32.5018ZM16.014 23.3481C15.5635 22.6077 15.2157 21.7954 14.9706 20.9114C14.725 20.0274 14.6023 19.1175 14.6023 18.1815C14.6023 15.3123 15.6131 12.8726 17.6346 10.8623C19.6557 8.85158 22.096 7.84622 24.9553 7.84622C27.8146 7.84622 30.2548 8.85701 32.2759 10.8786C34.297 12.9007 35.3076 15.3449 35.3076 18.2113C35.3076 19.1439 35.185 20.0489 34.9399 20.9263C34.6944 21.8037 34.3466 22.611 33.8966 23.3481L32.011 22.258C32.3779 21.6549 32.6558 21.0115 32.8447 20.3278C33.0336 19.6435 33.128 18.9227 33.128 18.1652C33.128 15.9094 32.3323 13.9889 30.7409 12.4036C29.1495 10.8184 27.217 10.0258 24.9432 10.0258C22.6699 10.0258 20.7414 10.8203 19.1576 12.4093C17.5737 13.9988 16.7818 15.9288 16.7818 18.1992C16.7818 18.9434 16.8762 19.6553 17.0651 20.3348C17.254 21.0139 17.5319 21.6549 17.8988 22.258L16.014 23.3481Z" fill="#0B80C5"/>
</svg>
