<svg width="68" height="68" viewBox="0 0 68 68" fill="none" xmlns="http://www.w3.org/2000/svg">
<path d="M26.9655 38.7402L34 34.4739L41.0345 38.7402L39.1652 30.736L45.3879 25.3966L37.2095 24.672L34 17.1636L30.7905 24.672L22.6121 25.3966L28.8348 30.736L26.9655 38.7402ZM8.5 56.8848V12.4228C8.5 11.3343 8.88156 10.4082 9.64467 9.64466C10.4083 8.88155 11.3343 8.5 12.4228 8.5H55.5772C56.6657 8.5 57.5918 8.88155 58.3553 9.64466C59.1184 10.4082 59.5 11.3343 59.5 12.4228V44.2439C59.5 45.3324 59.1184 46.2584 58.3553 47.022C57.5918 47.7851 56.6657 48.1667 55.5772 48.1667H17.2182L8.5 56.8848ZM16.2478 45.9871H55.5772C56.0131 45.9871 56.4126 45.8056 56.7757 45.4424C57.1389 45.0793 57.3205 44.6798 57.3205 44.2439V12.4228C57.3205 11.9869 57.1389 11.5874 56.7757 11.2243C56.4126 10.8611 56.0131 10.6795 55.5772 10.6795H12.4228C11.9869 10.6795 11.5874 10.8611 11.2243 11.2243C10.8611 11.5874 10.6795 11.9869 10.6795 12.4228V51.7629L16.2478 45.9871Z" fill="#0B80C5"/>
</svg>
