<svg width="82" height="14" viewBox="0 0 82 14" fill="none" xmlns="http://www.w3.org/2000/svg">
<path d="M8.08738 11.2516L12.4964 14L11.3263 8.82L15.2216 5.33474L10.0921 4.88526L8.08738 0L6.08265 4.88526L0.953125 5.33474L4.84843 8.82L3.67841 14L8.08738 11.2516Z" fill="#F9AD3D"/>
<path d="M24.5483 11.2516L28.9573 14L27.7873 8.82L31.6826 5.33474L26.553 4.88526L24.5483 0L22.5436 4.88526L17.4141 5.33474L21.3094 8.82L20.1393 14L24.5483 11.2516Z" fill="#F9AD3D"/>
<path d="M41.0093 11.2516L45.4182 14L44.2482 8.82L48.1435 5.33474L43.014 4.88526L41.0093 0L39.0045 4.88526L33.875 5.33474L37.7703 8.82L36.6003 14L41.0093 11.2516Z" fill="#F9AD3D"/>
<path d="M57.4663 11.2516L61.8753 14L60.7052 8.82L64.6005 5.33474L59.471 4.88526L57.4663 0L55.4616 4.88526L50.332 5.33474L54.2273 8.82L53.0573 14L57.4663 11.2516Z" fill="#F9AD3D"/>
<path d="M73.9272 11.2516L78.3362 14L77.1662 8.82L81.0615 5.33474L75.9319 4.88526L73.9272 0L71.9225 4.88526L66.793 5.33474L70.6883 8.82L69.5183 14L73.9272 11.2516Z" fill="#F9AD3D"/>
</svg>
