<svg xmlns="http://www.w3.org/2000/svg" width="68" height="68" fill="none"><mask id="a" width="68" height="68" x="0" y="0" maskUnits="userSpaceOnUse" style="mask-type:alpha"><path fill="#D9D9D9" d="M0 0h68v68H0z"/></mask><g mask="url(#a)"><path fill="#0B80C5" d="M24.083 48.93 34 41.377l9.917 7.552-3.706-12.281 9.863-6.985H37.989L34 16.782l-3.989 12.88H17.927l9.862 6.986-3.706 12.281ZM34.01 59.5c-3.526 0-6.841-.67-9.945-2.007-3.104-1.339-5.805-3.155-8.101-5.449-2.296-2.294-4.114-4.992-5.454-8.093C9.17 40.85 8.5 37.536 8.5 34.009c0-3.526.67-6.841 2.007-9.945 1.339-3.104 3.155-5.805 5.449-8.101 2.294-2.296 4.992-4.114 8.093-5.454C27.15 9.17 30.464 8.5 33.991 8.5c3.526 0 6.841.67 9.946 2.007 3.103 1.339 5.804 3.155 8.1 5.449 2.296 2.294 4.114 4.992 5.453 8.093 1.34 3.101 2.01 6.415 2.01 9.942 0 3.526-.67 6.841-2.007 9.946-1.339 3.103-3.155 5.804-5.449 8.1-2.294 2.296-4.992 4.114-8.093 5.453-3.101 1.34-6.415 2.01-9.942 2.01ZM34 56.667c6.328 0 11.688-2.196 16.08-6.588 4.39-4.392 6.587-9.751 6.587-16.079 0-6.328-2.196-11.688-6.588-16.08-4.392-4.39-9.751-6.587-16.079-6.587-6.328 0-11.688 2.196-16.08 6.588-4.39 4.392-6.587 9.751-6.587 16.079 0 6.328 2.196 11.688 6.588 16.08 4.392 4.39 9.751 6.587 16.079 6.587Z"/></g></svg>