<svg xmlns="http://www.w3.org/2000/svg" width="775" height="868" fill="none"><path fill="#0161B0" d="M0-136h775V868H0z"/><g opacity=".2" style="mix-blend-mode:plus-lighter"><path fill="#A3A3A3" fill-opacity=".1" fill-rule="evenodd" d="M596.121 133.784c0-6.627 5.373-12 12-12h153.751c6.628 0 12 5.373 12 12v198.508c0 6.628-5.372 12-12 12h-7.044c-87.652 0-158.707-88.946-158.707-198.668v-11.84ZM578.77 133.784c0-6.627-5.373-12-12-12H413.018c-6.627 0-12 5.373-12 12v198.508c0 6.628 5.373 12 12 12h7.045c87.651 0 158.707-88.946 158.707-198.668v-11.84ZM375.012 332.292c0 6.628-5.373 12-12 12H211.428c-6.627 0-12-5.372-12-12V133.784c0-6.627 5.373-12 12-12h6.813c86.582 0 156.771 88.947 156.771 198.668v11.84ZM0 332.292c0 6.628 5.373 12 12 12h153.751c6.628 0 12-5.372 12-12V133.784c0-6.627-5.372-12-12-12h-7.045C71.056 121.784 0 210.731 0 320.452v11.84ZM0-136h177.751V86.508h-19.044C71.055 86.508 0-2.439 0-112.16V-136ZM372.844 74.508c0 6.628-5.373 12-12 12H207.092c-6.627 0-12-5.372-12-12V-124c0-6.627 5.373-12 12-12h7.045c87.651 0 158.707 88.947 158.707 198.668v11.84ZM574.438 74.508c0 6.628-5.373 12-12 12H410.854c-6.628 0-12-5.372-12-12V-124c0-6.627 5.372-12 12-12h6.812c86.583 0 156.772 88.947 156.772 198.668v11.84ZM596.121 74.508c0 6.628 5.373 12 12 12h153.751c6.628 0 12-5.372 12-12V-124c0-6.627-5.372-12-12-12h-7.044c-87.652 0-158.707 88.947-158.707 198.668v11.84Z" clip-rule="evenodd"/><path stroke="#A3A3A3" stroke-dasharray="4 4" stroke-opacity=".3" stroke-width="5" d="M596.193 56.62c-.032 1.34-.053 2.682-.064 4.027l2.5.02c-.005.666-.008 1.333-.008 2.001v2.96h-2.5v5.92h2.5v2.96c0 .638.063 1.259.181 1.857l-2.452.485c.311 1.575.93 3.038 1.792 4.326l2.078-1.391a9.55 9.55 0 0 0 2.625 2.625l-1.391 2.077a11.931 11.931 0 0 0 4.325 1.793l.485-2.453c.599.119 1.219.181 1.857.181h2.023v2.5h4.046v-2.5h4.046v2.5h4.046v-2.5h4.046v2.5h4.047v-2.5h4.046v2.5h4.046v-2.5h4.046v2.5h4.046v-2.5h4.046v2.5h4.046v-2.5h4.046v2.5h4.046v-2.5h4.046v2.5h4.046v-2.5h4.047v2.5h4.046v-2.5h4.046v2.5h4.046v-2.5h4.046v2.5h4.046v-2.5h4.046v2.5h4.046v-2.5h4.046v2.5h4.046v-2.5h4.046v2.5h4.046v-2.5h4.047v2.5h4.046v-2.5h4.046v2.5h4.046v-2.5h4.046v2.5h4.046v-2.5h4.046v2.5h4.046v-2.5h4.046v2.5h4.046v-2.5h2.023c.638 0 1.259-.062 1.857-.18l.485 2.452a11.936 11.936 0 0 0 4.326-1.793l-1.391-2.077a9.577 9.577 0 0 0 2.625-2.625l2.077 1.39a11.924 11.924 0 0 0 1.793-4.325l-2.452-.485a9.59 9.59 0 0 0 .18-1.857v-1.985h2.5v-3.97h-2.5v-3.97h2.5v-3.97h-2.5v-3.97h2.5v-3.97h-2.5v-3.97h2.5v-3.97h-2.5v-3.971h2.5v-3.97h-2.5v-3.97h2.5v-3.97h-2.5v-3.97h2.5v-3.97h-2.5V16.94h2.5v-3.97h-2.5V9h2.5V5.03h-2.5V1.06h2.5v-3.97h-2.5V-6.88h2.5v-3.97h-2.5v-3.97h2.5v-3.97h-2.5v-3.97h2.5v-3.97h-2.5v-3.971h2.5v-3.97h-2.5v-3.97h2.5v-3.97h-2.5v-3.97h2.5v-3.97h-2.5v-3.971h2.5v-3.97h-2.5v-3.97h2.5v-3.97h-2.5v-3.97h2.5v-3.97h-2.5v-3.971h2.5v-3.97h-2.5v-3.97h2.5v-3.97h-2.5v-3.97h2.5v-3.97h-2.5v-3.971h2.5v-3.97h-2.5v-3.97h2.5v-3.97h-2.5v-3.971h2.5v-3.97h-2.5V-124c0-.638-.062-1.258-.18-1.857l2.452-.485a11.921 11.921 0 0 0-1.793-4.325l-2.077 1.391a9.561 9.561 0 0 0-2.625-2.625l1.391-2.078a11.924 11.924 0 0 0-4.326-1.792l-.485 2.452a9.586 9.586 0 0 0-1.857-.181h-1.761v-2.5h-3.522v2.5h-1.761c-.662 0-1.322.005-1.981.016l-.039-2.5c-1.344.021-2.685.063-4.021.125l.117 2.498c-1.316.061-2.627.143-3.935.246l-.195-2.493c-1.339.105-2.675.231-4.005.377l.273 2.485c-1.309.144-2.613.308-3.912.492l-.351-2.475a128.76 128.76 0 0 0-3.974.626l.428 2.463c-1.296.226-2.587.471-3.874.736l-.504-2.449c-1.315.271-2.624.562-3.927.873l.58 2.432c-1.279.306-2.553.631-3.822.975l-.655-2.413c-1.294.352-2.583.723-3.865 1.114l.728 2.391c-1.258.383-2.51.786-3.756 1.207l-.801-2.368c-1.27.429-2.534.878-3.791 1.346l.872 2.343c-1.233.458-2.459.936-3.679 1.431l-.941-2.316a135.095 135.095 0 0 0-3.704 1.568l1.008 2.288c-1.203.531-2.4 1.079-3.59 1.645l-1.075-2.257a140.195 140.195 0 0 0-3.607 1.781l1.139 2.225c-1.171.6-2.335 1.216-3.492 1.85l-1.201-2.193a143.954 143.954 0 0 0-3.501 1.981l1.261 2.159a141.348 141.348 0 0 0-3.386 2.041l-1.32-2.123c-1.137.706-2.266 1.43-3.387 2.169l1.377 2.087c-1.099.725-2.19 1.466-3.273 2.222l-1.432-2.049a152.655 152.655 0 0 0-3.267 2.346l1.484 2.011c-1.059.782-2.111 1.58-3.155 2.392l-1.535-1.973a158.326 158.326 0 0 0-3.142 2.51l1.585 1.933c-1.019.836-2.03 1.686-3.033 2.55l-1.633-1.893c-1.012.873-2.016 1.76-3.012 2.662l1.678 1.853c-.977.885-1.947 1.784-2.907 2.697l-1.723-1.812c-.968.92-1.928 1.855-2.879 2.802l1.764 1.771a172.39 172.39 0 0 0-2.78 2.835l-1.805-1.73c-.924.965-1.839 1.942-2.745 2.932l1.844 1.688c-.892.975-1.775 1.962-2.65 2.962l-1.882-1.646a182.581 182.581 0 0 0-2.608 3.05l1.918 1.605a178.007 178.007 0 0 0-2.519 3.08l-1.952-1.562a179.308 179.308 0 0 0-2.472 3.16l1.986 1.52a184.18 184.18 0 0 0-2.383 3.184l-2.018-1.476a197.072 197.072 0 0 0-2.337 3.264l2.048 1.434a196.387 196.387 0 0 0-2.247 3.28l-2.077-1.39a192.16 192.16 0 0 0-2.202 3.361l2.104 1.349a197.301 197.301 0 0 0-2.109 3.367l-2.132-1.307a205.884 205.884 0 0 0-2.068 3.452l2.157 1.264a203.82 203.82 0 0 0-1.973 3.445l-2.181-1.22a205.602 205.602 0 0 0-1.934 3.535l2.205 1.178a203.078 203.078 0 0 0-1.836 3.516l-2.227-1.136a212.156 212.156 0 0 0-1.799 3.611l2.248 1.094a216.127 216.127 0 0 0-1.7 3.581l-2.268-1.051a217.334 217.334 0 0 0-1.66 3.671l2.288 1.009a214.7 214.7 0 0 0-1.569 3.649l-2.306-.966a222.382 222.382 0 0 0-1.521 3.724l2.323.924c-.49 1.23-.969 2.467-1.438 3.712l-2.339-.882c-.472 1.25-.933 2.507-1.384 3.772l2.355.84a217.74 217.74 0 0 0-1.307 3.769l-2.369-.798a222.893 222.893 0 0 0-1.247 3.812l2.383.756a231.411 231.411 0 0 0-1.172 3.81l-2.396-.714c-.381 1.28-.753 2.567-1.114 3.86l2.408.672a225.803 225.803 0 0 0-1.037 3.843l-2.42-.631a243.294 243.294 0 0 0-.982 3.905l2.429.59a239.247 239.247 0 0 0-.903 3.868l-2.439-.547a237.924 237.924 0 0 0-.851 3.943l2.448.506c-.267 1.293-.524 2.591-.771 3.894l-2.457-.465a240.984 240.984 0 0 0-.716 3.962l2.464.425a237.188 237.188 0 0 0-.643 3.928l-2.47-.383a243.26 243.26 0 0 0-.583 3.976l2.476.342a253.258 253.258 0 0 0-.514 3.96l-2.481-.3a245.728 245.728 0 0 0-.451 3.984l2.486.26a244.428 244.428 0 0 0-.383 3.97l-2.491-.22a250.022 250.022 0 0 0-.321 4.008l2.493.18c-.095 1.32-.18 2.643-.254 3.97l-2.496-.14a243.2 243.2 0 0 0-.193 4.031l2.498.1c-.053 1.319-.095 2.641-.126 3.967l-2.5-.06Z"/><path fill="#A3A3A3" fill-opacity=".1" fill-rule="evenodd" d="M197.266 657.492c0-6.628 5.372-12 12-12h153.751c6.627 0 12 5.372 12 12V856c0 6.627-5.373 12-12 12h-7.045c-87.651 0-158.706-88.947-158.706-198.668v-11.84Z" clip-rule="evenodd"/><path stroke="#A3A3A3" stroke-dasharray="4 4" stroke-opacity=".3" stroke-width="5" d="M197.338 675.38a244.744 244.744 0 0 1-.064-4.027l2.5-.02c-.006-.667-.008-1.333-.008-2.001v-2.96h-2.5v-5.92h2.5v-2.96c0-.638.062-1.259.181-1.857l-2.453-.485a11.926 11.926 0 0 1 1.793-4.326l2.077 1.391a9.589 9.589 0 0 1 2.625-2.625l-1.391-2.077a11.926 11.926 0 0 1 4.326-1.793l.485 2.452a9.586 9.586 0 0 1 1.857-.18h2.023v-2.5h4.046v2.5h4.046v-2.5h4.046v2.5h4.046v-2.5h4.046v2.5h4.046v-2.5h4.046v2.5h4.046v-2.5h4.046v2.5h4.047v-2.5h4.046v2.5h4.046v-2.5h4.046v2.5h4.046v-2.5h4.046v2.5h4.046v-2.5h4.046v2.5h4.046v-2.5h4.046v2.5h4.046v-2.5h4.046v2.5h4.047v-2.5h4.046v2.5h4.046v-2.5h4.046v2.5h4.046v-2.5h4.046v2.5h4.046v-2.5h4.046v2.5h4.046v-2.5h4.046v2.5h4.046v-2.5h4.047v2.5h4.046v-2.5h4.046v2.5h4.046v-2.5h4.046v2.5h2.023c.638 0 1.258.062 1.857.18l.485-2.452c1.574.311 3.038.931 4.325 1.793l-1.39 2.077a9.571 9.571 0 0 1 2.624 2.625l2.078-1.391a11.943 11.943 0 0 1 1.793 4.326l-2.453.485c.118.598.181 1.219.181 1.857v1.985h2.5v3.97h-2.5v3.97h2.5v3.97h-2.5v3.97h2.5v3.97h-2.5v3.971h2.5v3.97h-2.5v3.97h2.5v3.97h-2.5v3.97h2.5v3.97h-2.5v3.971h2.5v3.97h-2.5v3.97h2.5v3.97h-2.5v3.97h2.5v3.97h-2.5v3.971h2.5v3.97h-2.5v3.97h2.5v3.97h-2.5v3.97h2.5v3.97h-2.5v3.971h2.5v3.97h-2.5v3.97h2.5v3.97h-2.5v3.97h2.5v3.97h-2.5v3.971h2.5v3.97h-2.5v3.97h2.5v3.97h-2.5v3.97h2.5v3.97h-2.5v3.971h2.5v3.97h-2.5v3.97h2.5v3.97h-2.5v3.97h2.5v3.97h-2.5v3.971h2.5v3.97h-2.5v3.97h2.5v3.97h-2.5v3.97h2.5v3.97h-2.5v3.971h2.5v3.97h-2.5V856c0 .637-.063 1.258-.181 1.857l2.453.485a11.939 11.939 0 0 1-1.793 4.325l-2.078-1.391a9.558 9.558 0 0 1-2.624 2.625l1.39 2.078a11.92 11.92 0 0 1-4.325 1.792l-.485-2.452a9.594 9.594 0 0 1-1.857.181h-1.761v2.5h-3.523v-2.5h-1.761c-.661 0-1.321-.005-1.98-.016l-.039 2.5a130.757 130.757 0 0 1-4.021-.125l.117-2.498a121.986 121.986 0 0 1-3.935-.246l-.195 2.493a129.54 129.54 0 0 1-4.006-.377l.273-2.485a126.92 126.92 0 0 1-3.911-.492l-.351 2.475a127.81 127.81 0 0 1-3.974-.626l.428-2.464c-1.296-.225-2.588-.47-3.874-.735l-.505 2.448a127.86 127.86 0 0 1-3.927-.873l.581-2.431c-1.28-.306-2.554-.631-3.822-.975l-.655 2.413a132.261 132.261 0 0 1-3.866-1.114l.729-2.391a130.264 130.264 0 0 1-3.757-1.207l-.801 2.368c-1.27-.43-2.533-.878-3.791-1.346l.872-2.343a132.528 132.528 0 0 1-3.679-1.431l-.941 2.316a134.648 134.648 0 0 1-3.704-1.569l1.009-2.287a134.904 134.904 0 0 1-3.591-1.646l-1.074 2.258c-1.21-.576-2.412-1.17-3.607-1.781l1.138-2.226a138.852 138.852 0 0 1-3.492-1.849l-1.201 2.193a147.84 147.84 0 0 1-3.501-1.981l1.262-2.159a141.348 141.348 0 0 1-3.386-2.041l-1.32 2.123a151.57 151.57 0 0 1-3.387-2.169l1.376-2.087a149.524 149.524 0 0 1-3.273-2.223l-1.431 2.05a150.176 150.176 0 0 1-3.267-2.346l1.484-2.011c-1.06-.782-2.111-1.58-3.155-2.392l-1.536 1.973a161.985 161.985 0 0 1-3.141-2.51l1.584-1.933a164.965 164.965 0 0 1-3.033-2.55l-1.632 1.893a160.07 160.07 0 0 1-3.012-2.662l1.678-1.853a163.404 163.404 0 0 1-2.908-2.697l-1.722 1.812a172.571 172.571 0 0 1-2.88-2.802l1.765-1.771a169.224 169.224 0 0 1-2.78-2.835l-1.805 1.729a173.902 173.902 0 0 1-2.745-2.931l1.844-1.688a175.026 175.026 0 0 1-2.65-2.962l-1.882 1.645a179.422 179.422 0 0 1-2.609-3.05l1.918-1.604a181.134 181.134 0 0 1-2.518-3.08l-1.953 1.562a193.476 193.476 0 0 1-2.472-3.16l1.986-1.519a191.157 191.157 0 0 1-2.383-3.185l-2.017 1.476a190.162 190.162 0 0 1-2.338-3.264l2.048-1.434a191.352 191.352 0 0 1-2.246-3.281l-2.077 1.392a200.551 200.551 0 0 1-2.203-3.362l2.105-1.349a196.97 196.97 0 0 1-2.11-3.367l-2.131 1.306a203.137 203.137 0 0 1-2.069-3.452l2.158-1.263a199.754 199.754 0 0 1-1.973-3.445l-2.182 1.221a206.752 206.752 0 0 1-1.933-3.536l2.204-1.178a220.13 220.13 0 0 1-1.836-3.516l-2.227 1.136a212.873 212.873 0 0 1-1.798-3.611l2.248-1.094a206.56 206.56 0 0 1-1.7-3.581l-2.269 1.051a221.682 221.682 0 0 1-1.659-3.671l2.287-1.009a216.435 216.435 0 0 1-1.569-3.649l-2.305.966a214.82 214.82 0 0 1-1.522-3.724l2.323-.924c-.489-1.23-.968-2.468-1.438-3.712l-2.339.882a224.73 224.73 0 0 1-1.383-3.772l2.354-.84a225.87 225.87 0 0 1-1.306-3.769l-2.37.798a232.606 232.606 0 0 1-1.246-3.812l2.383-.756a224.435 224.435 0 0 1-1.172-3.81l-2.396.714c-.382-1.28-.753-2.567-1.114-3.86l2.407-.672a235.404 235.404 0 0 1-1.037-3.843l-2.419.631a234.5 234.5 0 0 1-.983-3.905l2.43-.589a227.135 227.135 0 0 1-.904-3.87l-2.439.548a237.382 237.382 0 0 1-.85-3.943l2.448-.507c-.268-1.292-.525-2.59-.772-3.894l-2.456.466a240.877 240.877 0 0 1-.716-3.963l2.464-.424a234.817 234.817 0 0 1-.643-3.929l-2.471.384a245.36 245.36 0 0 1-.582-3.976l2.476-.343a240.378 240.378 0 0 1-.514-3.96l-2.482.301a246.186 246.186 0 0 1-.451-3.984l2.487-.261a244.556 244.556 0 0 1-.384-3.969l-2.49.22a249.816 249.816 0 0 1-.322-4.008l2.494-.18c-.095-1.319-.18-2.643-.255-3.97l-2.496.14c-.075-1.34-.139-2.684-.193-4.031l2.498-.1a259.797 259.797 0 0 1-.126-3.967l-2.499.06Z"/><path fill="#A3A3A3" fill-opacity=".1" fill-rule="evenodd" d="M179.918 657.492c0-6.628-5.373-12-12-12H14.167c-6.628 0-12 5.372-12 12V856c0 6.627 5.372 12 12 12h7.045c87.651 0 158.706-88.947 158.706-198.668v-11.84ZM769.543 856c0 6.627-5.373 12-12 12H603.792c-6.628 0-12-5.373-12-12V657.492c0-6.628 5.372-12 12-12h7.044c87.652 0 158.707 88.947 158.707 198.668V856Z" clip-rule="evenodd"/><path stroke="#A3A3A3" stroke-dasharray="4 4" stroke-opacity=".3" stroke-width="5" d="M769.471 838.112c.032 1.339.053 2.681.064 4.027l-2.5.02c.005.666.008 1.333.008 2.001v2.96h2.5v5.92h-2.5V856c0 .638-.063 1.258-.181 1.857l2.453.485a11.939 11.939 0 0 1-1.793 4.325l-2.078-1.39a9.554 9.554 0 0 1-2.624 2.624l1.39 2.078a11.939 11.939 0 0 1-4.325 1.793l-.485-2.453a9.516 9.516 0 0 1-1.857.181h-2.023v2.5h-4.046v-2.5h-4.046v2.5h-4.046v-2.5h-4.046v2.5h-4.046v-2.5h-4.047v2.5h-4.046v-2.5h-4.046v2.5h-4.046v-2.5h-4.046v2.5h-4.046v-2.5h-4.046v2.5h-4.046v-2.5h-4.046v2.5h-4.046v-2.5h-4.046v2.5h-4.047v-2.5h-4.046v2.5h-4.046v-2.5h-4.046v2.5h-4.046v-2.5h-4.046v2.5h-4.046v-2.5h-4.046v2.5h-4.046v-2.5h-4.046v2.5h-4.046v-2.5h-4.047v2.5h-4.046v-2.5h-4.046v2.5h-4.046v-2.5h-4.046v2.5h-4.046v-2.5h-4.046v2.5h-4.046v-2.5h-4.046v2.5h-4.046v-2.5h-2.023a9.508 9.508 0 0 1-1.857-.181l-.485 2.453a11.943 11.943 0 0 1-4.326-1.793l1.391-2.078a9.571 9.571 0 0 1-2.625-2.624l-2.077 1.39a11.939 11.939 0 0 1-1.793-4.325l2.453-.485a9.516 9.516 0 0 1-.181-1.857v-1.985h-2.5v-3.97h2.5v-3.97h-2.5v-3.971h2.5v-3.97h-2.5v-3.97h2.5v-3.97h-2.5v-3.97h2.5v-3.97h-2.5v-3.971h2.5v-3.97h-2.5v-3.97h2.5v-3.97h-2.5v-3.97h2.5v-3.97h-2.5v-3.971h2.5v-3.97h-2.5v-3.97h2.5v-3.97h-2.5v-3.97h2.5v-3.97h-2.5v-3.971h2.5v-3.97h-2.5v-3.97h2.5v-3.97h-2.5v-3.97h2.5v-3.97h-2.5v-3.971h2.5v-3.97h-2.5v-3.97h2.5v-3.97h-2.5v-3.97h2.5v-3.97h-2.5V723h2.5v-3.971h-2.5v-3.97h2.5v-3.97h-2.5v-3.97h2.5v-3.97h-2.5v-3.97h2.5v-3.971h-2.5v-3.97h2.5v-3.97h-2.5v-3.97h2.5v-3.97h-2.5v-3.97h2.5v-3.971h-2.5v-3.97h2.5v-3.97h-2.5v-3.97h2.5v-1.985c0-.638.062-1.258.181-1.857l-2.453-.485a11.95 11.95 0 0 1 1.793-4.326l2.077 1.391a9.589 9.589 0 0 1 2.625-2.625l-1.391-2.077a11.943 11.943 0 0 1 4.326-1.793l.485 2.453a9.508 9.508 0 0 1 1.857-.181h1.761v-2.5h3.522v2.5h1.761c.662 0 1.322.005 1.981.015l.039-2.499c1.344.021 2.685.062 4.021.125l-.117 2.497a128 128 0 0 1 3.935.246l.195-2.492c1.34.105 2.675.23 4.005.377l-.273 2.485c1.309.143 2.613.307 3.912.492l.351-2.476c1.329.189 2.654.398 3.974.627l-.428 2.463c1.296.225 2.587.471 3.874.736l.504-2.449c1.315.271 2.624.562 3.927.873l-.58 2.432c1.279.305 2.553.63 3.822.975l.655-2.413c1.294.351 2.583.723 3.865 1.113l-.728 2.392c1.258.383 2.51.786 3.756 1.207l.801-2.368c1.27.429 2.534.878 3.791 1.345l-.872 2.344c1.233.458 2.459.935 3.679 1.431l.941-2.316c1.242.504 2.477 1.027 3.704 1.568l-1.008 2.288c1.203.53 2.4 1.079 3.59 1.645l1.075-2.257c1.209.575 2.412 1.169 3.607 1.78l-1.139 2.226c1.171.599 2.335 1.216 3.492 1.849l1.201-2.192c1.175.643 2.342 1.303 3.501 1.981l-1.261 2.158c1.136.664 2.265 1.345 3.386 2.042l1.32-2.124a148.11 148.11 0 0 1 3.387 2.17l-1.377 2.087c1.099.725 2.19 1.466 3.274 2.222l1.431-2.049c1.097.766 2.186 1.548 3.267 2.345l-1.484 2.012c1.059.782 2.111 1.579 3.155 2.392l1.535-1.973c1.056.821 2.103 1.658 3.142 2.51l-1.585 1.933c1.019.836 2.031 1.686 3.033 2.55l1.633-1.894c1.012.873 2.016 1.761 3.012 2.662l-1.678 1.853a163.68 163.68 0 0 1 2.907 2.698l1.723-1.812c.968.92 1.928 1.854 2.88 2.802l-1.765 1.771c.935.932 1.862 1.877 2.78 2.835l1.805-1.73c.924.965 1.839 1.942 2.745 2.932l-1.844 1.688c.892.975 1.775 1.962 2.65 2.962l1.882-1.646a183.43 183.43 0 0 1 2.608 3.051l-1.918 1.603a180.31 180.31 0 0 1 2.519 3.08l1.953-1.561a184.107 184.107 0 0 1 2.471 3.16l-1.985 1.519a187.05 187.05 0 0 1 2.382 3.185l2.018-1.477a194.2 194.2 0 0 1 2.337 3.265l-2.048 1.434a197.217 197.217 0 0 1 2.247 3.28l2.077-1.391a196.54 196.54 0 0 1 2.203 3.362l-2.105 1.348a200.919 200.919 0 0 1 2.109 3.367l2.132-1.306a200.503 200.503 0 0 1 2.068 3.452l-2.157 1.264a202.61 202.61 0 0 1 1.973 3.445l2.181-1.221a206.694 206.694 0 0 1 1.934 3.535l-2.205 1.179a201.245 201.245 0 0 1 1.836 3.516l2.227-1.136c.61 1.195 1.209 2.399 1.799 3.611l-2.248 1.093a218.12 218.12 0 0 1 1.7 3.582l2.268-1.051a206.998 206.998 0 0 1 1.66 3.671l-2.288 1.009a212.973 212.973 0 0 1 1.569 3.649l2.306-.967a223.12 223.12 0 0 1 1.521 3.725l-2.323.924c.49 1.23.969 2.467 1.438 3.712l2.339-.882c.472 1.25.933 2.507 1.384 3.771l-2.355.84c.446 1.25.882 2.506 1.307 3.769l2.369-.798c.426 1.265.842 2.536 1.247 3.813l-2.383.756c.401 1.264.792 2.534 1.172 3.81l2.396-.714c.381 1.28.753 2.567 1.114 3.859l-2.408.673c.356 1.275.702 2.556 1.037 3.842l2.42-.631c.338 1.296.665 2.598.982 3.906l-2.429.589c.311 1.284.612 2.574.903 3.869l2.439-.548c.295 1.309.578 2.624.851 3.944l-2.448.506c.267 1.293.524 2.591.771 3.894l2.457-.465c.249 1.316.488 2.636.716 3.962l-2.464.424c.225 1.305.439 2.615.643 3.929l2.47-.383c.205 1.321.399 2.646.583 3.976l-2.476.342c.181 1.316.353 2.636.514 3.961l2.481-.302c.161 1.324.311 2.652.451 3.985l-2.486.261c.138 1.318.266 2.641.383 3.968l2.491-.22c.117 1.332.225 2.668.321 4.008l-2.493.18c.095 1.32.18 2.643.254 3.971l2.496-.14c.075 1.34.14 2.684.193 4.031l-2.498.099c.053 1.319.095 2.642.127 3.968l2.499-.06Z"/><path fill="#A3A3A3" fill-opacity=".1" fill-rule="evenodd" d="M394.527 856c0 6.627 5.373 12 12 12h151.584c6.627 0 12-5.373 12-12V657.492c0-6.628-5.373-12-12-12h-6.813c-86.582 0-156.771 88.947-156.771 198.668V856ZM394.527 399.709c0-6.628 5.373-12 12-12h151.584c6.627 0 12 5.372 12 12v198.508c0 6.627-5.373 12-12 12h-6.813c-86.582 0-156.771-88.947-156.771-198.668v-11.84ZM765.203 598.216c0 6.628-5.372 12-12 12H601.62c-6.628 0-12-5.372-12-12V399.708c0-6.627 5.372-12 12-12h6.812c86.582 0 156.771 88.947 156.771 198.668v11.84ZM175.582 598.216c0 6.628-5.373 12-12 12H11.998c-6.627 0-12-5.372-12-12V399.708c0-6.627 5.373-12 12-12h6.813c86.582 0 156.771 88.947 156.771 198.668v11.84Z" clip-rule="evenodd"/><path stroke="#A3A3A3" stroke-dasharray="4 4" stroke-opacity=".3" stroke-width="5" d="M175.511 580.359c.032 1.332.053 2.668.063 4.007l-2.5.019c.005.663.008 1.327.008 1.991v2.96h2.5v5.92h-2.5v2.96c0 .638-.062 1.259-.181 1.857l2.453.485a11.943 11.943 0 0 1-1.793 4.326l-2.078-1.391a9.571 9.571 0 0 1-2.624 2.625l1.39 2.077a11.921 11.921 0 0 1-4.325 1.793l-.485-2.452a9.594 9.594 0 0 1-1.857.18h-1.994v2.5h-3.989v-2.5h-3.99v2.5h-3.989v-2.5h-3.989v2.5h-3.989v-2.5h-3.989v2.5h-3.989v-2.5h-3.989v2.5h-3.989v-2.5h-3.989v2.5h-3.989v-2.5h-3.989v2.5h-3.989v-2.5h-3.989v2.5h-3.989v-2.5h-3.99v2.5h-3.988v-2.5h-3.99v2.5h-3.988v-2.5h-3.99v2.5h-3.988v-2.5h-3.99v2.5H69.84v-2.5H65.85v2.5h-3.988v-2.5h-3.99v2.5h-3.989v-2.5h-3.989v2.5h-3.989v-2.5h-3.989v2.5h-3.989v-2.5h-3.989v2.5H29.95v-2.5H25.96v2.5h-3.989v-2.5h-3.989v2.5h-3.989v-2.5h-1.995a9.59 9.59 0 0 1-1.856-.18l-.486 2.452a11.925 11.925 0 0 1-4.325-1.793l1.39-2.077a9.577 9.577 0 0 1-2.624-2.625l-2.077 1.391a11.934 11.934 0 0 1-1.793-4.326l2.452-.485a9.554 9.554 0 0 1-.18-1.857v-1.985h-2.5v-3.97h2.5v-3.97h-2.5v-3.97h2.5v-3.97h-2.5v-3.97h2.5v-3.971h-2.5v-3.97h2.5v-3.97h-2.5v-3.97h2.5v-3.97h-2.5v-3.97h2.5v-3.971h-2.5v-3.97h2.5v-3.97h-2.5v-3.97h2.5v-3.97h-2.5v-3.97h2.5v-3.971h-2.5v-3.97h2.5v-3.97h-2.5v-3.97h2.5v-3.97h-2.5v-3.97h2.5v-3.971h-2.5v-3.97h2.5v-3.97h-2.5v-3.97h2.5v-3.97h-2.5v-3.97h2.5v-3.971h-2.5v-3.97h2.5v-3.97h-2.5v-3.97h2.5v-3.97h-2.5v-3.97h2.5v-3.971h-2.5v-3.97h2.5v-3.97h-2.5v-3.97h2.5v-3.97h-2.5v-3.97h2.5v-3.971h-2.5v-3.97h2.5v-3.97h-2.5v-3.97h2.5v-3.97h-2.5v-3.97h2.5v-3.971h-2.5v-3.97h2.5v-1.985c0-.637.062-1.258.18-1.857l-2.452-.485a11.93 11.93 0 0 1 1.793-4.325l2.077 1.391a9.564 9.564 0 0 1 2.625-2.625l-1.391-2.078a11.923 11.923 0 0 1 4.325-1.792l.486 2.452a9.59 9.59 0 0 1 1.856-.181h1.704v-2.5h3.406v2.5h1.703c.657 0 1.314.005 1.97.016l.04-2.5c1.337.021 2.67.064 4 .128l-.12 2.497c1.309.062 2.613.145 3.913.249l.199-2.492c1.333.106 2.66.234 3.984.382l-.278 2.485c1.301.145 2.597.312 3.889.498l.358-2.474c1.322.191 2.639.403 3.951.635l-.436 2.462c1.288.228 2.572.477 3.85.745l.514-2.446c1.307.274 2.608.569 3.903.885l-.59 2.429c1.27.309 2.536.638 3.796.987l.667-2.409c1.286.356 2.566.732 3.84 1.127l-.742 2.388c1.25.388 2.492.795 3.73 1.221l.814-2.363c1.261.435 2.516.889 3.764 1.362l-.887 2.338c1.223.463 2.44.946 3.65 1.447l.956-2.31c1.232.51 2.457 1.039 3.675 1.586l-1.025 2.281a134.13 134.13 0 0 1 3.558 1.662l1.092-2.249c1.199.582 2.39 1.181 3.576 1.799l-1.156 2.217c1.16.605 2.312 1.227 3.458 1.866l1.218-2.183c1.164.65 2.32 1.316 3.468 2l-1.279 2.148c1.124.67 2.24 1.356 3.35 2.058l1.338-2.111c1.125.712 2.242 1.442 3.352 2.188l-1.395 2.075c1.086.73 2.165 1.476 3.236 2.238l1.449-2.037a150.97 150.97 0 0 1 3.231 2.364l-1.502 1.998c1.046.787 2.085 1.589 3.115 2.406l1.553-1.959c1.044.828 2.079 1.67 3.105 2.527l-1.602 1.919c1.005.84 2.003 1.694 2.992 2.563l1.649-1.879c1 .879 1.992 1.771 2.975 2.678l-1.695 1.837c.963.889 1.919 1.792 2.866 2.709l1.738-1.797c.956.925 1.903 1.864 2.841 2.816l-1.78 1.755c.921.935 1.834 1.883 2.737 2.844l1.821-1.713c.911.968 1.813 1.949 2.706 2.943l-1.859 1.671c.878.977 1.747 1.967 2.608 2.969l1.896-1.629a177.525 177.525 0 0 1 2.57 3.06l-1.932 1.587a179.54 179.54 0 0 1 2.477 3.085l1.967-1.544c.819 1.044 1.63 2.1 2.432 3.167l-1.999 1.501a189.945 189.945 0 0 1 2.345 3.192l2.03-1.459c.775 1.077 1.54 2.166 2.296 3.265l-2.06 1.416a195.974 195.974 0 0 1 2.209 3.285l2.089-1.374c.73 1.11 1.451 2.23 2.162 3.36l-2.116 1.331a189.57 189.57 0 0 1 2.073 3.369l2.142-1.289c.686 1.14 1.363 2.289 2.03 3.448l-2.167 1.247a201.24 201.24 0 0 1 1.937 3.445l2.191-1.205a204.772 204.772 0 0 1 1.896 3.53l-2.213 1.162c.61 1.162 1.211 2.334 1.802 3.514l2.235-1.12a210.988 210.988 0 0 1 1.764 3.604l-2.256 1.078a204.95 204.95 0 0 1 1.668 3.575l2.275-1.036a216.507 216.507 0 0 1 1.628 3.666l-2.294.994a219.11 219.11 0 0 1 1.537 3.638l2.312-.952c.507 1.231 1.004 2.47 1.491 3.717l-2.328.91c.479 1.226.948 2.459 1.408 3.699l2.344-.868c.462 1.247.914 2.501 1.356 3.761l-2.359.827c.436 1.245.862 2.497 1.279 3.756l2.373-.786c.417 1.261.824 2.528 1.221 3.801l-2.386.744c.392 1.26.775 2.526 1.148 3.799l2.399-.703c.373 1.275.737 2.556 1.09 3.843l-2.411.662c.349 1.27.687 2.547 1.016 3.829l2.422-.621c.33 1.29.651 2.586.961 3.888l-2.432.58c.305 1.279.6 2.564.885 3.854l2.441-.539c.288 1.304.565 2.614.832 3.928l-2.45.498c.262 1.287.513 2.579.755 3.876l2.458-.458c.244 1.31.477 2.625.7 3.946l-2.465.416c.22 1.299.43 2.602.629 3.91l2.471-.376c.201 1.315.391 2.634.571 3.958l-2.478.336c.178 1.309.346 2.623.503 3.941l2.482-.296c.158 1.318.305 2.64.441 3.966l-2.487.256c.136 1.313.261 2.63.376 3.95l2.49-.216c.115 1.325.22 2.655.315 3.988l-2.494.176c.093 1.314.176 2.631.249 3.952l2.496-.137c.073 1.333.136 2.669.189 4.01l-2.498.098c.051 1.312.092 2.628.123 3.948l2.499-.059Z"/><path fill="#A3A3A3" fill-opacity=".1" fill-rule="evenodd" d="M197.266 598.216c0 6.628 5.372 12 12 12h153.751c6.627 0 12-5.372 12-12V399.708c0-6.627-5.373-12-12-12h-7.045c-87.651 0-158.706 88.947-158.706 198.668v11.84Z" clip-rule="evenodd"/></g></svg>