<svg width="282" height="48" viewBox="0 0 282 48" fill="none" xmlns="http://www.w3.org/2000/svg">
<path d="M22.9421 48L11.1276 22.2793C11.1047 22.2169 11.0704 22.1337 11.0246 22.0297C10.9788 21.9049 10.9215 21.7385 10.8529 21.5305C10.8529 21.7177 10.8529 21.8841 10.8529 22.0297C10.8529 22.1753 10.8529 22.2793 10.8529 22.3418V43.685H0V0H11.0589L22.0491 24.3923C22.301 24.8499 22.5185 25.2868 22.7017 25.7028C22.8849 26.0981 23.0566 26.5349 23.2169 27.0134C23.4 26.5349 23.5718 26.0773 23.732 25.6404C23.9152 25.2036 24.1098 24.7875 24.3159 24.3923L35.7183 0H45.8155V43.685H34.9627V22.2793C34.9627 22.1545 34.9627 22.0193 34.9627 21.8737C34.9627 21.7281 34.9627 21.6137 34.9627 21.5305C34.894 21.6553 34.8253 21.7801 34.7566 21.9049C34.7108 22.0089 34.665 22.0921 34.6192 22.1545L22.9421 48Z" fill="url(#paint0_linear_95_4)"/>
<path d="M70.174 44.4339C66.0755 44.4339 62.4922 43.7474 59.4241 42.3744C56.3789 40.9807 54.0206 38.9733 52.3492 36.3522C50.6777 33.7311 49.842 30.5587 49.842 26.8351V0H60.6949V26.8351C60.6949 29.8514 61.4619 31.9524 62.996 33.1382C64.53 34.3031 66.9227 34.8856 70.174 34.8856C72.2346 34.8856 73.9633 34.6464 75.36 34.1679C76.7566 33.6686 77.8099 32.8366 78.5197 31.6716C79.2295 30.4859 79.5843 28.8737 79.5843 26.8351V0H90.4372V26.8351C90.4372 30.101 89.8533 32.8574 88.6856 35.104C87.5179 37.3507 85.9495 39.1605 83.9804 40.5334C82.0342 41.9064 79.8591 42.9049 77.455 43.529C75.0509 44.1322 72.6239 44.4339 70.174 44.4339Z" fill="url(#paint1_linear_95_4)"/>
<path d="M94.4009 43.685V0H130.395V9.36107H105.254V16.4755H122.504V25.8366H105.254V34.2615H130.875V43.685H94.4009Z" fill="url(#paint2_linear_95_4)"/>
<path d="M134.629 43.685V0H145.482V34.1367H164.917V43.685H134.629Z" fill="url(#paint3_linear_95_4)"/>
<path d="M167.634 43.685V0H178.487V34.1367H197.922V43.685H167.634Z" fill="url(#paint4_linear_95_4)"/>
<path d="M200.639 43.685V0H236.633V9.36107H211.492V16.4755H228.743V25.8366H211.492V34.2615H237.113V43.685H200.639Z" fill="url(#paint5_linear_95_4)"/>
<path d="M240.867 43.685V0H264.703C268.801 0 272.052 0.655276 274.456 1.96583C276.86 3.25557 278.578 4.98217 279.608 7.14562C280.661 9.30907 281.188 11.6701 281.188 14.2288C281.188 15.8306 280.856 17.4844 280.192 19.1902C279.528 20.8752 278.555 22.425 277.273 23.8395C276.013 25.2333 274.479 26.2942 272.67 27.0223L281.6 43.685H269.442L260.856 28.5825H251.72V43.685H240.867ZM251.72 19.2838H264.84C266.122 19.2838 267.13 19.055 267.862 18.5973C268.618 18.1189 269.144 17.4948 269.442 16.7251C269.763 15.9554 269.923 15.1233 269.923 14.2288C269.923 13.3967 269.774 12.6062 269.476 11.8574C269.179 11.1085 268.652 10.4948 267.897 10.0163C267.164 9.53789 266.145 9.29867 264.84 9.29867H251.72V19.2838Z" fill="url(#paint6_linear_95_4)"/>
<defs>
<linearGradient id="paint0_linear_95_4" x1="0" y1="24" x2="281.6" y2="24" gradientUnits="userSpaceOnUse">
<stop stop-color="#0070D7"/>
<stop offset="1" stop-color="#28A2E7"/>
</linearGradient>
<linearGradient id="paint1_linear_95_4" x1="0" y1="24" x2="281.6" y2="24" gradientUnits="userSpaceOnUse">
<stop stop-color="#0070D7"/>
<stop offset="1" stop-color="#28A2E7"/>
</linearGradient>
<linearGradient id="paint2_linear_95_4" x1="0" y1="24" x2="281.6" y2="24" gradientUnits="userSpaceOnUse">
<stop stop-color="#0070D7"/>
<stop offset="1" stop-color="#28A2E7"/>
</linearGradient>
<linearGradient id="paint3_linear_95_4" x1="0" y1="24" x2="281.6" y2="24" gradientUnits="userSpaceOnUse">
<stop stop-color="#0070D7"/>
<stop offset="1" stop-color="#28A2E7"/>
</linearGradient>
<linearGradient id="paint4_linear_95_4" x1="0" y1="24" x2="281.6" y2="24" gradientUnits="userSpaceOnUse">
<stop stop-color="#0070D7"/>
<stop offset="1" stop-color="#28A2E7"/>
</linearGradient>
<linearGradient id="paint5_linear_95_4" x1="0" y1="24" x2="281.6" y2="24" gradientUnits="userSpaceOnUse">
<stop stop-color="#0070D7"/>
<stop offset="1" stop-color="#28A2E7"/>
</linearGradient>
<linearGradient id="paint6_linear_95_4" x1="0" y1="24" x2="281.6" y2="24" gradientUnits="userSpaceOnUse">
<stop stop-color="#0070D7"/>
<stop offset="1" stop-color="#28A2E7"/>
</linearGradient>
</defs>
</svg>
