<svg xmlns="http://www.w3.org/2000/svg" width="216" height="36" fill="none"><path fill="#fff" d="M17.598 36 8.535 16.71a3.346 3.346 0 0 0-.079-.188 12.404 12.404 0 0 1-.131-.374v16.616H0V0h8.483l8.43 18.294c.193.343.36.671.5.983.14.297.272.624.395.983.14-.359.273-.702.395-1.03.141-.327.29-.64.448-.936L27.398 0h7.745v32.764h-8.325V16.148l-.158.28a.999.999 0 0 1-.105.188L17.598 36ZM53.827 33.325c-3.144 0-5.893-.514-8.246-1.544-2.336-1.046-4.145-2.551-5.427-4.517-1.282-1.966-1.923-4.345-1.923-7.138V0h8.325v20.126c0 2.263.588 3.838 1.765 4.728 1.177.873 3.012 1.31 5.506 1.31 1.58 0 2.906-.18 3.977-.538 1.072-.375 1.88-.999 2.424-1.872.545-.89.817-2.099.817-3.628V0h8.324v20.126c0 2.45-.447 4.517-1.343 6.202-.896 1.685-2.099 3.042-3.61 4.072-1.492 1.03-3.16 1.779-5.005 2.247a23.353 23.353 0 0 1-5.584.678ZM72.41 32.764V0h27.609v7.02H80.734v5.337h13.233v7.02H80.733v6.32h19.653v7.067H72.41ZM103.267 32.764V0h8.324v25.602h14.908v7.162h-23.232ZM128.583 32.764V0h8.325v25.602h14.907v7.162h-23.232ZM153.899 32.764V0h27.609v7.02h-19.284v5.337h13.232v7.02h-13.232v6.32h19.653v7.067h-27.978ZM184.756 32.764V0h18.283c3.144 0 5.637.491 7.482 1.474 1.844.968 3.161 2.263 3.951 3.885.808 1.623 1.212 3.394 1.212 5.313 0 1.201-.255 2.441-.764 3.72-.509 1.264-1.256 2.427-2.239 3.488-.966 1.045-2.143 1.84-3.53 2.387L216 32.764h-9.326l-6.586-11.327h-7.007v11.327h-8.325Zm8.325-18.301h10.063c.984 0 1.757-.172 2.319-.515.579-.359.983-.827 1.211-1.404a4.725 4.725 0 0 0 .369-1.872c0-.625-.114-1.217-.342-1.779-.229-.562-.633-1.022-1.212-1.38-.562-.36-1.344-.539-2.345-.539h-10.063v7.489Z"/></svg>