<svg xmlns="http://www.w3.org/2000/svg" width="144" height="24" fill="none"><path fill="#0B80C5" d="M11.732 24 5.69 11.14a2.227 2.227 0 0 0-.052-.125 8.35 8.35 0 0 1-.088-.25v11.078H0V0h5.655l5.62 12.196a8.231 8.231 0 0 1 .597 1.31c.094-.239.182-.467.264-.686a8.19 8.19 0 0 1 .298-.624L18.265 0h5.163v21.843h-5.55V10.765l-.105.188a.672.672 0 0 1-.07.124L11.732 24Zm24.152-1.783c-2.095 0-3.928-.343-5.497-1.03-1.557-.697-2.763-1.7-3.617-3.01-.855-1.311-1.283-2.898-1.283-4.76V0h5.55v13.418c0 1.508.392 2.558 1.177 3.151.784.583 2.008.874 3.67.874 1.054 0 1.938-.12 2.652-.359.715-.25 1.253-.666 1.616-1.248.363-.593.544-1.4.544-2.418V0h5.55v13.418c0 1.633-.298 3.01-.895 4.134a7.473 7.473 0 0 1-2.407 2.715 10.272 10.272 0 0 1-3.336 1.498c-1.23.301-2.47.452-3.724.452Zm12.389-.374V0H66.68v4.68H53.823v3.558h8.821v4.68h-8.821v4.213h13.102v4.712H48.273Zm20.571 0V0h5.55v17.068h9.938v4.774H68.844Zm16.878 0V0h5.55v17.068h9.938v4.774H85.722Zm16.878 0V0h18.406v4.68h-12.857v3.558h8.822v4.68h-8.822v4.213h13.102v4.712H102.6Zm20.571 0V0h12.188c2.096 0 3.759.328 4.988.983 1.229.645 2.107 1.508 2.634 2.59.539 1.082.808 2.262.808 3.541 0 .801-.17 1.628-.509 2.481a7.569 7.569 0 0 1-1.493 2.325 6.29 6.29 0 0 1-2.353 1.591L144 21.843h-6.217l-4.391-7.552h-4.671v7.552h-5.55Zm5.55-12.201h6.709c.655 0 1.17-.115 1.545-.343.386-.24.656-.552.808-.936.164-.385.246-.801.246-1.249 0-.416-.076-.81-.229-1.185-.152-.375-.421-.682-.807-.92-.375-.24-.896-.36-1.563-.36h-6.709v4.993Z"/></svg>