<svg width="299" height="225" viewBox="0 0 299 225" fill="none" xmlns="http://www.w3.org/2000/svg">
<path d="M13.7714 11.5611L10.6613 0L7.55116 11.5611L-4 14.6739L7.55116 17.7867L10.6613 29.3478L13.7714 17.7867L25.3226 14.6739L13.7714 11.5611Z" fill="white" fill-opacity="0.07"/>
<path d="M52.8682 11.5611L49.7581 0L46.6479 11.5611L35.0968 14.6739L46.6479 17.7867L49.7581 29.3478L52.8682 17.7867L64.4194 14.6739L52.8682 11.5611Z" fill="white" fill-opacity="0.07"/>
<path d="M88.8548 0L91.965 11.5611L103.516 14.6739L91.965 17.7867L88.8548 29.3478L85.7447 17.7867L74.1936 14.6739L85.7447 11.5611L88.8548 0Z" fill="white" fill-opacity="0.07"/>
<path d="M131.062 11.5611L127.952 0L124.841 11.5611L113.29 14.6739L124.841 17.7867L127.952 29.3478L131.062 17.7867L142.613 14.6739L131.062 11.5611Z" fill="white" fill-opacity="0.07"/>
<path d="M167.048 0L170.159 11.5611L181.71 14.6739L170.159 17.7867L167.048 29.3478L163.938 17.7867L152.387 14.6739L163.938 11.5611L167.048 0Z" fill="white" fill-opacity="0.07"/>
<path d="M209.255 11.5611L206.145 0L203.035 11.5611L191.484 14.6739L203.035 17.7867L206.145 29.3478L209.255 17.7867L220.806 14.6739L209.255 11.5611Z" fill="white" fill-opacity="0.07"/>
<path d="M245.242 0L248.352 11.5611L259.903 14.6739L248.352 17.7867L245.242 29.3478L242.132 17.7867L230.581 14.6739L242.132 11.5611L245.242 0Z" fill="white" fill-opacity="0.07"/>
<path d="M287.449 11.5611L284.339 0L281.229 11.5611L269.677 14.6739L281.229 17.7867L284.339 29.3478L287.449 17.7867L299 14.6739L287.449 11.5611Z" fill="white" fill-opacity="0.07"/>
<path d="M10.6613 39.1304L13.7714 50.6915L25.3226 53.8043L13.7714 56.9172L10.6613 68.4783L7.55116 56.9172L-4 53.8043L7.55116 50.6915L10.6613 39.1304Z" fill="white" fill-opacity="0.07"/>
<path d="M52.8682 50.6915L49.7581 39.1304L46.6479 50.6915L35.0968 53.8043L46.6479 56.9172L49.7581 68.4783L52.8682 56.9172L64.4194 53.8043L52.8682 50.6915Z" fill="white" fill-opacity="0.07"/>
<path d="M88.8548 39.1304L91.965 50.6915L103.516 53.8043L91.965 56.9172L88.8548 68.4783L85.7447 56.9172L74.1936 53.8043L85.7447 50.6915L88.8548 39.1304Z" fill="white" fill-opacity="0.07"/>
<path d="M131.062 50.6915L127.952 39.1304L124.841 50.6915L113.29 53.8043L124.841 56.9172L127.952 68.4783L131.062 56.9172L142.613 53.8043L131.062 50.6915Z" fill="white" fill-opacity="0.07"/>
<path d="M167.048 39.1304L170.159 50.6915L181.71 53.8043L170.159 56.9172L167.048 68.4783L163.938 56.9172L152.387 53.8043L163.938 50.6915L167.048 39.1304Z" fill="white" fill-opacity="0.07"/>
<path d="M209.255 50.6915L206.145 39.1304L203.035 50.6915L191.484 53.8043L203.035 56.9172L206.145 68.4783L209.255 56.9172L220.806 53.8043L209.255 50.6915Z" fill="white" fill-opacity="0.07"/>
<path d="M245.242 39.1304L248.352 50.6915L259.903 53.8043L248.352 56.9172L245.242 68.4783L242.132 56.9172L230.581 53.8043L242.132 50.6915L245.242 39.1304Z" fill="white" fill-opacity="0.07"/>
<path d="M287.449 50.6915L284.339 39.1304L281.229 50.6915L269.677 53.8043L281.229 56.9172L284.339 68.4783L287.449 56.9172L299 53.8043L287.449 50.6915Z" fill="white" fill-opacity="0.07"/>
<path d="M10.6613 78.2609L13.7714 89.822L25.3226 92.9348L13.7714 96.0476L10.6613 107.609L7.55116 96.0476L-4 92.9348L7.55116 89.822L10.6613 78.2609Z" fill="white" fill-opacity="0.07"/>
<path d="M52.8682 89.822L49.7581 78.2609L46.6479 89.822L35.0968 92.9348L46.6479 96.0476L49.7581 107.609L52.8682 96.0476L64.4194 92.9348L52.8682 89.822Z" fill="white" fill-opacity="0.07"/>
<path d="M88.8548 78.2609L91.965 89.822L103.516 92.9348L91.965 96.0476L88.8548 107.609L85.7447 96.0476L74.1936 92.9348L85.7447 89.822L88.8548 78.2609Z" fill="white" fill-opacity="0.07"/>
<path d="M131.062 89.822L127.952 78.2609L124.841 89.822L113.29 92.9348L124.841 96.0476L127.952 107.609L131.062 96.0476L142.613 92.9348L131.062 89.822Z" fill="white" fill-opacity="0.07"/>
<path d="M167.048 78.2609L170.159 89.822L181.71 92.9348L170.159 96.0476L167.048 107.609L163.938 96.0476L152.387 92.9348L163.938 89.822L167.048 78.2609Z" fill="white" fill-opacity="0.07"/>
<path d="M209.255 89.822L206.145 78.2609L203.035 89.822L191.484 92.9348L203.035 96.0476L206.145 107.609L209.255 96.0476L220.806 92.9348L209.255 89.822Z" fill="white" fill-opacity="0.07"/>
<path d="M245.242 78.2609L248.352 89.822L259.903 92.9348L248.352 96.0476L245.242 107.609L242.132 96.0476L230.581 92.9348L242.132 89.822L245.242 78.2609Z" fill="white" fill-opacity="0.07"/>
<path d="M287.449 89.822L284.339 78.2609L281.229 89.822L269.677 92.9348L281.229 96.0476L284.339 107.609L287.449 96.0476L299 92.9348L287.449 89.822Z" fill="white" fill-opacity="0.07"/>
<path d="M10.6613 117.391L13.7714 128.952L25.3226 132.065L13.7714 135.178L10.6613 146.739L7.55116 135.178L-4 132.065L7.55116 128.952L10.6613 117.391Z" fill="white" fill-opacity="0.07"/>
<path d="M52.8682 128.952L49.7581 117.391L46.6479 128.952L35.0968 132.065L46.6479 135.178L49.7581 146.739L52.8682 135.178L64.4194 132.065L52.8682 128.952Z" fill="white" fill-opacity="0.07"/>
<path d="M88.8548 117.391L91.965 128.952L103.516 132.065L91.965 135.178L88.8548 146.739L85.7447 135.178L74.1936 132.065L85.7447 128.952L88.8548 117.391Z" fill="white" fill-opacity="0.07"/>
<path d="M131.062 128.952L127.952 117.391L124.841 128.952L113.29 132.065L124.841 135.178L127.952 146.739L131.062 135.178L142.613 132.065L131.062 128.952Z" fill="white" fill-opacity="0.07"/>
<path d="M167.048 117.391L170.159 128.952L181.71 132.065L170.159 135.178L167.048 146.739L163.938 135.178L152.387 132.065L163.938 128.952L167.048 117.391Z" fill="white" fill-opacity="0.07"/>
<path d="M209.255 128.952L206.145 117.391L203.035 128.952L191.484 132.065L203.035 135.178L206.145 146.739L209.255 135.178L220.806 132.065L209.255 128.952Z" fill="white" fill-opacity="0.07"/>
<path d="M245.242 117.391L248.352 128.952L259.903 132.065L248.352 135.178L245.242 146.739L242.132 135.178L230.581 132.065L242.132 128.952L245.242 117.391Z" fill="white" fill-opacity="0.07"/>
<path d="M287.449 128.952L284.339 117.391L281.229 128.952L269.677 132.065L281.229 135.178L284.339 146.739L287.449 135.178L299 132.065L287.449 128.952Z" fill="white" fill-opacity="0.07"/>
<path d="M10.6613 156.522L13.7714 168.083L25.3226 171.196L13.7714 174.308L10.6613 185.87L7.55116 174.308L-4 171.196L7.55116 168.083L10.6613 156.522Z" fill="white" fill-opacity="0.07"/>
<path d="M52.8682 168.083L49.7581 156.522L46.6479 168.083L35.0968 171.196L46.6479 174.308L49.7581 185.87L52.8682 174.308L64.4194 171.196L52.8682 168.083Z" fill="white" fill-opacity="0.07"/>
<path d="M88.8548 156.522L91.965 168.083L103.516 171.196L91.965 174.308L88.8548 185.87L85.7447 174.308L74.1936 171.196L85.7447 168.083L88.8548 156.522Z" fill="white" fill-opacity="0.07"/>
<path d="M131.062 168.083L127.952 156.522L124.841 168.083L113.29 171.196L124.841 174.308L127.952 185.87L131.062 174.308L142.613 171.196L131.062 168.083Z" fill="white" fill-opacity="0.07"/>
<path d="M167.048 156.522L170.159 168.083L181.71 171.196L170.159 174.308L167.048 185.87L163.938 174.308L152.387 171.196L163.938 168.083L167.048 156.522Z" fill="white" fill-opacity="0.07"/>
<path d="M209.255 168.083L206.145 156.522L203.035 168.083L191.484 171.196L203.035 174.308L206.145 185.87L209.255 174.308L220.806 171.196L209.255 168.083Z" fill="white" fill-opacity="0.07"/>
<path d="M245.242 156.522L248.352 168.083L259.903 171.196L248.352 174.308L245.242 185.87L242.132 174.308L230.581 171.196L242.132 168.083L245.242 156.522Z" fill="white" fill-opacity="0.07"/>
<path d="M287.449 168.083L284.339 156.522L281.229 168.083L269.677 171.196L281.229 174.308L284.339 185.87L287.449 174.308L299 171.196L287.449 168.083Z" fill="white" fill-opacity="0.07"/>
<path d="M10.6613 195.652L13.7714 207.213L25.3226 210.326L13.7714 213.439L10.6613 225L7.55116 213.439L-4 210.326L7.55116 207.213L10.6613 195.652Z" fill="white" fill-opacity="0.07"/>
<path d="M52.8682 207.213L49.7581 195.652L46.6479 207.213L35.0968 210.326L46.6479 213.439L49.7581 225L52.8682 213.439L64.4194 210.326L52.8682 207.213Z" fill="white" fill-opacity="0.07"/>
<path d="M88.8548 195.652L91.965 207.213L103.516 210.326L91.965 213.439L88.8548 225L85.7447 213.439L74.1936 210.326L85.7447 207.213L88.8548 195.652Z" fill="white" fill-opacity="0.07"/>
<path d="M131.062 207.213L127.952 195.652L124.841 207.213L113.29 210.326L124.841 213.439L127.952 225L131.062 213.439L142.613 210.326L131.062 207.213Z" fill="white" fill-opacity="0.07"/>
<path d="M167.048 195.652L170.159 207.213L181.71 210.326L170.159 213.439L167.048 225L163.938 213.439L152.387 210.326L163.938 207.213L167.048 195.652Z" fill="white" fill-opacity="0.07"/>
<path d="M209.255 207.213L206.145 195.652L203.035 207.213L191.484 210.326L203.035 213.439L206.145 225L209.255 213.439L220.806 210.326L209.255 207.213Z" fill="white" fill-opacity="0.07"/>
<path d="M245.242 195.652L248.352 207.213L259.903 210.326L248.352 213.439L245.242 225L242.132 213.439L230.581 210.326L242.132 207.213L245.242 195.652Z" fill="white" fill-opacity="0.07"/>
<path d="M287.449 207.213L284.339 195.652L281.229 207.213L269.677 210.326L281.229 213.439L284.339 225L287.449 213.439L299 210.326L287.449 207.213Z" fill="white" fill-opacity="0.07"/>
</svg>
