<svg xmlns="http://www.w3.org/2000/svg" width="240" height="150" fill="none"><path fill="#A3A3A3" fill-opacity=".1" fill-rule="evenodd" d="M178.484 87.83a7.435 7.435 0 0 0-7.435-7.434h-36c-6.628 0-12 5.372-12 12v51.454a5.94 5.94 0 0 0 5.939 5.94c27.336 0 49.496-27.74 49.496-61.96Z" clip-rule="evenodd"/><path stroke="#A3A3A3" stroke-dasharray="4 4" stroke-opacity=".3" stroke-width="5" d="M175.984 87.83a4.91 4.91 0 0 0-.373-1.888l2.309-.957a7.457 7.457 0 0 0-4.025-4.025l-.957 2.309a4.916 4.916 0 0 0-1.889-.374h-1.8v-2.5h-3.6v2.5h-3.6v-2.5h-3.6v2.5h-3.6v-2.5h-3.6v2.5h-3.6v-2.5h-3.6v2.5h-3.6v-2.5h-3.6v2.5h-1.8c-.638 0-1.259.063-1.857.181l-.485-2.452c-1.575.311-3.038.93-4.326 1.793l1.391 2.077a9.578 9.578 0 0 0-2.625 2.625l-2.077-1.39a11.924 11.924 0 0 0-1.793 4.325l2.452.485a9.591 9.591 0 0 0-.18 1.856v2.145h-2.5v4.287h2.5v4.288h-2.5v4.288h2.5v4.288h-2.5v4.288h2.5v4.288h-2.5v4.288h2.5v4.288h-2.5v4.287h2.5v4.288h-2.5v4.288h2.5v2.144c0 .471.093.914.26 1.316l-2.31.958a5.96 5.96 0 0 0 3.216 3.215l.957-2.309c.402.166.845.26 1.316.26.628 0 1.252-.016 1.874-.047l.124 2.497a39.879 39.879 0 0 0 3.97-.396l-.372-2.472a37.735 37.735 0 0 0 3.668-.74l.614 2.424a41.475 41.475 0 0 0 3.816-1.168l-.846-2.352a40.31 40.31 0 0 0 3.47-1.437l1.063 2.263a44.362 44.362 0 0 0 3.531-1.857l-1.261-2.159a44.068 44.068 0 0 0 3.175-2.044l1.441 2.043a49.662 49.662 0 0 0 3.165-2.433l-1.603-1.919a49.393 49.393 0 0 0 2.818-2.545l1.745 1.79a54.36 54.36 0 0 0 2.754-2.892l-1.872-1.657a54.674 54.674 0 0 0 2.427-2.943l1.982 1.523a59.625 59.625 0 0 0 2.325-3.247l-2.079-1.387a60.282 60.282 0 0 0 2.022-3.253l2.164 1.252a65.088 65.088 0 0 0 1.891-3.515l-2.237-1.117a64.9 64.9 0 0 0 1.613-3.488l2.299.981a69.435 69.435 0 0 0 1.46-3.712l-2.352-.848c.432-1.199.834-2.42 1.203-3.66l2.396.714a72.388 72.388 0 0 0 1.034-3.854l-2.431-.582c.297-1.24.563-2.498.796-3.772l2.459.45c.238-1.3.443-2.616.615-3.945l-2.48-.32c.164-1.268.296-2.549.395-3.842l2.493.19c.1-1.316.168-2.644.202-3.983l-2.499-.064c.016-.643.024-1.288.024-1.936Z"/><path fill="#A3A3A3" fill-opacity=".1" fill-rule="evenodd" d="M183.895 87.83a7.435 7.435 0 0 1 7.435-7.434h36c6.628 0 12 5.372 12 12v51.454a5.94 5.94 0 0 1-5.939 5.94c-27.336 0-49.496-27.74-49.496-61.96ZM.008 142.355a7.435 7.435 0 0 0 7.435 7.435h36c6.628 0 12-5.373 12-12V86.335a5.94 5.94 0 0 0-5.939-5.94c-27.336 0-49.496 27.741-49.496 61.96Z" clip-rule="evenodd"/><path stroke="#A3A3A3" stroke-dasharray="4 4" stroke-opacity=".3" stroke-width="5" d="M2.508 142.355c0 .673.133 1.31.373 1.888l-2.309.958a7.464 7.464 0 0 0 4.025 4.025l.957-2.31a4.91 4.91 0 0 0 1.889.374h1.8v2.5h3.6v-2.5h3.6v2.5h3.6v-2.5h3.6v2.5h3.6v-2.5h3.6v2.5h3.6v-2.5h3.6v2.5h3.6v-2.5h1.8a9.59 9.59 0 0 0 1.857-.181l.486 2.452a11.923 11.923 0 0 0 4.325-1.792l-1.39-2.078a9.563 9.563 0 0 0 2.624-2.625l2.077 1.391a11.93 11.93 0 0 0 1.793-4.325l-2.452-.485a9.57 9.57 0 0 0 .18-1.857v-2.144h2.5v-4.288h-2.5v-4.288h2.5v-4.288h-2.5v-4.288h2.5v-4.288h-2.5v-4.288h2.5v-4.287h-2.5v-4.288h2.5v-4.288h-2.5v-4.288h2.5v-4.288h-2.5v-2.144c0-.47-.093-.914-.26-1.316l2.31-.958a5.96 5.96 0 0 0-3.215-3.215l-.958 2.31a3.423 3.423 0 0 0-1.316-.26c-.628 0-1.252.015-1.873.046l-.124-2.497c-1.338.067-2.662.2-3.97.396l.371 2.473a37.803 37.803 0 0 0-3.668.739l-.614-2.423c-1.29.327-2.563.717-3.816 1.167l.846 2.353a40.04 40.04 0 0 0-3.47 1.436l-1.063-2.263a44.422 44.422 0 0 0-3.53 1.858l1.26 2.158a44.114 44.114 0 0 0-3.175 2.044l-1.44-2.042a49.109 49.109 0 0 0-3.165 2.433l1.602 1.919a49.245 49.245 0 0 0-2.817 2.544l-1.746-1.79a54.549 54.549 0 0 0-2.754 2.892l1.872 1.657a54.768 54.768 0 0 0-2.427 2.943l-1.982-1.523a60.055 60.055 0 0 0-2.325 3.247l2.08 1.387a59.907 59.907 0 0 0-2.022 3.253l-2.164-1.252a64.872 64.872 0 0 0-1.891 3.515l2.236 1.117a64.363 64.363 0 0 0-1.613 3.489l-2.299-.982a69.084 69.084 0 0 0-1.46 3.713l2.352.847a68.754 68.754 0 0 0-1.203 3.66l-2.396-.714a72.917 72.917 0 0 0-1.034 3.854l2.431.582a71.83 71.83 0 0 0-.796 3.773l-2.459-.451a75.622 75.622 0 0 0-.615 3.946l2.48.32a74.3 74.3 0 0 0-.395 3.842l-2.492-.191a78.106 78.106 0 0 0-.203 3.984l2.5.063a76.499 76.499 0 0 0-.025 1.937Z"/><path fill="#A3A3A3" fill-opacity=".1" fill-rule="evenodd" d="M116.965 142.355a7.435 7.435 0 0 1-7.435 7.435H74.205c-6.627 0-12-5.373-12-12V86.263a5.867 5.867 0 0 1 5.867-5.868c27.003 0 48.893 27.741 48.893 61.96ZM116.965 7.435A7.435 7.435 0 0 0 109.53 0H74.205c-6.627 0-12 5.373-12 12v51.527a5.867 5.867 0 0 0 5.867 5.867c27.003 0 48.893-27.74 48.893-61.959ZM1.36 61.96a7.435 7.435 0 0 0 7.434 7.434H44.12c6.627 0 12-5.372 12-12V5.867A5.867 5.867 0 0 0 50.252 0C23.249 0 1.359 27.74 1.359 61.96ZM185.25 61.96a7.435 7.435 0 0 0 7.435 7.434h35.325c6.627 0 12-5.372 12-12V5.867A5.867 5.867 0 0 0 234.143 0C207.14 0 185.25 27.74 185.25 61.96Z" clip-rule="evenodd"/><path stroke="#A3A3A3" stroke-dasharray="4 4" stroke-opacity=".3" stroke-width="5" d="M187.75 61.96c0 .673.134 1.31.373 1.888l-2.309.957a7.464 7.464 0 0 0 4.025 4.025l.958-2.31c.578.24 1.214.374 1.888.374h2.208v2.5h4.415v-2.5h4.416v2.5h4.416v-2.5h4.415v2.5h4.416v-2.5h4.415v2.5h4.416v-2.5h2.208a9.57 9.57 0 0 0 1.857-.18l.485 2.452a11.931 11.931 0 0 0 4.325-1.793l-1.391-2.077a9.565 9.565 0 0 0 2.625-2.625l2.078 1.39a11.94 11.94 0 0 0 1.792-4.325l-2.452-.485c.118-.598.181-1.22.181-1.857v-2.147h2.5v-4.294h-2.5V46.66h2.5v-4.294h-2.5v-4.293h2.5v-4.294h-2.5v-4.294h2.5V25.19h-2.5v-4.294h2.5v-4.294h-2.5v-4.294h2.5V8.014h-2.5V5.867c0-.461-.092-.895-.255-1.288l2.31-.958a5.887 5.887 0 0 0-3.177-3.176l-.957 2.31a3.35 3.35 0 0 0-1.288-.255c-.624 0-1.244.016-1.861.047L232.155.05c-1.33.068-2.648.203-3.949.402l.379 2.471a36.878 36.878 0 0 0-3.641.749l-.625-2.42a40.21 40.21 0 0 0-3.79 1.182l.86 2.347a39.456 39.456 0 0 0-3.439 1.45l-1.079-2.254a43.808 43.808 0 0 0-3.499 1.876L214.651 8a43.9 43.9 0 0 0-3.139 2.059l-1.459-2.03a48.69 48.69 0 0 0-3.127 2.45l1.62 1.904a48.93 48.93 0 0 0-2.778 2.556l-1.762-1.774a54.004 54.004 0 0 0-2.714 2.903l1.886 1.64a54.837 54.837 0 0 0-2.387 2.949l-1.996-1.506a60.139 60.139 0 0 0-2.286 3.25l2.091 1.371a59.97 59.97 0 0 0-1.985 3.252l-2.174-1.235a65.523 65.523 0 0 0-1.856 3.511l2.245 1.101a65.294 65.294 0 0 0-1.582 3.482l-2.305-.967a70.572 70.572 0 0 0-1.431 3.703l2.357.834a69.323 69.323 0 0 0-1.179 3.65l-2.399-.703a73.575 73.575 0 0 0-1.012 3.838l2.433.573c-.29 1.236-.55 2.489-.779 3.758l-2.46-.443a76.618 76.618 0 0 0-.602 3.927l2.481.314a75.48 75.48 0 0 0-.386 3.825l-2.493-.188a78.323 78.323 0 0 0-.198 3.964l2.499.063c-.016.64-.024 1.282-.024 1.927Z"/><path fill="#A3A3A3" fill-opacity=".1" fill-rule="evenodd" d="M178.484 61.96a7.435 7.435 0 0 1-7.435 7.434h-36c-6.628 0-12-5.372-12-12V5.94A5.94 5.94 0 0 1 128.988 0c27.336 0 49.496 27.74 49.496 61.96Z" clip-rule="evenodd"/></svg>