<svg xmlns="http://www.w3.org/2000/svg" width="101" height="115" fill="none"><path fill="#A0A0A0" fill-rule="evenodd" d="M8.437 103.106 0 0l100.755.207-8.921 102.899L50.758 115 8.437 103.106Zm42.32-82.084h-32.57l3.526 38.587h29.045v20.038l-.83.223-14.314-4.149-.76-9.82H22.198l1.729 20.055 26.001 7.26.83-.23v12.056l34.092-9.889 7.399-85.195-41.491-.138v11.202Zm0 25.794V33.608h-18.67l1.314 13.208h17.357Z" clip-rule="evenodd"/><path fill="#A0A0A0" fill-opacity=".5" fill-rule="evenodd" d="M50.758 92.987v12.055l34.092-9.889 7.399-85.195-41.491-.138v11.202h31.256L80.84 33.608H50.758v13.208h28.905l-3.527 39.14-25.378 7.03Zm0-13.34 13.278-3.58 1.727-16.458H50.758v20.038Z" clip-rule="evenodd"/></svg>