<svg xmlns="http://www.w3.org/2000/svg" width="115" height="67" fill="none"><path fill="#A0A0A0" d="M41.338 65.074 63.087.732a1.077 1.077 0 0 1 1.132-.726l9.019.923a1.076 1.076 0 0 1 .917 1.41L52.917 65.795a1.078 1.078 0 0 1-1.022.738l-9.542-.037a1.079 1.079 0 0 1-1.016-1.422ZM14.553 35.089c-.722.283-.718.556.012.818a1275.49 1275.49 0 0 0 21.571 7.59.836.836 0 0 1 .56.77c.061 3.27-.023 6.54-.252 9.8a3.388 3.388 0 0 1-.21.955c-.147.381-.41.494-.788.338L.254 40.752A.42.42 0 0 1 0 40.346l.455-9.56a.624.624 0 0 1 .376-.542l34.411-14.75a.653.653 0 0 1 .546.01.677.677 0 0 1 .36.421c.184.628.3 1.244.344 1.847.226 3.078.288 6.146.185 9.203a.453.453 0 0 1-.296.406 1931.71 1931.71 0 0 1-20.77 7.535 1.872 1.872 0 0 1-.536.105c-.262.012-.437.035-.523.068Zm85.999-.105-21.97-7.67a.215.215 0 0 1-.148-.203c-.062-3.037-.05-6.13.037-9.277.01-.657.126-1.308.344-1.927.079-.205.222-.28.431-.222.698.193 1.35.414 1.958.665a8689.154 8689.154 0 0 1 33.42 13.832.535.535 0 0 1 .358.536l.018 9.671a.595.595 0 0 1-.363.548L79.603 55.403a.643.643 0 0 1-.785-.245.63.63 0 0 1-.095-.278 72.191 72.191 0 0 1-.277-10.822.547.547 0 0 1 .37-.486 566.628 566.628 0 0 0 21.748-7.806c.71-.271.706-.531-.012-.782Z"/></svg>