<svg xmlns="http://www.w3.org/2000/svg" width="30" height="30" fill="none"><path fill="#0B80C5" fill-rule="evenodd" d="M1.014 1.014A3.462 3.462 0 0 1 3.462 0h23.076A3.461 3.461 0 0 1 30 3.462v23.076A3.461 3.461 0 0 1 26.538 30H3.462A3.461 3.461 0 0 1 0 26.538V3.462c0-.919.365-1.799 1.014-2.448Zm1.713 15.35v10.174a.734.734 0 0 0 .735.735h10.174v-3.11a1.364 1.364 0 0 1 2.273-1.016 1.783 1.783 0 1 0 0-2.658 1.364 1.364 0 0 1-2.273-1.016v-3.11h-1.004l.007.04a4.51 4.51 0 1 1-8.907-.04H2.727Zm10.91-2.728h-3.11a1.364 1.364 0 0 0-1.016 2.273 1.783 1.783 0 1 1-2.658 0 1.364 1.364 0 0 0-1.017-2.273H2.727V3.462a.734.734 0 0 1 .735-.735h10.174v1.005a4.51 4.51 0 1 0-.04 8.907l.04-.007v1.004Zm2.727 2.728v1.004l.04-.006a4.51 4.51 0 1 1 0 8.913l-.04-.006v1.004h10.174a.734.734 0 0 0 .735-.735V16.364h-3.11a1.364 1.364 0 0 1-1.016-2.273 1.783 1.783 0 1 0-2.658 0 1.364 1.364 0 0 1-1.016 2.273h-3.11Zm10.909-2.728V3.462a.734.734 0 0 0-.735-.735H16.364v3.11a1.364 1.364 0 0 1-2.273 1.016 1.783 1.783 0 1 0 0 2.658 1.364 1.364 0 0 1 2.273 1.016v3.11h1.004l-.006-.04a4.51 4.51 0 1 1 8.913 0l-.006.04h1.004Z" clip-rule="evenodd"/></svg>