<svg xmlns="http://www.w3.org/2000/svg" width="120" height="104" fill="none"><path fill="#A0A0A0" d="M70.716 51.904c0-5.738-4.798-10.39-10.716-10.39-5.918 0-10.716 4.652-10.716 10.39S54.082 62.294 60 62.294c5.918 0 10.716-4.652 10.716-10.39Z"/><path fill="#A0A0A0" fill-rule="evenodd" d="M94.802 32.615c2.262-8.916 5.107-25.45-4.92-31.054-9.98-5.581-22.968 5.113-29.826 11.532-6.838-6.355-20.19-17.004-30.21-11.38-9.976 5.6-6.9 21.858-4.586 30.83C15.953 35.106 0 40.626 0 51.903 0 63.15 15.937 69.156 25.188 71.717c-2.322 9.02-5.244 25.048 4.745 30.635 10.056 5.622 23.367-4.773 30.289-11.262 6.902 6.457 19.764 16.919 29.747 11.317 10.013-5.62 7.405-21.932 5.092-30.956C104.03 68.884 120 63.01 120 51.904c0-11.17-16.039-16.735-25.198-19.29Zm-1.137 34.053c-1.519-4.662-3.569-9.619-6.077-14.74 2.394-5 4.364-9.893 5.84-14.524 6.716 1.887 21.446 6.201 21.446 14.5 0 8.376-14.136 12.73-21.21 14.764ZM87.4 98.104c-7.448 4.18-18.512-5.826-23.609-10.58 3.382-3.586 6.761-7.755 10.059-12.384 5.802-.5 11.282-1.315 16.252-2.43 1.628 6.384 4.779 21.195-2.702 25.394Zm-54.906-.06c-7.448-4.164-4.044-18.466-2.336-25.11 4.915 1.054 10.356 1.812 16.172 2.27 3.32 4.529 6.796 8.692 10.3 12.339-4.329 4.06-16.652 14.685-24.136 10.501ZM5.127 51.904c0-8.408 14.642-12.69 21.51-14.574 1.502 4.736 3.472 9.688 5.849 14.695-2.408 5.081-4.406 10.111-5.922 14.903-6.548-1.818-21.437-6.612-21.437-15.024Zm27.289-45.89c7.479-4.197 19.084 6.025 24.049 10.627-3.486 3.63-6.932 7.761-10.223 12.265-5.643.507-11.046 1.322-16.013 2.413-1.863-7.236-5.284-21.112 2.187-25.305Zm45.102 28.294c3.829.469 7.497 1.092 10.942 1.854-1.034 3.214-2.323 6.574-3.841 10.02a164.661 164.661 0 0 0-7.1-11.874Zm-17.46-14.116c2.365 2.484 4.733 5.257 7.062 8.266a155.587 155.587 0 0 0-14.183-.003c2.332-2.981 4.72-5.75 7.121-8.263ZM35.426 46.178a107.536 107.536 0 0 1-3.813-10.068c3.424-.743 7.075-1.35 10.879-1.81a145.213 145.213 0 0 0-7.066 11.878Zm7.175 23.685c-3.93-.425-7.636-1.002-11.059-1.724a109.377 109.377 0 0 1 3.89-10.272 145.234 145.234 0 0 0 7.17 11.996ZM60.2 83.966a112.567 112.567 0 0 1-7.22-8.378c4.752.181 9.513.182 14.265-.024-2.337 3.08-4.696 5.895-7.045 8.402Zm24.468-26.277c1.604 3.545 2.956 6.974 4.03 10.235-3.48.77-7.236 1.39-11.194 1.85a164.47 164.47 0 0 0 7.164-12.085ZM70.989 70.376c-7.269.504-14.583.498-21.854.042a139.693 139.693 0 0 1-10.984-18.395 139.632 139.632 0 0 1 10.923-18.36 149.09 149.09 0 0 1 21.874.003c4.076 5.842 7.722 11.968 10.955 18.286-3.195 6.373-6.865 12.527-10.914 18.424Zm16.332-64.51c7.481 4.184 4.151 19.043 2.517 25.504-4.978-1.114-10.385-1.942-16.045-2.458-3.297-4.552-6.714-8.691-10.143-12.274 5.028-4.7 16.262-14.914 23.671-10.772Z" clip-rule="evenodd"/></svg>