<svg xmlns="http://www.w3.org/2000/svg" width="115" height="49" fill="none"><mask id="a" width="115" height="49" x="0" y="0" maskUnits="userSpaceOnUse" style="mask-type:luminance"><path fill="#fff" d="M0 .5h115v47.702H0V.5Z"/></mask><g mask="url(#a)"><path fill="#A0A0A0" fill-rule="evenodd" d="M12.004 21.957c-2.479-.916-3.837-1.63-3.837-2.75 0-.95.78-1.494 2.173-1.494 2.546 0 5.16.985 6.96 1.868l1.018-6.281c-1.426-.68-4.345-1.8-8.385-1.8-2.852 0-5.23.747-6.927 2.14C1.241 15.1.324 17.203.324 19.75c0 4.618 2.818 6.587 7.402 8.25 2.953 1.053 3.938 1.8 3.938 2.955 0 1.12-.95 1.765-2.682 1.765-2.14 0-5.67-1.052-7.979-2.41l-1.018 6.348c1.969 1.12 5.636 2.275 9.438 2.275 3.022 0 5.534-.713 7.232-2.07 1.901-1.495 2.886-3.702 2.886-6.553 0-4.72-2.886-6.689-7.537-8.352Zm24.118-3.7 1.019-6.247h-5.378V4.426l-7.23 1.19-1.043 6.394-2.543.412-.952 5.835h3.484v12.256c0 3.192.815 5.399 2.479 6.757 1.392 1.12 3.395 1.663 6.213 1.663 2.173 0 3.497-.373 4.413-.611v-6.62c-.509.135-1.663.373-2.444.373-1.664 0-2.377-.849-2.377-2.784V18.257h4.359Zm16.148-6.612c-2.377 0-4.278 1.247-5.025 3.488l-.509-3.123h-7.367v26.414h8.42V21.278c1.052-1.29 2.546-1.756 4.583-1.756.441 0 .917 0 1.494.102v-7.776a6.86 6.86 0 0 0-1.596-.203Zm7.877-2.25c2.445 0 4.414-2.003 4.414-4.447C64.56 2.469 62.59.5 60.147.5a4.42 4.42 0 0 0-4.448 4.448 4.44 4.44 0 0 0 4.448 4.447Zm-4.244 2.615h8.454v26.414h-8.454V12.01Zm32.41 2.376C86.82 12.451 84.75 11.5 82.102 11.5c-2.445 0-4.584 1.019-6.587 3.158l-.441-2.648H67.67v36.192l8.42-1.392v-8.488c1.29.407 2.615.611 3.803.611 2.105 0 5.16-.543 7.537-3.123 2.275-2.479 3.43-6.315 3.43-11.374 0-4.482-.85-7.877-2.547-10.05ZM81.32 30.683c-.68 1.29-1.732 1.97-2.954 1.97-.849 0-1.596-.17-2.275-.51V19.581c1.426-1.494 2.716-1.664 3.192-1.664 2.139 0 3.191 2.309 3.191 6.824 0 2.58-.373 4.584-1.154 5.942ZM115 24.979c0-4.21-.917-7.537-2.716-9.88-1.834-2.376-4.584-3.599-8.081-3.599-7.164 0-11.611 5.297-11.611 13.785 0 4.753 1.188 8.318 3.53 10.592 2.106 2.038 5.127 3.056 9.032 3.056 3.599 0 6.926-.849 9.031-2.24l-.917-5.772c-2.071 1.12-4.481 1.731-7.197 1.731-1.63 0-2.751-.34-3.565-1.052-.883-.747-1.392-1.97-1.562-3.701h13.954c.034-.408.102-2.309.102-2.92Zm-14.124-2.24c.238-3.77 1.256-5.535 3.191-5.535 1.902 0 2.886 1.8 3.022 5.534h-6.213Z" clip-rule="evenodd"/></g></svg>