<svg xmlns="http://www.w3.org/2000/svg" width="115" height="115" fill="none"><path fill="#A0A0A0" fill-rule="evenodd" d="M17.25 0h80.5C107.277 0 115 7.723 115 17.25v80.5c0 9.527-7.723 17.25-17.25 17.25h-80.5C7.723 115 0 107.277 0 97.75v-80.5C0 7.723 7.723 0 17.25 0Zm49.459 63.79H52.334v41.103H40.879V63.789H26.504V54.58h40.205v9.21Zm11.006 40.968c-2.47-.472-4.695-1.168-6.514-2.111V91.865c1.595 1.335 3.841 2.615 6.312 3.468 2.246.854 4.716 1.28 7.187 1.28 1.572 0 2.763-.134 3.819-.381 1.1-.27 1.976-.63 2.695-1.078.719-.45 1.253-.989 1.595-1.618a4.177 4.177 0 0 0 .516-2.021c0-1.033-.292-1.932-.853-2.695-.517-.764-1.28-1.483-2.246-2.134-.899-.652-2.022-1.28-3.37-1.887l-.535-.241a103.084 103.084 0 0 0-3.732-1.623c-3.819-1.797-6.828-3.594-8.76-6.065-1.954-2.246-2.92-5.166-2.92-8.535 0-2.695.517-4.851 1.572-6.738 1.124-2.022 2.449-3.504 4.268-4.717 1.797-1.235 3.818-2.134 6.29-2.695a33.863 33.863 0 0 1 7.636-.854c2.695 0 4.941.157 6.963.472 2.021.314 3.908.809 5.615 1.46V65.82c-.786-.584-1.707-1.101-2.695-1.55a24.981 24.981 0 0 0-3.145-1.1 24.093 24.093 0 0 0-3.144-.652 20.74 20.74 0 0 0-2.92-.211c-1.37 0-2.538.112-3.594.36-1.078.246-1.977.583-2.695 1.032-.72.45-1.279.966-1.685 1.595a3.765 3.765 0 0 0-.606 2.089c0 .83.224 1.572.673 2.246.45.651 1.079 1.28 1.91 1.887.74.584 1.751 1.168 2.92 1.752.512.222 1.005.444 1.5.667.808.364 1.624.731 2.542 1.107a50.17 50.17 0 0 1 5.391 2.695 17.828 17.828 0 0 1 4.043 3.145c1.213 1.123 2.089 2.47 2.695 4.043.607 1.572.921 3.347.921 5.39 0 2.92-.696 5.166-1.594 7.188-.899 2.022-2.449 3.526-4.268 4.717-1.797 1.1-3.818 1.954-6.29 2.47-2.47.517-4.94.764-7.636.764-2.695 0-5.39-.224-7.861-.696Z" clip-rule="evenodd"/></svg>