<svg xmlns="http://www.w3.org/2000/svg" width="118" height="72" fill="none"><path fill="#A0A0A0" fill-rule="evenodd" d="M107.001.5h-96.05C4.874.5-.047 5.509.002 11.587v36.956C0 54.67 4.92 59.63 11 59.63h45.492L77.284 71.3l-4.728-11.67h34.445c6.079 0 10.999-4.96 10.999-11.087V11.587C118 5.46 113.08.5 107.001.5ZM8.926 9.058c-1.351.098-2.364.584-3.04 1.508-.675.875-.916 1.993-.771 3.258 2.846 18.235 5.5 30.537 7.96 36.907.964 2.334 2.074 3.453 3.376 3.355 2.026-.146 4.439-2.966 7.285-8.46 1.495-3.113 3.811-7.78 6.947-14.005 2.605 9.19 6.175 16.095 10.661 20.715 1.255 1.313 2.557 1.896 3.811 1.799 1.11-.097 1.978-.68 2.557-1.75.482-.925.675-1.994.579-3.21-.29-4.425.145-10.6 1.35-18.527 1.255-8.169 2.799-14.053 4.68-17.554.386-.73.53-1.459.483-2.334-.097-1.118-.58-2.042-1.496-2.772-.916-.729-1.93-1.07-3.04-.972-1.398.097-2.46.778-3.183 2.14-2.991 5.494-5.114 14.393-6.368 26.744-1.833-4.668-3.377-10.163-4.583-16.63-.53-2.87-1.833-4.23-3.956-4.085-1.447.097-2.653 1.07-3.618 2.918L17.995 38.38c-1.737-7.05-3.377-15.658-4.872-25.82-.338-2.53-1.737-3.696-4.197-3.502Zm92.962 3.502c3.425.729 5.982 2.577 7.718 5.64 1.544 2.626 2.316 5.787 2.316 9.58 0 5.008-1.254 9.579-3.763 13.76-2.895 4.864-6.657 7.295-11.337 7.295-.82 0-1.688-.098-2.605-.292-3.425-.73-5.982-2.577-7.719-5.64-1.543-2.675-2.315-5.884-2.315-9.629 0-5.008 1.254-9.58 3.763-13.712 2.942-4.863 6.705-7.294 11.337-7.294.82 0 1.688.097 2.605.291Zm-2.026 26.306c1.784-1.604 2.99-3.987 3.666-7.196.193-1.119.337-2.334.337-3.599 0-1.41-.289-2.917-.868-4.425-.724-1.896-1.688-2.917-2.846-3.16-1.737-.34-3.425.632-5.017 3.014a15.785 15.785 0 0 0-2.557 5.787c-.242 1.118-.338 2.334-.338 3.55 0 1.41.29 2.917.868 4.425.724 1.896 1.689 2.917 2.847 3.16 1.206.244 2.508-.291 3.908-1.556ZM79.359 18.2c-1.737-3.063-4.342-4.911-7.72-5.64a12.57 12.57 0 0 0-2.604-.292c-4.631 0-8.394 2.431-11.337 7.294-2.509 4.133-3.763 8.704-3.763 13.712 0 3.745.772 6.954 2.316 9.628 1.736 3.064 4.293 4.912 7.718 5.64.917.195 1.785.293 2.606.293 4.679 0 8.442-2.431 11.336-7.294 2.509-4.182 3.763-8.753 3.763-13.761 0-3.793-.772-6.954-2.315-9.58Zm-6.08 13.47c-.674 3.209-1.88 5.592-3.665 7.196-1.4 1.265-2.702 1.8-3.908 1.556-1.158-.243-2.123-1.264-2.846-3.16-.58-1.508-.869-3.015-.869-4.425 0-1.216.097-2.432.338-3.55a15.782 15.782 0 0 1 2.557-5.787c1.592-2.382 3.28-3.355 5.017-3.014 1.158.243 2.123 1.264 2.846 3.16.58 1.508.869 3.015.869 4.425 0 1.265-.097 2.48-.338 3.599Z" clip-rule="evenodd"/></svg>