<svg xmlns="http://www.w3.org/2000/svg" width="115" height="116" fill="none"><path fill="#A0A0A0" d="M57.5 115.5C11.125 115.5 0 104.375 0 58S11.125.5 57.5.5 115 11.625 115 58s-11.125 57.5-57.5 57.5ZM41.222 28.957 23.187 69.945c-.82 1.991-1.522 4.567-1.522 6.792 0 10.189 7.143 17.333 17.332 17.333 3.339 0 6.111-.878 8.93-1.77h.002c2.915-.923 5.88-1.861 9.571-1.861 3.734 0 6.628.93 9.487 1.848 2.79.897 5.546 1.783 9.016 1.783 10.188 0 17.332-7.144 17.332-17.333 0-2.225-.703-4.8-1.522-6.792L73.778 28.957C70.733 22.048 64.878 18.3 57.5 18.3c-7.378 0-13.233 3.748-16.278 10.657ZM39.7 76.387 57.5 36.1l17.566 40.285c-5.035-2.459-11.36-3.63-17.566-3.63-6.44 0-12.531 1.171-17.8 3.63Z"/></svg>