<svg xmlns="http://www.w3.org/2000/svg" width="18" height="20" fill="none"><path fill="#000" d="M13.333 11.333H12V6.667H7.333V5.333h5.333a.667.667 0 0 1 .667.667v5.333Z"/><path fill="#000" d="M10 14.666H4.667A.667.667 0 0 1 4 14V8.667A.667.667 0 0 1 4.667 8H10a.667.667 0 0 1 .667.667V14a.666.666 0 0 1-.667.666Zm-4.667-1.333h4v-4h-4v4Z"/><path fill="#000" d="M8.667 0a.667.667 0 0 0-.336.09l-8 4.667A.667.667 0 0 0 0 5.333v9.333a.666.666 0 0 0 .33.576l8 4.667a.667.667 0 0 0 .673 0l7.333-4.278-.672-1.151-6.997 4.081-7.334-4.277V5.717l7.334-4.278L16 5.716v4.95h1.333V5.334a.667.667 0 0 0-.33-.576l-8-4.666A.667.667 0 0 0 8.667 0Z"/></svg>