<svg xmlns="http://www.w3.org/2000/svg" width="30" height="30" fill="none"><path fill="#0B80C5" d="M0 21.429a2.143 2.143 0 0 1 2.143-2.143h4.286a2.143 2.143 0 0 1 2.142 2.143v6.428A2.143 2.143 0 0 1 6.43 30H2.143A2.143 2.143 0 0 1 0 27.857V21.43Zm10.714-8.572a2.143 2.143 0 0 1 2.143-2.143h4.286a2.143 2.143 0 0 1 2.143 2.143v15A2.143 2.143 0 0 1 17.143 30h-4.286a2.143 2.143 0 0 1-2.143-2.143v-15ZM21.43 2.143A2.143 2.143 0 0 1 23.57 0h4.286A2.143 2.143 0 0 1 30 2.143v25.714A2.143 2.143 0 0 1 27.857 30h-4.286a2.143 2.143 0 0 1-2.142-2.143V2.143Z"/></svg>