<svg xmlns="http://www.w3.org/2000/svg" width="99" height="115" fill="none"><path fill="#A0A0A0" fill-rule="evenodd" d="M8.214 102.679 0 0h98.571l-8.214 102.679L49.286 115 8.214 102.679Zm41.072-43.126H22.589L20.536 45.18l28.75-8.985v-1.283h-28.75l-2.054-12.322h30.804V8.214h41.071l-8.214 90.357-32.857 10.268V94.464L24.643 86.25l-2.054-20.536h12.322l2.053 10.268 12.322 4.107V59.554Z" clip-rule="evenodd"/><path fill="#A0A0A0" fill-opacity=".5" fill-rule="evenodd" d="M49.286 8.214h41.071l-8.214 90.357-32.857 10.268V94.464l24.643-8.214 4.107-39.018H53.393l26.696-10.268 2.054-14.375H49.286V8.214Zm0 26.697v1.283l4.107-1.283h-4.107Zm0 24.642V80.09l12.321-4.107 2.054-16.428H49.286Z" clip-rule="evenodd"/></svg>