<svg width="24" height="24" viewBox="0 0 24 24" fill="none" xmlns="http://www.w3.org/2000/svg">
<path fill-rule="evenodd" clip-rule="evenodd" d="M16.47 24V14.706H19.59L20.0568 11.0844H16.4688V8.772C16.4688 7.7232 16.7604 7.008 18.2652 7.008H20.1828V3.768C19.2541 3.66917 18.3207 3.6211 17.3868 3.624C14.622 3.624 12.7296 5.3124 12.7296 8.412V11.0844H9.6V14.706H12.7284V24H1.3248C0.5928 24 0 23.4072 0 22.6752V1.3248C0 0.5928 0.5928 0 1.3248 0H22.6752C23.4072 0 24 0.5928 24 1.3248V22.6752C24 23.4072 23.4072 24 22.6752 24H16.47Z" fill="white"/>
</svg>
