<svg width="68" height="68" viewBox="0 0 68 68" fill="none" xmlns="http://www.w3.org/2000/svg">
<path d="M53.0456 24.181C50.6944 24.181 48.6525 23.4002 46.9199 21.8386C45.1873 20.2765 44.1886 18.3349 43.9236 16.014H24.0081C23.7649 18.139 22.9031 19.9506 21.4227 21.449C19.9428 22.9474 18.1403 23.8181 16.0153 24.0613V43.9223C18.3363 44.1872 20.2778 45.1836 21.8399 46.9115C23.4016 48.6398 24.1824 50.6932 24.1824 53.0718C24.1824 55.661 23.2854 57.8519 21.4914 59.6445C19.697 61.437 17.5082 62.3333 14.9252 62.3333C12.3388 62.3333 10.1494 61.437 8.3568 59.6445C6.56425 57.8519 5.66797 55.6518 5.66797 53.0442C5.66797 50.693 6.44902 48.6511 8.01114 46.9185C9.57277 45.186 11.5143 44.1872 13.8358 43.9223V24.0613C11.5143 23.7964 9.57277 22.8048 8.01114 21.0863C6.44902 19.3684 5.66797 17.3088 5.66797 14.9075C5.66797 12.3292 6.56259 10.1445 8.35184 8.35333C10.1416 6.56219 12.3091 5.66663 14.8543 5.66663C17.2556 5.66663 19.3152 6.44768 21.0331 8.00979C22.7516 9.57143 23.7432 11.513 24.0081 13.8344H43.9236C44.1886 11.513 45.1849 9.57143 46.9128 8.00979C48.6411 6.44768 50.6946 5.66663 53.0732 5.66663C55.6251 5.66663 57.8065 6.57235 59.6175 8.38379C61.4289 10.1948 62.3346 12.3722 62.3346 14.916C62.3346 17.4967 61.4289 19.6862 59.6175 21.4844C57.8065 23.2822 55.6159 24.181 53.0456 24.181ZM14.831 60.2083C16.8152 60.2083 18.5067 59.5163 19.9055 58.1322C21.3042 56.7481 22.0036 55.0941 22.0036 53.1703C22.0036 51.186 21.3042 49.4945 19.9055 48.0958C18.5067 46.6971 16.8152 45.9977 14.831 45.9977C12.9071 45.9977 11.2532 46.6971 9.86909 48.0958C8.48501 49.4945 7.79297 51.186 7.79297 53.1703C7.79297 55.0941 8.48501 56.7481 9.86909 58.1322C11.2532 59.5163 12.9071 60.2083 14.831 60.2083ZM14.831 22.056C16.8152 22.056 18.5067 21.3477 19.9055 19.931C21.3042 18.5139 22.0036 16.8373 22.0036 14.9012C22.0036 12.9429 21.3042 11.2773 19.9055 9.90459C18.5067 8.53231 16.8152 7.84617 14.831 7.84617C12.9071 7.84617 11.2532 8.53231 9.86909 9.90459C8.48501 11.2773 7.79297 12.9429 7.79297 14.9012C7.79297 16.8373 8.48501 18.5139 9.86909 19.931C11.2532 21.3477 12.9071 22.056 14.831 22.056ZM53.0937 62.3333C50.5295 62.3333 48.3429 61.4424 46.5338 59.6608C44.7248 57.8795 43.8202 55.7033 43.8202 53.132C43.8202 50.5943 44.7222 48.4077 46.5261 46.5722C48.3304 44.7366 50.5199 43.8189 53.0944 43.8189C55.6695 43.8189 57.8532 44.734 59.6458 46.5644C61.4384 48.3947 62.3346 50.5752 62.3346 53.1058C62.3346 55.7087 61.4391 57.8972 59.6479 59.6714C57.8568 61.446 55.6721 62.3333 53.0937 62.3333ZM53.1001 60.2083C55.0584 60.2083 56.7239 59.5163 58.0967 58.1322C59.469 56.7481 60.1551 55.0941 60.1551 53.1703C60.1551 51.186 59.469 49.4945 58.0967 48.0958C56.7239 46.6971 55.0584 45.9977 53.1001 45.9977C51.164 45.9977 49.4874 46.6971 48.0702 48.0958C46.6536 49.4945 45.9452 51.186 45.9452 53.1703C45.9452 55.0941 46.6536 56.7481 48.0702 58.1322C49.4874 59.5163 51.164 60.2083 53.1001 60.2083ZM53.1001 22.056C55.0584 22.056 56.7239 21.3477 58.0967 19.931C59.469 18.5139 60.1551 16.8373 60.1551 14.9012C60.1551 12.9429 59.469 11.2773 58.0967 9.90459C56.7239 8.53231 55.0584 7.84617 53.1001 7.84617C51.164 7.84617 49.4874 8.53231 48.0702 9.90459C46.6536 11.2773 45.9452 12.9429 45.9452 14.9012C45.9452 16.8373 46.6536 18.5139 48.0702 19.931C49.4874 21.3477 51.164 22.056 53.1001 22.056Z" fill="#0B80C5"/>
</svg>
