<svg width="68" height="68" viewBox="0 0 68 68" fill="none" xmlns="http://www.w3.org/2000/svg">
<mask id="mask0_246_2375" style="mask-type:alpha" maskUnits="userSpaceOnUse" x="0" y="0" width="68" height="68">
<rect width="68" height="68" fill="#D9D9D9"/>
</mask>
<g mask="url(#mask0_246_2375)">
<path d="M25.5659 60.1538L20.8364 52.1772L11.8356 50.2371L12.7181 40.9523L6.64844 34L12.7181 27.0477L11.8356 17.7629L20.8364 15.8227L25.5659 7.84621L34.0007 11.4098L42.4356 7.84621L47.1651 15.8227L56.1659 17.7629L55.2833 27.0477L61.353 34L55.2833 40.9523L56.1659 50.2371L47.1651 52.1772L42.4356 60.1538L34.0007 56.5902L25.5659 60.1538ZM26.7757 56.525L34.0007 53.5174L41.2583 56.525L45.3341 49.725L53.1257 47.9924L52.4174 39.95L57.6591 34L52.4174 28.0174L53.1257 19.975L45.3341 18.275L41.2257 11.475L34.0007 14.4826L26.7431 11.475L22.6674 18.275L14.8757 19.975L15.5841 28.0174L10.3424 34L15.5841 39.95L14.8757 48.025L22.6674 49.725L26.7757 56.525ZM31.0257 42.097L45.0727 28.05L43.0674 26.0121L31.0257 38.0538L24.9341 31.9947L22.9288 34L31.0257 42.097Z" fill="#0B80C5"/>
</g>
</svg>
