<svg xmlns="http://www.w3.org/2000/svg" width="68" height="68" fill="none"><path fill="#0B80C5" d="M53.532 56.667c-4.57 0-9.345-1.214-14.327-3.64-4.982-2.427-9.66-5.836-14.034-10.227-4.373-4.392-7.773-9.07-10.2-14.033-2.426-4.964-3.639-9.731-3.639-14.3 0-.896.293-1.642.88-2.238.586-.597 1.319-.896 2.198-.896h6.252c.816 0 1.497.245 2.042.736.545.49.93 1.144 1.155 1.962l1.471 6.283c.098.751.06 1.425-.112 2.023a3.142 3.142 0 0 1-.896 1.48L18.017 29.7c1.3 2.26 2.672 4.34 4.114 6.244a54.334 54.334 0 0 0 4.588 5.318 46.435 46.435 0 0 0 5.743 5.005 58.159 58.159 0 0 0 6.691 4.23l6.13-6.287c.472-.52.983-.865 1.532-1.035.548-.171 1.158-.21 1.83-.115l5.323 1.188c.817.152 1.471.542 1.962 1.168.49.626.735 1.342.735 2.15v6.021c0 .88-.298 1.613-.895 2.199-.596.586-1.342.88-2.238.88Zm-36.604-28.9 5.956-5.536c.145-.145.244-.345.3-.6.053-.254.062-.49.026-.708l-1.466-6.538c-.036-.291-.154-.509-.354-.654a1.216 1.216 0 0 0-.735-.218h-6.38c-.219 0-.4.073-.545.218a.738.738 0 0 0-.218.545c-.015 1.947.277 4.045.874 6.295.598 2.251 1.445 4.65 2.542 7.196Zm24.34 23.75c1.936 1.007 4.073 1.757 6.412 2.251 2.34.494 4.354.752 6.043.774.218 0 .4-.073.545-.218a.738.738 0 0 0 .218-.545v-6.326c0-.29-.073-.536-.218-.736-.145-.2-.363-.317-.654-.354l-5.552-1.16a1.18 1.18 0 0 0-.572.027 1.716 1.716 0 0 0-.518.3l-5.704 5.988Z"/></svg>