<svg width="68" height="68" viewBox="0 0 68 68" fill="none" xmlns="http://www.w3.org/2000/svg">
<path d="M33.8733 36.6428C33.147 36.6428 32.5277 36.3857 32.0154 35.8715C31.503 35.3572 31.2468 34.7369 31.2468 34.0107C31.2468 33.2844 31.504 32.6514 32.0182 32.1116C32.5324 31.5723 33.153 31.3027 33.8797 31.3027C34.606 31.3027 35.2388 31.5735 35.778 32.1152C36.3173 32.6563 36.5869 33.2901 36.5869 34.0163C36.5869 34.7431 36.3161 35.3624 35.7745 35.8743C35.2333 36.3867 34.5996 36.6428 33.8733 36.6428ZM33.8896 56.6667C27.8962 56.6667 22.7291 54.6298 18.3884 50.5559C14.0473 46.4821 11.6952 41.4666 11.332 35.5095H13.5116C13.9474 40.831 16.1114 45.3244 20.0034 48.9898C23.896 52.6547 28.5247 54.4872 33.8896 54.4872C39.5969 54.4872 44.4384 52.5001 48.414 48.5258C52.3892 44.5511 54.3767 39.7111 54.3767 34.0057C54.3767 28.3003 52.3892 23.4584 48.414 19.4799C44.4384 15.5019 39.5969 13.5129 33.8896 13.5129C30.9448 13.5129 28.1771 14.115 25.5865 15.3192C22.9959 16.5233 20.6927 18.1716 18.6767 20.264H25.4987V22.4436H14.7972V11.6875H16.9767V18.8686C19.1891 16.5222 21.7641 14.6798 24.7018 13.3415C27.64 12.0027 30.7026 11.3334 33.8896 11.3334C37.0346 11.3334 39.9803 11.9246 42.7268 13.107C45.4732 14.2895 47.8735 15.9078 49.9277 17.962C51.9819 20.0161 53.6002 22.4162 54.7826 25.1622C55.9651 27.9077 56.5563 30.8527 56.5563 33.9972C56.5563 37.1413 55.9651 40.0872 54.7826 42.8351C53.6002 45.5829 51.9819 47.984 49.9277 50.0381C47.8735 52.0923 45.4732 53.7106 42.7268 54.893C39.9803 56.0755 37.0346 56.6667 33.8896 56.6667Z" fill="#0B80C5"/>
</svg>
