<svg width="68" height="68" viewBox="0 0 68 68" fill="none" xmlns="http://www.w3.org/2000/svg">
<mask id="mask0_246_2381" style="mask-type:alpha" maskUnits="userSpaceOnUse" x="0" y="0" width="68" height="68">
<rect width="68" height="68" fill="#D9D9D9"/>
</mask>
<g mask="url(#mask0_246_2381)">
<path d="M34.6688 41.5352C37.2844 41.5352 39.5402 40.6909 41.4362 39.0022C43.3322 37.3131 44.2802 35.2478 44.2802 32.8065C44.2802 30.7325 43.6273 28.9626 42.3216 27.4968C41.0159 26.031 39.3896 25.2981 37.4426 25.2981C35.804 25.2981 34.3899 25.8341 33.2004 26.906C32.0109 27.9775 31.4161 29.2797 31.4161 30.8125C31.4161 31.4916 31.5568 32.1472 31.8383 32.7795C32.1197 33.4114 32.5183 34.009 33.0339 34.5723L35.2192 32.6053C34.8957 32.3654 34.6532 32.1019 34.4917 31.8148C34.3302 31.5282 34.2494 31.2177 34.2494 30.8833C34.2494 30.2184 34.5255 29.6055 35.0775 29.0445C35.6295 28.483 36.4179 28.2023 37.4426 28.2023C38.532 28.2023 39.4746 28.6282 40.2703 29.4801C41.0655 30.332 41.4631 31.4644 41.4631 32.8773C41.4631 34.4503 40.8339 35.8171 39.5754 36.9778C38.3169 38.1386 36.705 38.7189 34.7396 38.7189C32.4838 38.7189 30.5432 37.8217 28.9178 36.0272C27.2924 34.2328 26.4797 31.9824 26.4797 29.2761C26.4797 27.9067 26.7484 26.5871 27.2858 25.3172C27.8237 24.0479 28.601 22.9047 29.6177 21.8875L27.5422 19.8659C26.2852 21.1121 25.3098 22.5396 24.6161 24.1485C23.9224 25.7578 23.5756 27.4434 23.5756 29.2053C23.5756 32.5977 24.6435 35.501 26.7794 37.915C28.9152 40.3285 31.545 41.5352 34.6688 41.5352ZM19.832 59.5V48.8424C17.1404 46.3869 15.0508 43.627 13.5633 40.5627C12.0758 37.4989 11.332 34.3487 11.332 31.1121C11.332 24.8278 13.5387 19.4881 17.9521 15.0932C22.3655 10.6977 27.7144 8.5 33.9987 8.5C39.1025 8.5 43.7149 10.0538 47.836 13.1615C51.9571 16.2692 54.6296 20.2822 55.8536 25.2004L58.7741 36.8333C58.9738 37.5487 58.8449 38.1999 58.3873 38.7869C57.9297 39.3734 57.3194 39.6667 56.5563 39.6667H50.9987V49.2561C50.9987 50.524 50.5529 51.604 49.6614 52.496C48.7693 53.3876 47.6894 53.8333 46.4214 53.8333H39.6654V59.5H36.832V51H46.4214C46.93 51 47.3479 50.8366 47.6752 50.5098C48.002 50.1826 48.1654 49.7647 48.1654 49.2561V36.8333H55.8154L53.1237 25.8542C52.0376 21.5206 49.7055 18.0172 46.1275 15.3439C42.5495 12.6702 38.5065 11.3333 33.9987 11.3333C28.5209 11.3333 23.8459 13.2548 19.9737 17.0977C16.1015 20.9412 14.1654 25.6018 14.1654 31.0795C14.1654 33.9129 14.7438 36.5953 15.9008 39.1269C17.0577 41.659 18.6987 43.9167 20.8237 45.9L22.6654 47.6V59.5H19.832Z" fill="#0B80C5"/>
</g>
</svg>
