<svg xmlns="http://www.w3.org/2000/svg" width="10" height="16" fill="none"><path fill="#fff" fill-rule="evenodd" d="M3.369 1.223A4.173 4.173 0 0 1 6.319 0h2.146a.596.596 0 0 1 .597.596v2.862a.596.596 0 0 1-.597.596H6.32a.12.12 0 0 0-.119.12v1.55h2.265a.596.596 0 0 1 .58.74l-.716 2.861a.596.596 0 0 1-.579.452H6.2v5.127a.596.596 0 0 1-.596.596H2.742a.596.596 0 0 1-.596-.596V9.777H.596A.596.596 0 0 1 0 9.18V6.319a.596.596 0 0 1 .596-.596h1.55v-1.55c0-1.107.44-2.168 1.223-2.95Zm2.95-.03a2.98 2.98 0 0 0-2.98 2.98V6.32a.596.596 0 0 1-.597.596h-1.55v1.67h1.55a.596.596 0 0 1 .596.596v5.127h1.67V9.18a.596.596 0 0 1 .596-.596h1.68l.418-1.67H5.604a.596.596 0 0 1-.596-.596V4.173a1.312 1.312 0 0 1 1.311-1.311h1.55v-1.67H6.32Z" clip-rule="evenodd"/></svg>