<svg xmlns="http://www.w3.org/2000/svg" width="15" height="16" fill="none"><path stroke="#fff" stroke-linecap="round" stroke-linejoin="round" d="M3.766 2.325a1.377 1.377 0 0 1-1.347 1.388 1.408 1.408 0 0 1-1.357-1.388A1.387 1.387 0 0 1 2.42 1a1.377 1.377 0 0 1 1.347 1.325ZM1.208 6.177c0-.797.507-.672 1.211-.672.704 0 1.201-.125 1.201.672v7.767c0 .807-.507.642-1.2.642-.694 0-1.212.165-1.212-.642V6.177Zm4.505.001c0-.445.165-.612.423-.663.26-.052 1.15 0 1.46 0 .311 0 .436.507.425.89a2.6 2.6 0 0 1 2.32-1.035 3.107 3.107 0 0 1 3.293 3.24v5.302c0 .808-.497.643-1.202.643-.704 0-1.201.165-1.201-.643V9.771a1.49 1.49 0 0 0-1.574-1.615 1.501 1.501 0 0 0-1.533 1.646v4.142c0 .807-.508.642-1.212.642s-1.2.165-1.2-.642V6.177v.001Z"/></svg>