<svg width="68" height="68" viewBox="0 0 68 68" fill="none" xmlns="http://www.w3.org/2000/svg">
<mask id="mask0_246_2232" style="mask-type:alpha" maskUnits="userSpaceOnUse" x="0" y="0" width="68" height="68">
<rect width="68" height="68" fill="#D9D9D9"/>
</mask>
<g mask="url(#mask0_246_2232)">
<path d="M24.4525 56.6667C20.8093 56.6667 17.7118 55.3908 15.1599 52.8389C12.608 50.287 11.332 47.1894 11.332 43.5462C11.332 42.0059 11.5936 40.5129 12.1169 39.0675C12.6396 37.6215 13.3952 36.3047 14.3835 35.1171L24.3328 23.1682L18.4423 11.3334H49.5551L43.6646 23.1682L53.6139 35.1171C54.6022 36.3047 55.3578 37.6215 55.8805 39.0675C56.4038 40.5129 56.6654 42.0059 56.6654 43.5462C56.6654 47.1894 55.3868 50.287 52.8297 52.8389C50.2722 55.3908 47.1772 56.6667 43.5449 56.6667H24.4525ZM33.9987 43.8622C32.7308 43.8622 31.651 43.4164 30.7595 42.5248C29.8675 41.6328 29.4214 40.5531 29.4214 39.2856C29.4214 38.0177 29.8675 36.9377 30.7595 36.0457C31.651 35.1542 32.7308 34.7084 33.9987 34.7084C35.2666 34.7084 36.3463 35.1542 37.2379 36.0457C38.1299 36.9377 38.5759 38.0177 38.5759 39.2856C38.5759 40.5531 38.1299 41.6328 37.2379 42.5248C36.3463 43.4164 35.2666 43.8622 33.9987 43.8622ZM26.9423 21.9584H41.1089L44.9779 14.1667H23.0195L26.9423 21.9584ZM24.4525 53.8334H43.5449C46.4184 53.8334 48.8513 52.828 50.8436 50.8173C52.8359 48.807 53.832 46.3834 53.832 43.5462C53.832 42.3402 53.6313 41.1696 53.2299 40.0343C52.8286 38.8991 52.2373 37.8704 51.4563 36.9481L41.3165 24.7917H26.7517L16.5957 36.9311C15.8146 37.8538 15.2142 38.8857 14.7944 40.0265C14.375 41.167 14.1654 42.3402 14.1654 43.5462C14.1654 46.3834 15.1707 48.807 17.1814 50.8173C19.1917 52.828 21.6154 53.8334 24.4525 53.8334Z" fill="#0B80C5"/>
</g>
</svg>
