<svg width="68" height="68" viewBox="0 0 68 68" fill="none" xmlns="http://www.w3.org/2000/svg">
<path d="M19.0716 46.0962H35.4178V43.9167H19.0716V46.0962ZM46.7511 46.0962H48.9307V21.9038H46.7511V46.0962ZM19.0716 35.0895H35.4178V32.9106H19.0716V35.0895ZM19.0716 24.0834H35.4178V21.9038H19.0716V24.0834ZM12.1845 56.6667C11.0955 56.6667 10.1695 56.2851 9.40639 55.522C8.64327 54.7585 8.26172 53.8324 8.26172 52.744V15.2561C8.26172 14.1677 8.64327 13.2416 9.40639 12.478C10.1695 11.7149 11.0955 11.3334 12.1845 11.3334H55.8178C56.9067 11.3334 57.8328 11.7149 58.5959 12.478C59.359 13.2416 59.7406 14.1677 59.7406 15.2561V52.744C59.7406 53.8324 59.359 54.7585 58.5959 55.522C57.8328 56.2851 56.9067 56.6667 55.8178 56.6667H12.1845ZM12.1845 54.4872H55.8178C56.2537 54.4872 56.6532 54.3056 57.0163 53.9425C57.3799 53.5793 57.5617 53.1798 57.5617 52.744V15.2561C57.5617 14.8203 57.3799 14.4208 57.0163 14.0576C56.6532 13.6945 56.2537 13.5129 55.8178 13.5129H12.1845C11.7486 13.5129 11.3491 13.6945 10.986 14.0576C10.6224 14.4208 10.4406 14.8203 10.4406 15.2561V52.744C10.4406 53.1798 10.6224 53.5793 10.986 53.9425C11.3491 54.3056 11.7486 54.4872 12.1845 54.4872Z" fill="#0B80C5"/>
</svg>
