<svg xmlns="http://www.w3.org/2000/svg" width="68" height="68" fill="none"><mask id="a" width="68" height="68" x="0" y="0" maskUnits="userSpaceOnUse" style="mask-type:alpha"><path fill="#D9D9D9" d="M0 0h68v68H0z"/></mask><g mask="url(#a)"><path fill="#0B80C5" d="M30.48 43.045c.88.879 2.007 1.28 3.384 1.201 1.377-.078 2.38-.573 3.013-1.485l14.886-20.748-20.858 14.776c-.948.633-1.476 1.614-1.583 2.943-.107 1.33.279 2.434 1.158 3.313ZM34 14.167c2.604 0 4.975.316 7.113.95 2.138.634 4.268 1.604 6.39 2.907l-2.605 1.765a23.164 23.164 0 0 0-5.18-2.078C37.933 17.237 36.027 17 34 17c-6.28 0-11.628 2.208-16.044 6.623-4.415 4.415-6.623 9.763-6.623 16.044 0 1.983.272 3.943.815 5.879A23.223 23.223 0 0 0 14.45 51h39.1a20.675 20.675 0 0 0 2.373-5.596 24.17 24.17 0 0 0 .744-6.02c0-1.7-.22-3.49-.657-5.368a18.75 18.75 0 0 0-2.079-5.247l1.766-2.605c1.38 2.365 2.356 4.59 2.928 6.676.572 2.085.864 4.255.875 6.51.01 2.438-.26 4.712-.812 6.823-.552 2.11-1.411 4.239-2.577 6.385-.229.378-.574.685-1.035.921a3.3 3.3 0 0 1-1.526.354h-39.1c-.52 0-1-.127-1.444-.38-.443-.255-.815-.626-1.117-1.113-.937-1.653-1.736-3.517-2.397-5.593-.661-2.076-.992-4.436-.992-7.08 0-3.484.66-6.772 1.982-9.863 1.321-3.092 3.125-5.8 5.41-8.125 2.286-2.323 4.99-4.157 8.11-5.5 3.12-1.341 6.453-2.012 9.998-2.012Z"/></g></svg>