<svg xmlns="http://www.w3.org/2000/svg" width="20" height="20" fill="none"><path fill="#78A75A" d="m8.923 12.711 4.686-4.664-.774-.774-3.912 3.89-1.771-1.75-.774.775 2.545 2.523Zm1.08 4.872c-1.04 0-2.02-.197-2.942-.592a7.644 7.644 0 0 1-2.42-1.629 7.644 7.644 0 0 1-1.63-2.42 7.388 7.388 0 0 1-.593-2.94c0-1.054.197-2.038.592-2.953A7.643 7.643 0 0 1 7.06 3.01a7.387 7.387 0 0 1 2.94-.592c1.054 0 2.038.197 2.953.592a7.676 7.676 0 0 1 4.04 4.038c.395.915.593 1.898.593 2.952 0 1.04-.198 2.02-.592 2.941a7.646 7.646 0 0 1-4.039 4.051 7.364 7.364 0 0 1-2.951.592Z"/></svg>