<svg width="68" height="68" viewBox="0 0 68 68" fill="none" xmlns="http://www.w3.org/2000/svg">
<mask id="mask0_246_2369" style="mask-type:alpha" maskUnits="userSpaceOnUse" x="0" y="0" width="68" height="68">
<rect width="68" height="68" fill="#D9D9D9"/>
</mask>
<g mask="url(#mask0_246_2369)">
<path d="M25.5 56.6666V53.8333H31.1667V48.1666H13.0772C11.773 48.1666 10.684 47.7298 9.81042 46.8562C8.93681 45.9826 8.5 44.8937 8.5 43.5894V15.9106C8.5 14.6063 8.93681 13.5173 9.81042 12.6437C10.684 11.7701 11.773 11.3333 13.0772 11.3333H54.9227C56.227 11.3333 57.316 11.7701 58.1896 12.6437C59.0632 13.5173 59.5 14.6063 59.5 15.9106V43.5894C59.5 44.8937 59.0632 45.9826 58.1896 46.8562C57.316 47.7298 56.227 48.1666 54.9227 48.1666H36.8333V53.8333H42.5V56.6666H25.5ZM13.0772 45.3333H54.9227C55.3591 45.3333 55.7588 45.1517 56.122 44.7886C56.4851 44.4255 56.6667 44.0257 56.6667 43.5894V15.9106C56.6667 15.4742 56.4851 15.0745 56.122 14.7114C55.7588 14.3482 55.3591 14.1666 54.9227 14.1666H13.0772C12.6409 14.1666 12.2412 14.3482 11.878 14.7114C11.5149 15.0745 11.3333 15.4742 11.3333 15.9106V43.5894C11.3333 44.0257 11.5149 44.4255 11.878 44.7886C12.2412 45.1517 12.6409 45.3333 13.0772 45.3333Z" fill="#0B80C5"/>
</g>
</svg>
