<svg width="18" height="18" viewBox="0 0 18 18" fill="none" xmlns="http://www.w3.org/2000/svg">
<path d="M9.29913 12.5436C10.1596 12.5436 10.9848 12.2018 11.5933 11.5933C12.2018 10.9848 12.5436 10.1596 12.5436 9.29913C12.5436 8.43865 12.2018 7.61341 11.5933 7.00496C10.9848 6.39651 10.1596 6.05469 9.29913 6.05469C8.43865 6.05469 7.61341 6.39651 7.00496 7.00496C6.39651 7.61341 6.05469 8.43865 6.05469 9.29913C6.05469 10.1596 6.39651 10.9848 7.00496 11.5933C7.61341 12.2018 8.43865 12.5436 9.29913 12.5436Z" stroke="white" stroke-width="1.2" stroke-linecap="round" stroke-linejoin="round"/>
<path d="M2 12.5444V6.05556C2 4.97996 2.42728 3.94841 3.18784 3.18784C3.94841 2.42728 4.97996 2 6.05556 2H12.5444C13.62 2 14.6516 2.42728 15.4122 3.18784C16.1727 3.94841 16.6 4.97996 16.6 6.05556V12.5444C16.6 13.62 16.1727 14.6516 15.4122 15.4122C14.6516 16.1727 13.62 16.6 12.5444 16.6H6.05556C4.97996 16.6 3.94841 16.1727 3.18784 15.4122C2.42728 14.6516 2 13.62 2 12.5444Z" stroke="white" stroke-width="1.2"/>
<path d="M13.7578 4.84889L13.7678 4.83789" stroke="white" stroke-width="1.2" stroke-linecap="round" stroke-linejoin="round"/>
</svg>
