<svg xmlns="http://www.w3.org/2000/svg" width="68" height="68" fill="none"><path fill="#584747" d="m59.139 60.699-7.574-7.574a9.262 9.262 0 0 1-2.819 1.446c-.996.307-2.025.46-3.087.46-2.579 0-4.786-.917-6.62-2.754-1.835-1.836-2.752-4.046-2.752-6.629 0-2.582.919-4.787 2.755-6.616 1.837-1.829 4.047-2.743 6.629-2.743s4.787.917 6.616 2.75c1.83 1.835 2.744 4.042 2.744 6.622 0 1.046-.136 2.091-.406 3.137a6.176 6.176 0 0 1-1.556 2.769l7.628 7.573L59.14 60.7Zm-13.505-7.847c2.007 0 3.712-.692 5.114-2.078 1.402-1.386 2.103-3.082 2.103-5.09 0-2.006-.693-3.71-2.078-5.113-1.386-1.402-3.083-2.103-5.09-2.103-2.007 0-3.711.693-5.113 2.078-1.402 1.386-2.103 3.083-2.103 5.09 0 2.007.693 3.711 2.078 5.113 1.386 1.402 3.082 2.103 5.09 2.103Zm11.031-21.576h-2.18v-16.02c0-.436-.18-.835-.544-1.198-.363-.364-.763-.545-1.198-.545H46.64v5.34H21.358v-5.34h-6.103c-.436 0-.836.181-1.199.545-.363.363-.544.762-.544 1.198v37.488c0 .436.181.835.544 1.198.363.364.763.545 1.199.545H30.73v2.18H15.255c-1.11 0-2.041-.377-2.794-1.13-.753-.752-1.129-1.683-1.129-2.793V15.256c0-1.11.376-2.04 1.13-2.794.752-.752 1.683-1.129 2.793-1.129h14.308a4.478 4.478 0 0 1 1.463-2.792C31.853 7.787 32.844 7.41 34 7.41c1.173 0 2.168.377 2.985 1.131a4.505 4.505 0 0 1 1.45 2.792h14.309c1.11 0 2.04.377 2.793 1.13.753.752 1.13 1.683 1.13 2.793v16.02Zm-22.657-17.11c.651 0 1.194-.22 1.628-.66.434-.44.651-.986.651-1.637s-.22-1.194-.66-1.628c-.441-.434-.987-.652-1.638-.652-.65 0-1.194.22-1.628.661-.434.44-.65.987-.65 1.638 0 .651.22 1.194.66 1.628.44.434.986.65 1.637.65Z"/></svg>