<svg width="18" height="18" viewBox="0 0 18 18" fill="none" xmlns="http://www.w3.org/2000/svg">
<path d="M5.70319 3.32544C5.70603 3.68718 5.56638 4.0355 5.31443 4.29508C5.06248 4.55466 4.71849 4.70465 4.35683 4.71261C3.99592 4.6995 3.65386 4.54822 3.40133 4.29005C3.1488 4.03188 3.00513 3.68655 3 3.32544C3.0156 2.97353 3.16449 2.64073 3.41647 2.39458C3.66845 2.14843 4.00465 2.00736 4.35683 2C4.70797 2.0075 5.04297 2.14892 5.29326 2.39532C5.54354 2.64172 5.6902 2.97446 5.70319 3.32544ZM3.14541 7.17728C3.14541 6.38014 3.65278 6.50462 4.35683 6.50462C5.06087 6.50462 5.55778 6.38014 5.55778 7.17728V14.9437C5.55778 15.7513 5.05041 15.5861 4.35683 15.5861C3.66324 15.5861 3.14541 15.7513 3.14541 14.9437V7.17728ZM7.65004 7.17833C7.65004 6.73268 7.81532 6.56635 8.07372 6.51509C8.33316 6.46278 9.22341 6.51509 9.53411 6.51509C9.84481 6.51509 9.9693 7.02246 9.95884 7.40534C10.2246 7.04875 10.5773 6.76629 10.9834 6.58497C11.3894 6.40364 11.8352 6.32952 12.2781 6.36967C12.713 6.34312 13.1487 6.40834 13.5568 6.56111C13.9648 6.71387 14.3362 6.95077 14.6468 7.2564C14.9573 7.56204 15.2002 7.92958 15.3594 8.33516C15.5187 8.74074 15.5909 9.17528 15.5713 9.61058V14.9124C15.5713 15.72 15.0744 15.5547 14.3693 15.5547C13.6653 15.5547 13.1684 15.72 13.1684 14.9124V10.7707C13.1866 10.5576 13.1588 10.3431 13.0867 10.1416C13.0147 9.94023 12.9002 9.75668 12.7509 9.60346C12.6016 9.45023 12.4212 9.33092 12.2217 9.25363C12.0223 9.17634 11.8085 9.14287 11.595 9.15551C11.3823 9.14991 11.1708 9.18958 10.9746 9.27191C10.7784 9.35424 10.6019 9.47733 10.4569 9.63304C10.3119 9.78874 10.2016 9.97349 10.1334 10.175C10.0652 10.3766 10.0407 10.5903 10.0614 10.8021V14.9437C10.0614 15.7513 9.55399 15.5861 8.84994 15.5861C8.1459 15.5861 7.64899 15.7513 7.64899 14.9437V7.17728L7.65004 7.17833Z" stroke="white" stroke-linecap="round" stroke-linejoin="round"/>
</svg>
