<svg width="68" height="68" viewBox="0 0 68 68" fill="none" xmlns="http://www.w3.org/2000/svg">
<path d="M7.73828 56.6666L34.0012 11.3333L60.264 56.6666H7.73828ZM11.5087 54.4871H56.4936L34.0012 15.6924L11.5087 54.4871ZM34.1343 50.014C34.5395 50.014 34.8748 49.8768 35.1402 49.6024C35.4051 49.3285 35.5375 48.989 35.5375 48.5839C35.5375 48.1787 35.4006 47.8434 35.1267 47.578C34.8523 47.3131 34.5126 47.1806 34.1074 47.1806C33.7022 47.1806 33.3672 47.3176 33.1023 47.5915C32.8369 47.8658 32.7042 48.2056 32.7042 48.6108C32.7042 49.0159 32.8414 49.351 33.1157 49.6159C33.3896 49.8813 33.7292 50.014 34.1343 50.014ZM33.0315 44.0038H35.211V29.0091H33.0315V44.0038Z" fill="#0B80C5"/>
</svg>
