<svg width="18" height="18" viewBox="0 0 18 18" fill="none" xmlns="http://www.w3.org/2000/svg">
<path fill-rule="evenodd" clip-rule="evenodd" d="M7.36867 2.22251C8.15117 1.43988 9.21251 1.00013 10.3192 1H12.4654C12.6235 1 12.7751 1.06281 12.8869 1.17461C12.9987 1.28641 13.0615 1.43804 13.0615 1.59615V4.45769C13.0615 4.6158 12.9987 4.76744 12.8869 4.87924C12.7751 4.99104 12.6235 5.05385 12.4654 5.05385H10.3192C10.3036 5.05385 10.2881 5.05693 10.2736 5.06292C10.2591 5.06891 10.246 5.0777 10.2349 5.08877C10.2239 5.09984 10.2151 5.11298 10.2091 5.12745C10.2031 5.14192 10.2 5.15742 10.2 5.17308V6.72308H12.4654C12.556 6.72303 12.6455 6.74364 12.7269 6.78335C12.8084 6.82306 12.8797 6.88083 12.9355 6.95225C12.9913 7.02368 13.0301 7.10688 13.0489 7.19554C13.0677 7.2842 13.066 7.37598 13.0441 7.4639L12.3287 10.3254C12.2964 10.4545 12.2219 10.569 12.1171 10.6508C12.0122 10.7326 11.883 10.777 11.75 10.7769H10.2V15.9038C10.2 16.062 10.1372 16.2136 10.0254 16.3254C9.91359 16.4372 9.76196 16.5 9.60385 16.5H6.74231C6.5842 16.5 6.43256 16.4372 6.32076 16.3254C6.20896 16.2136 6.14615 16.062 6.14615 15.9038V10.7769H4.59615C4.43804 10.7769 4.28641 10.7141 4.17461 10.6023C4.06281 10.4905 4 10.3389 4 10.1808V7.31923C4 7.24094 4.01542 7.16342 4.04538 7.09109C4.07534 7.01876 4.11925 6.95304 4.17461 6.89769C4.22997 6.84233 4.29569 6.79842 4.36802 6.76846C4.44034 6.7385 4.51787 6.72308 4.59615 6.72308H6.14615V5.17308C6.14628 4.06636 6.58603 3.00502 7.36867 2.22251ZM10.3192 2.19231C9.52868 2.19231 8.77051 2.50635 8.21151 3.06535C7.65251 3.62436 7.33846 4.38253 7.33846 5.17308V7.31923C7.33846 7.47734 7.27565 7.62898 7.16385 7.74078C7.05205 7.85258 6.90042 7.91538 6.74231 7.91538H5.19231V9.58462H6.74231C6.90042 9.58462 7.05205 9.64742 7.16385 9.75922C7.27565 9.87103 7.33846 10.0227 7.33846 10.1808V15.3077H9.00769V10.1808C9.00769 10.0227 9.0705 9.87103 9.1823 9.75922C9.2941 9.64742 9.44574 9.58462 9.60385 9.58462H11.2842L11.7015 7.91538H9.60385C9.44574 7.91538 9.2941 7.85258 9.1823 7.74078C9.0705 7.62898 9.00769 7.47734 9.00769 7.31923V5.17308C9.00769 4.82524 9.14587 4.49164 9.39183 4.24568C9.63779 3.99972 9.97139 3.86154 10.3192 3.86154H11.8692V2.19231H10.3192Z" fill="white"/>
</svg>
