<svg xmlns="http://www.w3.org/2000/svg" width="68" height="68" fill="none"><path fill="#404A7C" d="M32.394 56.956V34.904l-19.26-11.132v21.561c0 .146.035.282.107.409a.937.937 0 0 0 .328.327l18.825 10.887Zm3.215 0 18.825-10.887c.145-.091.254-.2.327-.327a.813.813 0 0 0 .108-.409V23.73L35.61 34.893v22.063ZM34 32.19l19.006-11.06-18.57-10.745a.964.964 0 0 0-.436-.11.964.964 0 0 0-.435.11L14.953 21.13 34 32.19Zm-22.04 16.662a3.98 3.98 0 0 1-1.513-1.519 4.093 4.093 0 0 1-.53-2.028V22.694c0-.72.177-1.396.53-2.028a3.98 3.98 0 0 1 1.513-1.519L31.959 7.601a4.23 4.23 0 0 1 2.055-.54c.711 0 1.389.18 2.032.54L56.04 19.147a3.98 3.98 0 0 1 1.513 1.519c.354.632.53 1.309.53 2.028v22.612c0 .72-.176 1.396-.53 2.028a3.98 3.98 0 0 1-1.513 1.519L36.045 60.399a4.23 4.23 0 0 1-2.055.54c-.712 0-1.39-.18-2.032-.54L11.962 48.853Z"/></svg>