<svg xmlns="http://www.w3.org/2000/svg" width="60" height="52" fill="none"><path fill="#0B80C5" d="M43.608 26H15.786a2.922 2.922 0 0 1-2.919-2.92V2.92c0-1.61 1.31-2.919 2.919-2.919h27.822c1.61 0 2.919 1.31 2.919 2.919V23.08c0 1.61-1.31 2.92-2.919 2.92ZM15.786 1.856c-.585 0-1.062.476-1.062 1.062V23.08c0 .586.477 1.062 1.062 1.062h27.822c.586 0 1.062-.476 1.062-1.062V2.92c0-.586-.477-1.062-1.062-1.062H15.786Z"/><path fill="#0B80C5" d="M45.598 9.285H13.796a.929.929 0 0 1 0-1.857h31.802a.929.929 0 0 1 0 1.857ZM24.14 5.571h-6.5a.929.929 0 0 1 0-1.857h6.5a.929.929 0 0 1 0 1.857ZM37.146 5.571h-.928a.929.929 0 0 1 0-1.857h.928a.929.929 0 0 1 0 1.857ZM41.79 5.571h-.928a.929.929 0 0 1 0-1.857h.929a.929.929 0 0 1 0 1.857ZM13.928 52h-13A.929.929 0 0 1 0 51.071v-9.285c0-.513.416-.928.929-.928h13c.512 0 .928.415.928.928v9.285a.929.929 0 0 1-.929.929Zm-12.07-1.857H13v-7.428H1.857v7.428ZM36.221 52h-13a.929.929 0 0 1-.928-.929v-9.285c0-.513.416-.928.928-.928h13c.513 0 .929.415.929.928v9.285a.929.929 0 0 1-.929.929Zm-12.07-1.857h11.142v-7.428H24.15v7.428ZM58.487 52h-13a.929.929 0 0 1-.928-.929v-9.285c0-.513.415-.928.928-.928h13c.512 0 .928.415.928.928v9.285a.929.929 0 0 1-.928.929Zm-12.071-1.857h11.142v-7.428H46.416v7.428Z"/><path fill="#0B80C5" d="M52.927 42.713a.928.928 0 0 1-.928-.929v-7.428H8.357v7.428a.929.929 0 0 1-1.857 0v-8.356c0-.513.416-.929.929-.929h45.498c.513 0 .929.416.929.928v8.357a.929.929 0 0 1-.929.929Z"/><path fill="#0B80C5" d="M29.721 42.713a.929.929 0 0 1-.928-.929V25.071a.929.929 0 1 1 1.857 0v16.713a.929.929 0 0 1-.928.929Z"/></svg>