<svg xmlns="http://www.w3.org/2000/svg" width="24" height="24" fill="none"><path fill="#FFCA3A" fill-rule="evenodd" d="M2.033 17.592a1.068 1.068 0 0 1 1.068 1.068v2.848c0 .197.16.356.356.356h17.09a.356.356 0 0 0 .356-.356V18.66a1.068 1.068 0 0 1 2.136 0v2.848A2.492 2.492 0 0 1 20.547 24H3.457a2.492 2.492 0 0 1-2.492-2.492V18.66a1.068 1.068 0 0 1 1.068-1.068Z" clip-rule="evenodd"/><path fill="#FFCA3A" d="M10.203 0a1.41 1.41 0 0 0-1.407 1.29 52.692 52.692 0 0 0-.117 7.505c-.351.02-.703.042-1.054.067l-2.122.156a1.082 1.082 0 0 0-.833 1.662 22.216 22.216 0 0 0 5.742 6.064l.85.61a1.267 1.267 0 0 0 1.476 0l.85-.61a22.215 22.215 0 0 0 5.742-6.064 1.082 1.082 0 0 0-.833-1.662l-2.122-.156a59.883 59.883 0 0 0-1.054-.067c.14-2.5.102-5.009-.115-7.505A1.41 1.41 0 0 0 13.797 0h-3.594Z"/></svg>