<svg width="68" height="68" viewBox="0 0 68 68" fill="none" xmlns="http://www.w3.org/2000/svg">
<mask id="mask0_246_2268" style="mask-type:alpha" maskUnits="userSpaceOnUse" x="0" y="0" width="68" height="68">
<rect width="68" height="68" fill="#D9D9D9"/>
</mask>
<g mask="url(#mask0_246_2268)">
<path d="M18.7413 59.5C17.4734 59.5 16.3934 59.0542 15.5014 58.1627C14.6098 57.2706 14.1641 56.1907 14.1641 54.9227V30.0772C14.1641 28.8093 14.6098 27.7294 15.5014 26.8373C16.3934 25.9458 17.4734 25.5 18.7413 25.5H22.6641V19.8333C22.6641 16.6765 23.7639 13.9986 25.9635 11.7994C28.1626 9.59981 30.8406 8.5 33.9974 8.5C37.1542 8.5 39.8322 9.59981 42.0313 11.7994C44.2309 13.9986 45.3307 16.6765 45.3307 19.8333V25.5H49.2535C50.5214 25.5 51.6014 25.9458 52.4934 26.8373C53.385 27.7294 53.8307 28.8093 53.8307 30.0772V54.9227C53.8307 56.1907 53.385 57.2706 52.4934 58.1627C51.6014 59.0542 50.5214 59.5 49.2535 59.5H18.7413ZM18.7413 56.6667H49.2535C49.7621 56.6667 50.18 56.5033 50.5072 56.1765C50.834 55.8493 50.9974 55.4313 50.9974 54.9227V30.0772C50.9974 29.5687 50.834 29.1507 50.5072 28.8235C50.18 28.4967 49.7621 28.3333 49.2535 28.3333H18.7413C18.2327 28.3333 17.8148 28.4967 17.4876 28.8235C17.1608 29.1507 16.9974 29.5687 16.9974 30.0772V54.9227C16.9974 55.4313 17.1608 55.8493 17.4876 56.1765C17.8148 56.5033 18.2327 56.6667 18.7413 56.6667ZM33.9974 46.75C35.1926 46.75 36.1996 46.3403 37.0184 45.521C37.8377 44.7022 38.2474 43.6952 38.2474 42.5C38.2474 41.3048 37.8377 40.2978 37.0184 39.479C36.1996 38.6597 35.1926 38.25 33.9974 38.25C32.8022 38.25 31.7952 38.6597 30.9764 39.479C30.1571 40.2978 29.7474 41.3048 29.7474 42.5C29.7474 43.6952 30.1571 44.7022 30.9764 45.521C31.7952 46.3403 32.8022 46.75 33.9974 46.75ZM25.4974 25.5H42.4974V19.8333C42.4974 17.4722 41.671 15.4653 40.0182 13.8125C38.3655 12.1597 36.3585 11.3333 33.9974 11.3333C31.6363 11.3333 29.6293 12.1597 27.9766 13.8125C26.3238 15.4653 25.4974 17.4722 25.4974 19.8333V25.5Z" fill="#0B80C5"/>
</g>
</svg>
