<svg width="68" height="68" viewBox="0 0 68 68" fill="none" xmlns="http://www.w3.org/2000/svg">
<mask id="mask0_253_2532" style="mask-type:alpha" maskUnits="userSpaceOnUse" x="0" y="0" width="68" height="68">
<rect width="68" height="68" fill="#D9D9D9"/>
</mask>
<g mask="url(#mask0_253_2532)">
<path d="M15.5483 46.7826C13.0672 44.2968 11.1628 41.4732 9.83488 38.3116C8.50746 35.1496 7.84375 31.8243 7.84375 28.3355C7.84375 24.8467 8.50746 21.5211 9.83488 18.3586C11.1628 15.1957 13.0672 12.3708 15.5483 9.88409L17.4225 11.7583C15.2031 13.9778 13.4913 16.516 12.2871 19.3729C11.083 22.2299 10.4809 25.2167 10.4809 28.3333C10.4809 31.45 11.083 34.4368 12.2871 37.2938C13.4913 40.1507 15.2031 42.6889 17.4225 44.9083L15.5483 46.7826ZM22.065 40.2659C20.483 38.675 19.2755 36.8541 18.4425 34.8033C17.61 32.7519 17.1938 30.596 17.1938 28.3355C17.1938 26.0745 17.61 23.9181 18.4425 21.8663C19.2755 19.814 20.483 17.9922 22.065 16.4008L23.9392 18.275C22.5698 19.6445 21.5427 21.191 20.858 22.9146C20.1732 24.6382 19.8309 26.4445 19.8309 28.3333C19.8309 30.2222 20.1732 32.0285 20.858 33.7521C21.5427 35.4757 22.5698 37.0222 23.9392 38.3917L22.065 40.2659ZM32.5809 56.9939V33.5424C31.3786 33.2662 30.4061 32.6469 29.6633 31.6845C28.9204 30.7216 28.549 29.6046 28.549 28.3333C28.549 26.8076 29.0756 25.518 30.1286 24.4644C31.1822 23.4114 32.4718 22.8848 33.9975 22.8848C35.5233 22.8848 36.8129 23.4114 37.8665 24.4644C38.9195 25.518 39.446 26.8076 39.446 28.3333C39.446 29.6046 39.0746 30.7216 38.3318 31.6845C37.589 32.6469 36.6165 33.2662 35.4142 33.5424V56.9939H32.5809ZM45.9301 40.2659L44.0559 38.3917C45.4253 37.0222 46.4524 35.4757 47.1371 33.7521C47.8218 32.0285 48.1642 30.2222 48.1642 28.3333C48.1642 26.4445 47.8218 24.6382 47.1371 22.9146C46.4524 21.191 45.4253 19.6445 44.0559 18.275L45.9301 16.4008C47.5121 17.9917 48.7195 19.8126 49.5525 21.8634C50.3851 23.9148 50.8013 26.0707 50.8013 28.3312C50.8013 30.5922 50.3851 32.7486 49.5525 34.8004C48.7195 36.8527 47.5121 38.6745 45.9301 40.2659ZM52.4468 46.7826L50.5725 44.9083C52.792 42.6889 54.5038 40.1507 55.708 37.2938C56.9121 34.4368 57.5142 31.45 57.5142 28.3333C57.5142 25.2167 56.9121 22.2299 55.708 19.3729C54.5038 16.516 52.792 13.9778 50.5725 11.7583L52.4468 9.88409C54.9278 12.3699 56.8323 15.1935 58.1602 18.3551C59.4876 21.5171 60.1513 24.8424 60.1513 28.3312C60.1513 31.82 59.4876 35.1456 58.1602 38.3081C56.8323 41.471 54.9278 44.2959 52.4468 46.7826Z" fill="#0B80C5"/>
</g>
</svg>
