<svg width="68" height="68" viewBox="0 0 68 68" fill="none" xmlns="http://www.w3.org/2000/svg">
<mask id="mask0_246_2250" style="mask-type:alpha" maskUnits="userSpaceOnUse" x="0" y="0" width="68" height="68">
<rect width="68" height="68" fill="#D9D9D9"/>
</mask>
<g mask="url(#mask0_246_2250)">
<path d="M27.1987 42.1296L29.204 40.0917L23.1123 34L29.204 27.9084L27.1987 25.8705L19.0692 34L27.1987 42.1296ZM40.7987 42.1296L48.9282 34L40.7987 25.8705L38.7934 27.9084L44.8851 34L38.7934 40.0917L40.7987 42.1296ZM15.9093 56.6667C14.6414 56.6667 13.5614 56.2209 12.6694 55.3294C11.7778 54.4373 11.332 53.3574 11.332 52.0894V15.9106C11.332 14.6427 11.7778 13.5627 12.6694 12.6707C13.5614 11.7791 14.6414 11.3334 15.9093 11.3334H29.2259C28.9676 9.88741 29.3135 8.58148 30.2637 7.41556C31.2133 6.24965 32.4583 5.66669 33.9987 5.66669C35.575 5.66669 36.8382 6.24965 37.7883 7.41556C38.7384 8.58148 39.0661 9.88741 38.7715 11.3334H52.0881C53.356 11.3334 54.436 11.7791 55.328 12.6707C56.2196 13.5627 56.6654 14.6427 56.6654 15.9106V52.0894C56.6654 53.3574 56.2196 54.4373 55.328 55.3294C54.436 56.2209 53.356 56.6667 52.0881 56.6667H15.9093ZM15.9093 53.8334H52.0881C52.5244 53.8334 52.9242 53.6518 53.2873 53.2886C53.6505 52.9255 53.832 52.5258 53.832 52.0894V15.9106C53.832 15.4743 53.6505 15.0745 53.2873 14.7114C52.9242 14.3483 52.5244 14.1667 52.0881 14.1667H15.9093C15.4729 14.1667 15.0732 14.3483 14.7101 14.7114C14.3469 15.0745 14.1654 15.4743 14.1654 15.9106V52.0894C14.1654 52.5258 14.3469 52.9255 14.7101 53.2886C15.0732 53.6518 15.4729 53.8334 15.9093 53.8334ZM33.9987 12.5864C34.6126 12.5864 35.1202 12.3857 35.5216 11.9843C35.923 11.5829 36.1237 11.0753 36.1237 10.4614C36.1237 9.84751 35.923 9.33987 35.5216 8.93848C35.1202 8.53709 34.6126 8.3364 33.9987 8.3364C33.3848 8.3364 32.8772 8.53709 32.4758 8.93848C32.0744 9.33987 31.8737 9.84751 31.8737 10.4614C31.8737 11.0753 32.0744 11.5829 32.4758 11.9843C32.8772 12.3857 33.3848 12.5864 33.9987 12.5864Z" fill="#0B80C5"/>
</g>
</svg>
