<svg width="68" height="68" viewBox="0 0 68 68" fill="none" xmlns="http://www.w3.org/2000/svg">
<mask id="mask0_246_2244" style="mask-type:alpha" maskUnits="userSpaceOnUse" x="0" y="0" width="68" height="68">
<rect width="68" height="68" fill="#D9D9D9"/>
</mask>
<g mask="url(#mask0_246_2244)">
<path d="M29.9242 45.072L48.047 26.9493L46.0417 24.944L29.9242 41.0614L21.8492 32.9864L19.844 34.9917L29.9242 45.072ZM34.0092 59.5C30.4831 59.5 27.1679 58.8309 24.0635 57.4926C20.9596 56.1543 18.2594 54.3381 15.963 52.0441C13.6666 49.75 11.8488 47.0522 10.5095 43.9507C9.16985 40.8496 8.5 37.5358 8.5 34.0092C8.5 30.4831 9.16914 27.1679 10.5074 24.0635C11.8457 20.9596 13.6619 18.2594 15.9559 15.963C18.25 13.6666 20.9478 11.8488 24.0493 10.5095C27.1504 9.16985 30.4642 8.5 33.9908 8.5C37.5169 8.5 40.8321 9.16914 43.9365 10.5074C47.0404 11.8457 49.7406 13.6619 52.037 15.9559C54.3334 18.25 56.1512 20.9478 57.4905 24.0493C58.8302 27.1504 59.5 30.4642 59.5 33.9908C59.5 37.5169 58.8309 40.8321 57.4926 43.9365C56.1543 47.0404 54.3381 49.7406 52.0441 52.037C49.75 54.3334 47.0522 56.1512 43.9507 57.4905C40.8496 58.8302 37.5358 59.5 34.0092 59.5ZM34 56.6667C40.3278 56.6667 45.6875 54.4708 50.0792 50.0792C54.4708 45.6875 56.6667 40.3278 56.6667 34C56.6667 27.6722 54.4708 22.3125 50.0792 17.9208C45.6875 13.5292 40.3278 11.3333 34 11.3333C27.6722 11.3333 22.3125 13.5292 17.9208 17.9208C13.5292 22.3125 11.3333 27.6722 11.3333 34C11.3333 40.3278 13.5292 45.6875 17.9208 50.0792C22.3125 54.4708 27.6722 56.6667 34 56.6667Z" fill="#0B80C5"/>
</g>
</svg>
