<svg width="24" height="24" viewBox="0 0 24 24" fill="none" xmlns="http://www.w3.org/2000/svg">
<path d="M24 3.42857C24 1.5375 22.4625 0 20.5714 0H3.42857C1.5375 0 0 1.5375 0 3.42857V20.5714C0 22.4625 1.5375 24 3.42857 24H20.5714C22.4625 24 24 22.4625 24 20.5714V3.42857ZM3.42857 12C3.42857 9.0375 5.82321 6.64286 8.78571 6.64286C10.2321 6.64286 11.4375 7.16786 12.375 8.04643L10.9232 9.44464C10.5268 9.06429 9.83571 8.61964 8.79107 8.61964C6.96429 8.61964 5.475 10.1304 5.475 12.0054C5.475 13.875 6.96429 15.3911 8.79107 15.3911C10.9125 15.3911 11.7054 13.8643 11.8339 13.0821H8.78571V11.2393H13.8429C13.8964 11.5071 13.9286 11.7804 13.9286 12.1286C13.9286 15.1875 11.8768 17.3571 8.78571 17.3571C5.82321 17.3571 3.42857 14.9625 3.42857 12ZM19.0179 12.975V14.5286H17.4536V12.975H15.9V11.4107H17.4536V9.85714H19.0179V11.4107H20.5714V12.975H19.0179Z" fill="white"/>
</svg>
