<svg width="68" height="68" viewBox="0 0 68 68" fill="none" xmlns="http://www.w3.org/2000/svg">
<mask id="mask0_246_2286" style="mask-type:alpha" maskUnits="userSpaceOnUse" x="0" y="0" width="68" height="68">
<rect width="68" height="68" fill="#D9D9D9"/>
</mask>
<g mask="url(#mask0_246_2286)">
<path d="M34.0026 59.9356C32.6983 59.9356 31.564 59.4988 30.5998 58.6252C29.6355 57.7516 29.0625 56.6629 28.8806 55.3591H39.1246C38.9428 56.6629 38.3697 57.7516 37.4054 58.6252C36.4412 59.4988 35.3069 59.9356 34.0026 59.9356ZM24.0859 50.3462V47.5129H43.9193V50.3462H24.0859ZM24.2496 42.5C21.5725 40.7457 19.4593 38.5208 17.91 35.8254C16.3606 33.1299 15.5859 30.1604 15.5859 26.9167C15.5859 21.7765 17.3705 17.4222 20.9395 13.8536C24.5081 10.2845 28.8625 8.5 34.0026 8.5C39.1427 8.5 43.4971 10.2845 47.0657 13.8536C50.6347 17.4222 52.4193 21.7765 52.4193 26.9167C52.4193 30.1604 51.6446 33.1299 50.0952 35.8254C48.5459 38.5208 46.4327 40.7457 43.7556 42.5H24.2496ZM25.0776 39.6667H42.9276C45.0526 38.1556 46.6936 36.2903 47.8505 34.0708C49.0075 31.8514 49.5859 29.4667 49.5859 26.9167C49.5859 22.5722 48.0748 18.8889 45.0526 15.8667C42.0304 12.8444 38.347 11.3333 34.0026 11.3333C29.6582 11.3333 25.9748 12.8444 22.9526 15.8667C19.9304 18.8889 18.4193 22.5722 18.4193 26.9167C18.4193 29.4667 18.9977 31.8514 20.1547 34.0708C21.3116 36.2903 22.9526 38.1556 25.0776 39.6667Z" fill="#0B80C5"/>
</g>
</svg>
