<svg xmlns="http://www.w3.org/2000/svg" width="59" height="52" fill="none"><path fill="#0B80C5" d="m24.515 14.443-.462 1.569c-.123.414-.593.661-1.047.552l-1.646-.398c-1.347-.326-2.776.262-3.475 1.429l-1.8 2.998a3.018 3.018 0 0 0 .47 3.709l1.182 1.17a.74.74 0 0 1 0 1.054L16.556 27.7a3.017 3.017 0 0 0-.47 3.706l1.8 3c.699 1.167 2.128 1.755 3.474 1.429l1.646-.399c.455-.11.925.14 1.047.552l.464 1.571c.387 1.307 1.631 2.22 3.026 2.22h3.603c1.392 0 2.636-.913 3.025-2.22l.464-1.57c.122-.414.592-.662 1.045-.553l1.647.398c1.346.327 2.775-.261 3.476-1.428l1.8-2.998a3.02 3.02 0 0 0-.472-3.708l-1.181-1.173c-.32-.266-.277-.78 0-1.054l1.181-1.171a3.019 3.019 0 0 0 .472-3.706l-1.8-3c-.7-1.167-2.13-1.755-3.475-1.429l-1.648.398c-.453.11-.923-.138-1.045-.552l-.465-1.572c-.388-1.305-1.632-2.217-3.024-2.217H27.54c-1.394 0-2.638.912-3.026 2.22Zm1.736 2.218.462-1.568c.101-.34.442-.578.828-.578h3.604c.385 0 .726.238.827.577l.463 1.57c.47 1.593 2.132 2.53 3.783 2.13l1.647-.398c.381-.092.781.064.971.38l1.801 3.002a.723.723 0 0 1-.121.897l-1.182 1.172a3.051 3.051 0 0 0 0 4.31l1.182 1.171a.724.724 0 0 1 .12.9l-1.8 3c-.19.316-.588.472-.97.38l-1.649-.4c-1.65-.396-3.311.54-3.782 2.132l-.463 1.568c-.101.34-.441.58-.827.58H27.54c-.386 0-.727-.239-.827-.578l-.463-1.57c-.473-1.598-2.181-2.516-3.784-2.13l-1.647.398c-.382.092-.78-.064-.97-.38l-1.802-3.002a.722.722 0 0 1 .122-.898l1.182-1.172c1.188-1.178 1.185-3.132 0-4.31l-1.182-1.17a.723.723 0 0 1-.12-.9l1.8-3c.19-.316.589-.472.97-.38l1.648.398c1.65.398 3.311-.537 3.783-2.13Z"/><path fill="#0B80C5" d="M29.344 31.344c2.897 0 5.344-2.447 5.344-5.344 0-2.897-2.447-5.344-5.344-5.344C26.447 20.656 24 23.103 24 26c0 2.897 2.447 5.344 5.344 5.344Zm0-8.396c1.654 0 3.052 1.398 3.052 3.052 0 1.654-1.398 3.052-3.052 3.052-1.654 0-3.052-1.398-3.052-3.052 0-1.654 1.398-3.052 3.052-3.052Z"/><path fill="#0B80C5" d="M54.275 21.593c-.393 0-.773.053-1.135.15L44.968 7.588a4.393 4.393 0 0 0 1.362-3.182A4.411 4.411 0 0 0 41.924 0a4.414 4.414 0 0 0-4.254 3.26h-3.286a1.146 1.146 0 0 0 0 2.292h3.284a4.425 4.425 0 0 0 1.004 1.825l-2.602 4.55c-.315.55-.124 1.25.425 1.564.543.31 1.254.116 1.564-.426l2.548-4.453a4.435 4.435 0 0 0 2.35.078l8.198 14.2a4.44 4.44 0 0 0-1.132 1.954l-5.392-.052h-.011a1.146 1.146 0 0 0-.01 2.292l5.407.053a4.44 4.44 0 0 0 1.138 1.973l-8.198 14.2a4.432 4.432 0 0 0-2.185.03l-2.609-4.476a1.146 1.146 0 1 0-1.98 1.154l2.61 4.479a4.43 4.43 0 0 0-1.125 1.95H21.013a4.423 4.423 0 0 0-1.004-1.824l2.74-4.79a1.146 1.146 0 0 0-1.99-1.139l-2.685 4.694a4.274 4.274 0 0 0-2.34-.07l-8.21-14.21c.55-.51.939-1.235 1.134-1.952l5.114.053h.012a1.146 1.146 0 0 0 .012-2.292l-5.132-.053a4.438 4.438 0 0 0-1.138-1.974l8.198-14.2a4.433 4.433 0 0 0 2.185-.03l2.748 4.715c.314.54 1.027.728 1.567.414.547-.32.732-1.02.413-1.568l-2.749-4.718a4.427 4.427 0 0 0 1.125-1.95h3.29a1.146 1.146 0 0 0 0-2.293H21.01A4.414 4.414 0 0 0 16.757 0a4.411 4.411 0 0 0-4.406 4.407c0 1.25.523 2.378 1.362 3.181L5.541 21.743A4.411 4.411 0 0 0 0 26a4.411 4.411 0 0 0 5.541 4.258l8.172 14.154a4.393 4.393 0 0 0-1.362 3.181A4.411 4.411 0 0 0 16.757 52a4.414 4.414 0 0 0 4.254-3.26H37.67A4.414 4.414 0 0 0 41.924 52a4.411 4.411 0 0 0 4.406-4.407c0-1.25-.524-2.378-1.362-3.18l8.171-14.155A4.411 4.411 0 0 0 58.68 26a4.411 4.411 0 0 0-4.405-4.407Zm-12.351-19.3c1.165 0 2.114.948 2.114 2.113 0 1.15-.964 2.115-2.114 2.115a2.117 2.117 0 0 1-2.114-2.115c0-1.165.948-2.114 2.114-2.114Zm-25.167 0c1.166 0 2.114.948 2.114 2.113a2.117 2.117 0 0 1-2.114 2.115 2.137 2.137 0 0 1-2.114-2.114c0-1.166.948-2.115 2.114-2.115ZM2.292 26c0-1.166.949-2.114 2.114-2.114 1.16 0 2.128.981 2.113 2.14a2.137 2.137 0 0 1-2.113 2.088A2.117 2.117 0 0 1 2.292 26Zm14.465 23.708a2.117 2.117 0 0 1-2.114-2.114c0-1.09.829-1.99 1.89-2.102l.022-.002a2.117 2.117 0 0 1 2.316 2.104 2.117 2.117 0 0 1-2.114 2.114Zm25.167 0a2.117 2.117 0 0 1-2.114-2.114c0-1.166.948-2.115 2.114-2.115 1.15 0 2.114.964 2.114 2.114a2.117 2.117 0 0 1-2.114 2.115Zm12.35-21.594a2.137 2.137 0 0 1-2.112-2.14 2.137 2.137 0 0 1 2.113-2.088c1.165 0 2.114.948 2.114 2.114a2.117 2.117 0 0 1-2.114 2.114Z"/><path fill="#0B80C5" d="M28.281 4.844c.237.577.922.86 1.497.62.576-.24.859-.92.619-1.496a1.155 1.155 0 0 0-1.496-.62c-.576.24-.86.919-.62 1.496Z"/></svg>