<svg width="68" height="68" viewBox="0 0 68 68" fill="none" xmlns="http://www.w3.org/2000/svg">
<mask id="mask0_246_2262" style="mask-type:alpha" maskUnits="userSpaceOnUse" x="0" y="0" width="68" height="68">
<rect width="68" height="68" fill="#D9D9D9"/>
</mask>
<g mask="url(#mask0_246_2262)">
<path d="M20.9172 62.3333V42.6254L11.2188 26.9167L22.5797 8.5H45.4093L56.7702 26.9167L47.0717 42.6254V62.3333L33.9945 57.8106L20.9172 62.3333ZM23.7506 58.1761L33.9945 54.7485L44.2384 58.1761V45.3333H23.7506V58.1761ZM24.1324 11.3333L14.499 26.9167L24.1324 42.5H43.8566L53.49 26.9167L43.8566 11.3333H24.1324ZM31.0195 36.4466L22.9771 28.475L24.9987 26.4534L31.0195 32.4742L42.9903 20.4326L45.0119 22.3833L31.0195 36.4466Z" fill="#0B80C5"/>
</g>
</svg>
