<svg width="68" height="68" viewBox="0 0 68 68" fill="none" xmlns="http://www.w3.org/2000/svg">
<mask id="mask0_246_2298" style="mask-type:alpha" maskUnits="userSpaceOnUse" x="0" y="0" width="68" height="68">
<rect width="68" height="68" fill="#D9D9D9"/>
</mask>
<g mask="url(#mask0_246_2298)">
<path d="M31.4435 40.6583C30.1028 40.1427 29.0011 39.2891 28.1384 38.0977C27.2756 36.9063 26.8443 35.5404 26.8443 34C26.8443 32.0238 27.5309 30.3493 28.9041 28.9765C30.2773 27.6033 31.9518 26.9167 33.9276 26.9167C35.8391 26.9167 37.4704 27.5669 38.8215 28.8674C40.1725 30.1679 40.9023 31.7518 41.0109 33.6189H40.3245C39.9142 33.6548 39.5392 33.6992 39.1997 33.7521C38.8597 33.805 38.5136 33.8841 38.1613 33.9894V33.8746C38.1249 32.7304 37.6964 31.7569 36.8757 30.9542C36.0545 30.1514 35.0628 29.75 33.9007 29.75C32.7381 29.75 31.7436 30.1632 30.9172 30.9896C30.0908 31.816 29.6776 32.8135 29.6776 33.9823C29.6776 34.964 29.9545 35.8173 30.5085 36.5422C31.0624 37.2666 31.7572 37.765 32.5931 38.0375C32.3168 38.4408 32.0862 38.8549 31.901 39.2799C31.7155 39.7049 31.5629 40.1644 31.4435 40.6583ZM28.7185 59.5L27.6943 51.3053C26.7899 51.0328 25.812 50.604 24.7603 50.019C23.7087 49.4343 22.8143 48.8079 22.0772 48.1398L14.5192 51.3542L9.23438 42.1458L15.7673 37.2201C15.6837 36.7082 15.6148 36.1807 15.5605 35.6377C15.5057 35.0946 15.4783 34.5759 15.4783 34.0815C15.4783 33.5875 15.5057 33.0782 15.5605 32.5536C15.6148 32.0285 15.6837 31.4372 15.7673 30.7799L9.23438 25.8542L14.5192 16.7549L22.0226 19.9148C22.8688 19.2102 23.7842 18.5746 24.7688 18.008C25.7529 17.4413 26.7099 17.0035 27.6397 16.6947L28.7185 8.5H39.2897L40.3139 16.7493C41.4 17.1308 42.3598 17.5686 43.1933 18.0625C44.0268 18.5564 44.885 19.1739 45.7681 19.9148L53.4889 16.7549L58.7738 25.8542L52.0227 30.9435C52.179 31.5282 52.2663 32.0648 52.2848 32.5536C52.3027 33.0419 52.3117 33.524 52.3117 34H49.3692C49.3584 33.1755 49.3057 32.448 49.2113 31.8176C49.1168 31.1877 48.9752 30.5294 48.7863 29.8428L55.0961 25.075L52.2791 20.2583L45.0484 23.2879C44.1913 22.3472 43.0644 21.4653 41.6675 20.6422C40.2712 19.8196 38.9499 19.274 37.7037 19.0053L36.8374 11.3333H31.187L30.3045 18.9507C28.8769 19.2558 27.5646 19.7472 26.3675 20.4248C25.1709 21.102 23.9805 22.0327 22.7961 23.217L15.7291 20.2583L12.912 25.075L19.0583 29.6629C18.8221 30.2985 18.6569 30.9886 18.5624 31.7333C18.468 32.478 18.4208 33.2468 18.4208 34.0397C18.4208 34.7862 18.468 35.5092 18.5624 36.2086C18.6569 36.9084 18.804 37.5943 19.0037 38.2663L12.912 42.925L15.7291 47.7417L22.7416 44.7667C23.8749 45.9109 25.1589 46.8572 26.5935 47.6057C28.0286 48.3537 29.5543 48.9003 31.1707 49.2455V59.5H28.7185ZM40.2155 59.5C39.4892 59.5 38.8717 59.2457 38.3632 58.7371C37.8546 58.2285 37.6003 57.6111 37.6003 56.8848V43.2083C37.6003 42.5401 37.7946 41.9754 38.1832 41.514C38.5719 41.0526 39.0477 40.7783 39.6105 40.6909L41.1965 43.9167H44.7927L42.9942 40.3205H46.5905L48.3889 43.9167H51.9851L50.1867 40.3205H53.7829L55.5813 43.9167H59.1768L57.3791 40.3205H58.9594C59.6857 40.3205 60.3031 40.5747 60.8117 41.0833C61.3203 41.5919 61.5745 42.2093 61.5745 42.9356V56.8848C61.5745 57.6111 61.3203 58.2285 60.8117 58.7371C60.3031 59.2457 59.6857 59.5 58.9594 59.5H40.2155ZM40.1064 56.9939H59.0685V46.4227H40.1064V56.9939Z" fill="#0B80C5"/>
</g>
</svg>
