<svg xmlns="http://www.w3.org/2000/svg" width="58" height="58" fill="none"><path fill="#3C6653" d="M14.245 54.98c-1.767 0-3.274-.623-4.52-1.868-1.246-1.244-1.87-2.75-1.87-4.517 0-1.767.622-3.27 1.864-4.51 1.242-1.24 2.75-1.859 4.524-1.859.525 0 1.01.055 1.454.163.443.109.89.271 1.337.488l6.042-7.496a8.509 8.509 0 0 1-1.624-2.905 7.095 7.095 0 0 1-.244-3.355l-8.728-2.919a6.168 6.168 0 0 1-2.254 2.298c-.945.557-2.03.835-3.253.835-1.755 0-3.255-.62-4.5-1.861-1.245-1.24-1.868-2.747-1.868-4.519 0-1.771.623-3.277 1.867-4.515 1.245-1.239 2.75-1.858 4.518-1.858 1.767 0 3.27.62 4.51 1.86 1.239 1.24 1.858 2.745 1.858 4.516 0 .078-.004.165-.012.26a2.985 2.985 0 0 0-.011.215l8.765 3.025c.617-1.118 1.384-2 2.303-2.647.918-.646 1.97-1.094 3.157-1.345v-9.281c-1.555-.366-2.766-1.154-3.634-2.366-.867-1.211-1.301-2.494-1.301-3.848 0-1.752.62-3.25 1.86-4.498 1.24-1.246 2.747-1.869 4.52-1.869 1.771 0 3.276.623 4.515 1.868 1.238 1.245 1.858 2.748 1.858 4.509 0 1.347-.44 2.627-1.32 3.838-.88 1.212-2.085 2-3.616 2.366v9.28c1.187.252 2.245.7 3.176 1.346.932.646 1.713 1.529 2.345 2.647l8.705-3.025a.685.685 0 0 1-.024-.214v-.26c0-1.772.62-3.277 1.856-4.517 1.238-1.24 2.74-1.86 4.508-1.86 1.767 0 3.273.62 4.52 1.86 1.246 1.24 1.87 2.747 1.87 4.52 0 1.771-.623 3.276-1.868 4.515-1.245 1.238-2.745 1.858-4.5 1.858-1.22 0-2.309-.282-3.268-.846a5.97 5.97 0 0 1-2.24-2.287l-8.727 2.919a7.007 7.007 0 0 1-.214 3.367 7.67 7.67 0 0 1-1.654 2.87l6.042 7.52c.427-.218.868-.38 1.322-.489a6.175 6.175 0 0 1 1.442-.163c1.812 0 3.334.62 4.566 1.856 1.232 1.238 1.848 2.74 1.848 4.508 0 1.766-.622 3.273-1.867 4.52-1.244 1.246-2.75 1.87-4.517 1.87-1.767 0-3.27-.621-4.51-1.862-1.24-1.242-1.859-2.749-1.859-4.522 0-.773.108-1.47.322-2.09.215-.622.554-1.233 1.017-1.835l-6.041-7.542c-1.124.638-2.363.957-3.715.957-1.353 0-2.587-.32-3.703-.957L19.27 44.73c.45.59.785 1.187 1.007 1.795.221.607.332 1.297.332 2.07 0 1.773-.618 3.28-1.856 4.522-1.237 1.24-2.74 1.861-4.507 1.861ZM6.988 26.591c1.015 0 1.874-.352 2.575-1.058.702-.706 1.053-1.567 1.053-2.582s-.353-1.874-1.059-2.575c-.706-.702-1.566-1.053-2.581-1.053-1.016 0-1.874.353-2.576 1.059s-1.053 1.566-1.053 2.581c0 1.016.353 1.874 1.06 2.576.705.702 1.566 1.052 2.58 1.052Zm7.25 25.645c1.015 0 1.874-.353 2.575-1.059.702-.706 1.053-1.566 1.053-2.581 0-1.016-.353-1.874-1.059-2.576s-1.566-1.052-2.581-1.052c-1.016 0-1.874.353-2.576 1.058-.702.706-1.053 1.567-1.053 2.582s.353 1.874 1.06 2.575c.705.702 1.566 1.053 2.58 1.053Zm14.77-41.622c1.015 0 1.873-.353 2.575-1.059.702-.706 1.052-1.566 1.052-2.581 0-1.016-.352-1.874-1.058-2.576-.706-.702-1.567-1.053-2.582-1.053s-1.874.353-2.575 1.059c-.702.706-1.053 1.567-1.053 2.582s.353 1.874 1.059 2.575c.706.702 1.566 1.053 2.581 1.053Zm.012 24.729c1.425 0 2.634-.503 3.627-1.508.993-1.006 1.49-2.221 1.49-3.646 0-1.425-.5-2.635-1.497-3.628-.997-.993-2.21-1.49-3.639-1.49-1.413 0-2.622.5-3.627 1.497-1.005.998-1.508 2.21-1.508 3.64 0 1.412.503 2.621 1.508 3.627 1.005 1.005 2.22 1.508 3.646 1.508Zm14.757 16.893c1.015 0 1.874-.353 2.575-1.059.702-.706 1.053-1.566 1.053-2.581 0-1.016-.353-1.874-1.059-2.576s-1.566-1.052-2.581-1.052c-1.016 0-1.874.353-2.576 1.058-.702.706-1.052 1.567-1.052 2.582s.352 1.874 1.058 2.575c.706.702 1.567 1.053 2.582 1.053Zm7.25-25.645c1.015 0 1.874-.352 2.575-1.058.702-.706 1.053-1.567 1.053-2.582s-.353-1.874-1.059-2.575c-.706-.702-1.566-1.053-2.581-1.053-1.016 0-1.874.353-2.576 1.059s-1.052 1.566-1.052 2.581c0 1.016.352 1.874 1.058 2.576.706.702 1.567 1.052 2.582 1.052Z"/></svg>