<svg width="24" height="24" viewBox="0 0 24 24" fill="none" xmlns="http://www.w3.org/2000/svg">
<path d="M13.2336 0.000366211C14.5835 0.00396603 15.2687 0.0111657 15.8603 0.0279648L16.0931 0.0363644C16.3619 0.0459639 16.627 0.0579632 16.9474 0.0723625C18.2242 0.132359 19.0953 0.33395 19.8597 0.630335C20.6516 0.935119 21.3188 1.3479 21.986 2.01386C22.5964 2.61351 23.0685 3.33916 23.3695 4.14016C23.6659 4.90452 23.8675 5.77567 23.9275 7.05361C23.9419 7.37279 23.9539 7.63798 23.9635 7.90797L23.9707 8.14076C23.9887 8.73113 23.9959 9.41629 23.9983 10.7662L23.9995 11.6614V13.2333C24.0024 14.1085 23.9932 14.9838 23.9719 15.8588L23.9647 16.0916C23.9551 16.3615 23.9431 16.6267 23.9287 16.9459C23.8687 18.2238 23.6647 19.0938 23.3695 19.8594C23.0685 20.6604 22.5964 21.386 21.986 21.9857C21.3863 22.5961 20.6607 23.0682 19.8597 23.3692C19.0953 23.6656 18.2242 23.8672 16.9474 23.9272L16.0931 23.9632L15.8603 23.9704C15.2687 23.9872 14.5835 23.9956 13.2336 23.998L12.3385 23.9992H10.7677C9.8921 24.0022 9.01646 23.993 8.14107 23.9716L7.90828 23.9644C7.62343 23.9536 7.33864 23.9412 7.05393 23.9272C5.77719 23.8672 4.90604 23.6656 4.14047 23.3692C3.33991 23.0681 2.61468 22.5959 2.01538 21.9857C1.40455 21.3861 0.931966 20.6605 0.630651 19.8594C0.334266 19.095 0.132676 18.2238 0.0726788 16.9459L0.0366807 16.0916L0.0306811 15.8588C0.00856149 14.9838 -0.00143908 14.1086 0.000682522 13.2333V10.7662C-0.00263878 9.89099 0.00616171 9.01575 0.0270813 8.14076L0.0354808 7.90797C0.0450803 7.63798 0.0570797 7.37279 0.071479 7.05361C0.131476 5.77567 0.333066 4.90572 0.629451 4.14016C0.931469 3.33884 1.40488 2.61316 2.01658 2.01386C2.61553 1.40375 3.34034 0.931607 4.14047 0.630335C4.90604 0.33395 5.77599 0.132359 7.05393 0.0723625C7.37311 0.0579632 7.6395 0.0459639 7.90828 0.0363644L8.14107 0.0291647C9.01606 0.00784508 9.8913 -0.00135534 10.7665 0.00156606L13.2336 0.000366211ZM12.0001 6.00006C10.4089 6.00006 8.88281 6.63217 7.75765 7.75733C6.63249 8.8825 6.00038 10.4085 6.00038 11.9998C6.00038 13.591 6.63249 15.117 7.75765 16.2422C8.88281 17.3673 10.4089 17.9995 12.0001 17.9995C13.5913 17.9995 15.1173 17.3673 16.2425 16.2422C17.3677 15.117 17.9998 13.591 17.9998 11.9998C17.9998 10.4085 17.3677 8.8825 16.2425 7.75733C15.1173 6.63217 13.5913 6.00006 12.0001 6.00006ZM12.0001 8.39994C12.4728 8.39986 12.9409 8.4929 13.3777 8.67373C13.8145 8.85457 14.2114 9.11966 14.5457 9.45388C14.88 9.7881 15.1453 10.1849 15.3262 10.6216C15.5072 11.0583 15.6004 11.5264 15.6005 11.9992C15.6006 12.4719 15.5075 12.94 15.3267 13.3768C15.1459 13.8136 14.8808 14.2105 14.5466 14.5448C14.2123 14.8791 13.8155 15.1443 13.3788 15.3253C12.9421 15.5063 12.474 15.5995 12.0013 15.5996C11.0465 15.5996 10.1309 15.2203 9.45582 14.5452C8.78072 13.8701 8.40146 12.9545 8.40146 11.9998C8.40146 11.045 8.78072 10.1294 9.45582 9.4543C10.1309 8.77921 11.0465 8.39994 12.0013 8.39994M18.301 4.20015C17.9032 4.20015 17.5216 4.35818 17.2404 4.63947C16.9591 4.92076 16.801 5.30227 16.801 5.70008C16.801 6.09788 16.9591 6.4794 17.2404 6.76069C17.5216 7.04198 17.9032 7.2 18.301 7.2C18.6988 7.2 19.0803 7.04198 19.3616 6.76069C19.6429 6.4794 19.8009 6.09788 19.8009 5.70008C19.8009 5.30227 19.6429 4.92076 19.3616 4.63947C19.0803 4.35818 18.6988 4.20015 18.301 4.20015Z" fill="white"/>
</svg>
