<svg width="68" height="68" viewBox="0 0 68 68" fill="none" xmlns="http://www.w3.org/2000/svg">
<mask id="mask0_246_2387" style="mask-type:alpha" maskUnits="userSpaceOnUse" x="0" y="0" width="68" height="68">
<rect width="68" height="68" fill="#D9D9D9"/>
</mask>
<g mask="url(#mask0_246_2387)">
<path d="M32.3326 48.0576C28.7801 47.6038 25.8088 46.0563 23.4189 43.4152C21.0285 40.7745 19.8333 37.6361 19.8333 34C19.8333 30.065 21.2106 26.72 23.965 23.965C26.72 21.2106 30.065 19.8333 34 19.8333C37.6361 19.8333 40.7745 21.0193 43.4152 23.3913C46.0563 25.7633 47.6038 28.7255 48.0576 32.278L44.9955 31.3792C44.3844 28.8292 43.0688 26.7396 41.0486 25.1104C39.028 23.4812 36.6784 22.6667 34 22.6667C30.8833 22.6667 28.2153 23.7764 25.9958 25.9958C23.7764 28.2153 22.6667 30.8833 22.6667 34C22.6667 36.6917 23.4902 39.0528 25.1373 41.0833C26.7849 43.1139 28.8655 44.4361 31.3792 45.05L32.3326 48.0576ZM35.7326 59.4129C35.4441 59.471 35.1553 59.5 34.8663 59.5H34C30.4725 59.5 27.1575 58.8309 24.055 57.4926C20.9525 56.1543 18.2538 54.3381 15.9588 52.0441C13.6638 49.75 11.8469 47.0522 10.5081 43.9507C9.16938 40.8496 8.5 37.5358 8.5 34.0092C8.5 30.4831 9.16914 27.1679 10.5074 24.0635C11.8457 20.9596 13.6619 18.2594 15.9559 15.963C18.25 13.6666 20.9478 11.8488 24.0493 10.5095C27.1504 9.16985 30.4642 8.5 33.9908 8.5C37.5169 8.5 40.8321 9.16937 43.9365 10.5081C47.0404 11.8469 49.7406 13.6637 52.037 15.9587C54.3334 18.2537 56.1512 20.9525 57.4905 24.055C58.8302 27.1575 59.5 30.4725 59.5 34V34.8394C59.5 35.1189 59.471 35.3985 59.4129 35.678L56.6667 34.85V34C56.6667 27.6722 54.4708 22.3125 50.0792 17.9208C45.6875 13.5292 40.3278 11.3333 34 11.3333C27.6722 11.3333 22.3125 13.5292 17.9208 17.9208C13.5292 22.3125 11.3333 27.6722 11.3333 34C11.3333 40.3278 13.5292 45.6875 17.9208 50.0792C22.3125 54.4708 27.6722 56.6667 34 56.6667H34.85L35.7326 59.4129ZM55.9746 58.9007L42.3909 45.2625L39.7757 53.1795L34 34L53.1795 39.7758L45.2625 42.3909L58.9007 55.9746L55.9746 58.9007Z" fill="#0B80C5"/>
</g>
</svg>
