<svg width="68" height="68" viewBox="0 0 68 68" fill="none" xmlns="http://www.w3.org/2000/svg">
<g opacity="0.68">
<path d="M28.3369 46.0962C33.2523 46.0962 37.4255 44.3662 40.8567 40.9062C44.2874 37.4458 46.0028 33.2676 46.0028 28.3716C46.0028 23.4572 44.2874 19.2799 40.8567 15.8397C37.4255 12.3996 33.2523 10.6795 28.3369 10.6795C23.4211 10.6795 19.2518 12.3996 15.8292 15.8397C12.4065 19.2799 10.6952 23.4572 10.6952 28.3716C10.6952 33.2676 12.4103 37.4458 15.8405 40.9062C19.2707 44.3662 23.4362 46.0962 28.3369 46.0962ZM27.2595 35.4492V18.9345H29.4391V35.4492H27.2595ZM17.6425 35.4492V24.4318H19.822V35.4492H17.6425ZM36.9304 35.4492V27.2269H39.11V35.4492H36.9304ZM57.9955 59.5L41.6005 43.0886C39.8438 44.6545 37.8295 45.8924 35.5577 46.8024C33.2858 47.7119 30.8775 48.1667 28.3327 48.1667C22.828 48.1667 18.149 46.2343 14.2956 42.3697C10.4423 38.505 8.51562 33.8307 8.51562 28.3468C8.51562 22.7533 10.4366 18.0472 14.2786 14.2283C18.1206 10.4094 22.8093 8.5 28.3447 8.5C33.8499 8.5 38.5324 10.4123 42.3924 14.2368C46.2523 18.0613 48.1823 22.7547 48.1823 28.317C48.1823 30.8453 47.7401 33.2383 46.8556 35.496C45.9711 37.7532 44.7207 39.7647 43.1042 41.5303L59.4993 57.9254L57.9955 59.5Z" fill="#0B80C5"/>
</g>
</svg>
