<svg xmlns="http://www.w3.org/2000/svg" width="68" height="69" fill="none"><mask id="a" width="68" height="69" x="0" y="0" maskUnits="userSpaceOnUse" style="mask-type:alpha"><path fill="#D9D9D9" d="M0 .953h68v68H0z"/></mask><g mask="url(#a)"><path fill="#0B80C5" d="M35.417 33.536h21.217c-.382-5.739-2.578-10.624-6.59-14.654-4.012-4.03-8.888-6.218-14.627-6.563v21.217Zm-2.834 24.051V12.32c-5.968.345-11.001 2.691-15.1 7.037-4.1 4.347-6.15 9.546-6.15 15.597 0 6.052 2.05 11.25 6.15 15.597 4.099 4.346 9.132 6.692 15.1 7.037Zm2.834 0c5.74-.334 10.618-2.52 14.635-6.555 4.017-4.035 6.211-8.923 6.582-14.662H35.417v21.217Zm-1.408 2.866c-3.526 0-6.841-.669-9.945-2.007-3.104-1.339-5.805-3.155-8.101-5.449-2.296-2.294-4.114-4.992-5.454-8.093C9.17 41.803 8.5 38.489 8.5 34.962c0-3.526.67-6.841 2.007-9.945 1.339-3.104 3.155-5.805 5.449-8.1 2.294-2.297 4.992-4.115 8.093-5.454 3.101-1.34 6.415-2.01 9.942-2.01 3.526 0 6.837.671 9.934 2.013 3.097 1.343 5.795 3.165 8.096 5.466 2.302 2.3 4.123 4.998 5.466 8.09 1.342 3.092 2.013 6.408 2.013 9.948 0 3.498-.67 6.795-2.007 9.892-1.339 3.097-3.155 5.801-5.449 8.114-2.294 2.312-4.992 4.136-8.093 5.473-3.101 1.336-6.415 2.004-9.942 2.004Z"/></g></svg>