<svg xmlns="http://www.w3.org/2000/svg" width="68" height="68" fill="none"><path fill="#0B80C5" d="m51.001 57.364-1.558-1.503 6.206-6.278H41.412v-2.18h14.237l-6.206-6.276 1.558-1.504 8.87 8.87-8.87 8.871ZM9.918 56.067V16.673c0-1.06.389-1.979 1.167-2.756.777-.778 1.696-1.167 2.756-1.167h34.654c1.06 0 1.979.389 2.756 1.167.778.777 1.167 1.696 1.167 2.756v14.543c-.254-.022-.49-.036-.708-.04a27.24 27.24 0 0 0-.709-.01c-.127 0-.254.005-.38.013a1.032 1.032 0 0 1-.383-.05V16.672c0-.508-.163-.926-.49-1.253-.327-.327-.745-.49-1.253-.49H13.841c-.508 0-.926.163-1.253.49-.327.327-.49.745-.49 1.253v30.73h21.865c.041.128.058.255.05.383a6.06 6.06 0 0 0-.012.38c0 .255.003.49.009.709.005.218.019.454.04.708H16.402l-6.484 6.484Zm10.244-29.804h22.012v-2.18H20.162v2.18Zm0 11.66h13.512v-2.18H20.162v2.18Z"/></svg>