<svg xmlns="http://www.w3.org/2000/svg" width="30" height="30" fill="none"><path fill="#0B80C5" d="M25.91 13.636H30v2.728h-4.09v-2.728Zm-25.91 0h4.09v2.728H0v-2.728ZM16.364 0v4.09h-2.728V0h2.728ZM5.345 3.41 8.25 6.326 6.314 8.25 3.409 5.36l1.936-1.95ZM21.75 6.313l2.89-2.905 1.95 1.95-2.904 2.891-1.936-1.936ZM15 6.818A8.182 8.182 0 0 1 23.182 15a8.2 8.2 0 0 1-4.091 7.09v2.456a1.364 1.364 0 0 1-1.364 1.363h-5.454a1.364 1.364 0 0 1-1.364-1.363V22.09A8.2 8.2 0 0 1 6.82 15 8.182 8.182 0 0 1 15 6.818Zm2.727 20.455v1.363A1.364 1.364 0 0 1 16.364 30h-2.728a1.364 1.364 0 0 1-1.363-1.364v-1.363h5.454Zm-4.09-4.091h2.727v-2.905c2.359-.6 4.09-2.74 4.09-5.277a5.454 5.454 0 1 0-10.909 0 5.443 5.443 0 0 0 4.091 5.277v2.905Z"/></svg>