<svg xmlns="http://www.w3.org/2000/svg" width="27" height="27" fill="none"><path stroke="#0B80C5" stroke-linecap="round" stroke-linejoin="round" stroke-width="2" d="M4.75 18.5 11 14.75m5-2.5 6.25-3.75M13.5 4.75V11m0-6.25c1.036 0 1.875-.84 1.875-1.875M13.5 4.75a1.875 1.875 0 0 1-1.875-1.875M13.5 16v6.25m0 0c-1.036 0-1.875.84-1.875 1.875M13.5 22.25c1.036 0 1.875.84 1.875 1.875M4.75 8.5 11 12.25m5 2.5 6.25 3.75m1.875-8.75v6.875m0-6.875a1.875 1.875 0 1 0 0-3.75 1.875 1.875 0 0 0 0 3.75Zm-8.75 14.375 6.875-3.75m-6.875 3.75a1.875 1.875 0 0 1-3.75 0m-7.5-3.75 7.5 3.75m-8.75-6.875v-7.5m0 7.5a1.875 1.875 0 1 0 0 3.75 1.875 1.875 0 0 0 0-3.75Zm0-7.5a1.875 1.875 0 1 0 0-3.75 1.875 1.875 0 0 0 0 3.75Zm1.25-3.125 7.5-3.75m0 0a1.875 1.875 0 0 1 3.75 0m7.5 3.75-7.5-3.75M26 19.125a1.875 1.875 0 1 1-3.75 0 1.875 1.875 0 0 1 3.75 0Zm-12.5-8.438 2.5 1.407v2.812l-2.5 1.406-2.5-1.406v-2.812l2.5-1.406Z"/></svg>