<svg xmlns="http://www.w3.org/2000/svg" width="22" height="22" fill="none"><path stroke="#000" stroke-linecap="round" stroke-linejoin="round" stroke-width="1.5" d="m4 15 5-3m4-2 5-3m-7-3v5m0 4v5M4 7l5 3m4 2 5 3m1.5-7v5.5m-7 6 5.5-3m-14.5 0 6 3m-7-5.5V8m1-2.5 6-3m9 3-6-3M11 4a1.5 1.5 0 1 0 0-3 1.5 1.5 0 0 0 0 3ZM11 21a1.5 1.5 0 1 0 0-3 1.5 1.5 0 0 0 0 3ZM2.5 8a1.5 1.5 0 1 0 0-3 1.5 1.5 0 0 0 0 3ZM19.5 8a1.5 1.5 0 1 0 0-3 1.5 1.5 0 0 0 0 3ZM19.5 17a1.5 1.5 0 1 0 0-3 1.5 1.5 0 0 0 0 3ZM2.5 17a1.5 1.5 0 1 0 0-3 1.5 1.5 0 0 0 0 3ZM11 8.75l2 1.125v2.25l-2 1.125-2-1.125v-2.25l2-1.125Z"/></svg>