<svg xmlns="http://www.w3.org/2000/svg" width="115" height="116" fill="none"><path fill="#A0A0A0" d="M53.734.53c-.247.023-1.034.102-1.742.158-16.334 1.473-31.634 10.285-41.324 23.829-5.396 7.53-8.847 16.073-10.15 25.12C.055 52.797 0 53.73 0 58.012c0 4.283.056 5.215.517 8.374 3.125 21.591 18.492 39.733 39.334 46.454 3.732 1.203 7.667 2.023 12.14 2.518 1.743.191 9.275.191 11.017 0 7.723-.855 14.266-2.765 20.718-6.059.99-.505 1.18-.64 1.046-.753-.09-.067-4.306-5.721-9.364-12.555l-9.196-12.42L54.69 66.52c-6.34-9.374-11.557-17.04-11.601-17.04-.045-.011-.09 7.565-.113 16.815-.034 16.197-.045 16.848-.247 17.23-.292.551-.517.776-.99 1.023-.36.18-.674.214-2.371.214h-1.945l-.517-.326a2.1 2.1 0 0 1-.753-.82l-.237-.506.023-22.536.034-22.547.348-.438c.18-.236.562-.54.832-.686.46-.225.64-.247 2.586-.247 2.293 0 2.675.09 3.27.742.17.18 6.408 9.576 13.873 20.894a51638.021 51638.021 0 0 0 22.685 34.36l9.106 13.792.46-.304c4.081-2.653 8.398-6.43 11.815-10.363 7.273-8.351 11.961-18.534 13.535-29.392.461-3.159.517-4.091.517-8.374 0-4.282-.056-5.215-.517-8.373-3.125-21.592-18.492-39.733-39.334-46.454-3.676-1.192-7.588-2.012-11.972-2.507-1.08-.112-8.51-.236-9.443-.146Zm23.54 34.777c.54.27.978.787 1.135 1.326.09.292.112 6.542.09 20.625l-.034 20.21-3.563-5.463-3.575-5.463v-14.69c0-9.498.045-14.837.112-15.095.18-.63.574-1.124 1.113-1.416.461-.236.63-.259 2.395-.259 1.663 0 1.956.023 2.327.225Z"/></svg>