<svg xmlns="http://www.w3.org/2000/svg" width="115" height="60" fill="none"><path fill="#A0A0A0" fill-rule="evenodd" d="M115 29.931c0 16.531-25.744 29.932-57.5 29.932S0 46.463 0 29.93C0 13.401 25.744 0 57.5 0S115 13.4 115 29.931ZM22.449 15.753l-6.302 31.901h7.483l1.576-8.27h7.088c6.696.393 14.178-5.12 14.178-14.572 0-5.515-3.15-8.665-9.452-9.059H22.45Zm6.301 5.908-1.97 11.815h4.727c3.544-.394 6.695-1.575 7.089-8.27 0-2.364-1.97-3.545-4.726-3.545h-5.12ZM51.31 7.483l-6.302 31.9h7.483l3.545-17.722h5.907c2.757 0 2.757 1.181 2.363 3.15L61.55 39.384h7.877l2.757-16.147c.787-3.939-1.576-7.089-7.877-7.483h-7.089l1.575-8.27H51.31Zm23.913 8.27L68.92 47.654h7.483l1.576-8.27h7.089c6.695.393 14.178-5.12 14.178-14.572 0-5.515-3.151-8.665-9.453-9.059H75.223Zm6.3 5.908-1.969 11.815h4.727c3.544-.394 6.695-1.575 7.089-8.27 0-2.364-1.97-3.545-4.726-3.545h-5.12Z" clip-rule="evenodd"/></svg>