<svg width="20" height="20" viewBox="0 0 20 20" fill="none" xmlns="http://www.w3.org/2000/svg">
<path d="M17.7778 0C18.3671 0 18.9324 0.234126 19.3491 0.650874C19.7659 1.06762 20 1.63285 20 2.22222V17.7778C20 18.3671 19.7659 18.9324 19.3491 19.3491C18.9324 19.7659 18.3671 20 17.7778 20H2.22222C1.63285 20 1.06762 19.7659 0.650874 19.3491C0.234126 18.9324 0 18.3671 0 17.7778V2.22222C0 1.63285 0.234126 1.06762 0.650874 0.650874C1.06762 0.234126 1.63285 0 2.22222 0H17.7778ZM17.7778 2.22222H2.22222V17.7778H17.7778V2.22222ZM10.0411 5.25444C10.3422 4.29 11.6411 4.19889 12.0967 5.05L12.1544 5.17222L14.0856 10H15.5556C15.8388 10.0003 16.1111 10.1088 16.3171 10.3032C16.523 10.4976 16.6469 10.7633 16.6635 11.046C16.6801 11.3287 16.5881 11.6071 16.4064 11.8243C16.2246 12.0414 15.9668 12.181 15.6856 12.2144L15.5556 12.2222H13.3411C13.1399 12.2223 12.9423 12.1684 12.7692 12.0659C12.596 11.9635 12.4535 11.8164 12.3567 11.64L12.2989 11.5178L11.24 8.86889L9.40222 14.75C9.11444 15.67 7.89667 15.8089 7.39444 15.0333L7.32778 14.9167L5.97889 12.2222H4.44444C4.16124 12.2219 3.88885 12.1135 3.68292 11.9191C3.47699 11.7246 3.35307 11.4589 3.33648 11.1762C3.31988 10.8935 3.41186 10.6151 3.59363 10.398C3.77539 10.1808 4.03323 10.0412 4.31444 10.0078L4.44444 10H6.66C7.03778 10 7.38667 10.1889 7.59333 10.4989L7.66333 10.6211L8.09444 11.4833L10.0411 5.25444Z" fill="#000000"/>
</svg>
