<svg xmlns="http://www.w3.org/2000/svg" width="24" height="9" fill="none"><path fill="#0B80C5" d="m15.502 9 3.643-9H16.73l-2.492 5.816L12.466 0h-1.857L8.707 5.816l-1.342-2.65L6.15 6.89 7.383 9H9.76l1.72-5.216L13.12 9h2.382ZM2.287 5.91h1.484c.405.006.81-.044 1.2-.15l.384-1.18 1.072-3.3a2.625 2.625 0 0 0-.28-.367C5.596.304 4.791 0 3.73 0H0v9h2.287V5.91Zm1.964-3.84c.215.217.323.506.323.869 0 .362-.094.652-.282.868-.207.238-.589.357-1.145.357h-.86V1.746h.863c.519 0 .886.108 1.101.324Zm13.414 5.318.693-1.746h2.001l-.95-2.649L20.598 0 24 9h-2.51l-.58-1.612h-3.245Z"/></svg>