<svg width="24" height="9" viewBox="0 0 24 9" fill="none" xmlns="http://www.w3.org/2000/svg">
<path d="M15.5016 9L19.1447 0H16.7297L14.2378 5.81578L12.4655 0H10.6088L8.70656 5.81578L7.36453 3.16594L6.15047 6.89062L7.38328 9H9.75984L11.4792 3.78422L13.1198 9H15.5016ZM2.28703 5.91047H3.77063C4.17597 5.91615 4.58015 5.86551 4.97156 5.76L5.355 4.57922L6.4275 1.27969C6.34471 1.14947 6.25059 1.02681 6.14625 0.913125C5.59687 0.304375 4.79172 0 3.73078 0H0V9H2.28703V5.91047ZM4.25109 2.07047C4.46641 2.28672 4.57391 2.57609 4.57359 2.93859C4.57328 3.30109 4.47953 3.59063 4.29234 3.80719C4.08484 4.04531 3.70297 4.16422 3.14672 4.16391H2.28703V1.74609H3.15047C3.66891 1.74609 4.03578 1.85422 4.25109 2.07047ZM17.6648 7.38797L18.3581 5.64187H20.3592L19.4095 2.99297L20.5973 0L24 9H21.4908L20.9095 7.38797H17.6648Z" fill="#0B80C5"/>
</svg>
