<svg xmlns="http://www.w3.org/2000/svg" width="22" height="22" fill="none"><path stroke="#000" stroke-linecap="round" stroke-linejoin="round" stroke-width="2" d="m16.458 8.08-.291-.514c-.22-.389-.33-.583-.518-.66-.187-.078-.4-.017-.822.106l-.72.206a1.16 1.16 0 0 1-.801-.102l-.2-.116a1.2 1.2 0 0 1-.464-.581l-.197-.598c-.13-.396-.194-.594-.348-.708-.154-.114-.36-.113-.767-.113h-.658c-.41 0-.614 0-.768.113-.154.114-.22.312-.348.708l-.197.598a1.2 1.2 0 0 1-.465.58l-.2.117c-.246.13-.53.165-.8.102l-.72-.206c-.423-.123-.635-.184-.822-.106-.188.077-.298.271-.518.66l-.291.514c-.206.364-.31.547-.29.74.02.194.159.35.435.663l.608.692c.149.191.254.525.254.825 0 .3-.105.633-.254.825l-.608.692c-.276.312-.415.468-.435.662-.02.194.084.377.29.74l.29.515c.22.388.33.583.519.66.187.078.399.017.822-.106l.72-.206a1.16 1.16 0 0 1 .8.102l.2.116c.212.138.374.342.465.581l.197.599c.129.396.194.593.348.707.154.114.359.113.768.113h.658c.41 0 .614 0 .768-.113.154-.114.219-.311.348-.707l.197-.599c.09-.24.253-.443.465-.58l.199-.117c.247-.13.53-.165.8-.102l.72.206c.424.123.636.184.823.106.188-.077.298-.272.518-.66l.29-.514c.207-.364.31-.547.29-.74-.02-.195-.158-.35-.434-.663l-.608-.692c-.15-.191-.254-.525-.254-.825 0-.3.105-.634.254-.825l.608-.692c.276-.312.415-.469.434-.662.019-.193-.083-.377-.29-.74"/><path stroke="#000" stroke-linecap="round" stroke-linejoin="round" stroke-width="2" d="M11 12.75a1.75 1.75 0 1 0 0-3.5 1.75 1.75 0 0 0 0 3.5ZM18 1v2.859A9.97 9.97 0 0 0 11 1C5.477 1 1 5.477 1 11a10 10 0 0 0 .832 4M4 21v-2.859A9.97 9.97 0 0 0 11 21c5.523 0 10-4.477 10-10a10 10 0 0 0-.832-4"/></svg>