<svg xmlns="http://www.w3.org/2000/svg" width="115" height="116" fill="none"><path fill="#A0A0A0" d="M8.217 58c0-7.228 1.477-13.962 4.273-20.045l23.493 64.397C19.556 94.467 8.223 77.545 8.223 57.995L8.217 58Zm82.627-2.465c0 4.273-1.645 9.036-3.78 15.933l-4.93 16.428-17.905-53.063c2.96-.163 5.75-.494 5.75-.494 2.63-.331 2.303-4.106-.33-3.943 0 0-8.049.494-13.143.494-4.93 0-12.979-.494-12.979-.494-2.628-.163-2.96 3.78-.331 3.943 0 0 2.465.33 5.094.494l7.722 21.027-10.845 32.362-17.905-53.39c2.96-.162 5.588-.493 5.588-.493 2.792-.331 2.466-4.106-.33-3.943 0 0-7.886.494-13.143.494h-3.123C25.128 17.585 40.242 8.711 57.49 8.711c12.816 0 24.476 4.931 33.35 12.98-.332-.163-.495-.163-.658-.163-4.93 0-8.38 4.274-8.38 8.873 0 3.943 2.466 7.391 4.932 11.502 1.808 3.286 4.105 7.56 4.105 13.637l.005-.005Zm-47.312 49.777L58.32 62.269l15.277 41.561c0 .331.163.494.33.657-5.093 1.808-10.676 2.791-16.427 2.791-4.763 0-9.53-.657-13.962-1.971l-.006.005Zm57.169-70.968c3.943 7.065 6.077 15.114 6.077 23.656 0 18.236-9.857 34.007-24.476 42.712l15.114-43.7c2.791-6.903 3.616-12.648 3.616-17.58 0-1.808 0-3.443-.331-5.088ZM57.5.5C89.204.5 115 26.29 115 58s-25.79 57.5-57.5 57.5S0 89.71 0 58 25.79.5 57.5.5Zm0 112.366c30.227 0 54.872-24.644 54.872-54.871 0-30.227-24.645-54.872-54.872-54.872S2.628 27.768 2.628 57.995s24.645 54.871 54.872 54.871Z"/></svg>