<svg width="68" height="68" viewBox="0 0 68 68" fill="none" xmlns="http://www.w3.org/2000/svg">
<mask id="mask0_246_2256" style="mask-type:alpha" maskUnits="userSpaceOnUse" x="0" y="0" width="68" height="68">
<rect width="68" height="68" fill="#D9D9D9"/>
</mask>
<g mask="url(#mask0_246_2256)">
<path d="M18.474 54.1931L25.4865 51.3272C24.8688 49.4855 24.3411 47.6111 23.9033 45.7038C23.4656 43.7969 23.1468 41.8627 22.9471 39.9011L19.2368 42.3852C18.9823 42.567 18.7915 42.776 18.6645 43.0121C18.5375 43.2482 18.474 43.5115 18.474 43.8019V54.1931ZM28.3361 51H39.6694C40.5194 48.7116 41.2041 46.2097 41.7236 43.4945C42.243 40.7792 42.5028 37.9503 42.5028 35.0079C42.5028 30.7324 41.8506 26.7957 40.5463 23.1979C39.2425 19.6 37.0613 16.1228 34.0027 12.7663C30.9442 16.1228 28.763 19.6 27.4592 23.1979C26.1549 26.7957 25.5027 30.7324 25.5027 35.0079C25.5027 37.9503 25.7625 40.7792 26.2819 43.4945C26.8014 46.2097 27.4861 48.7116 28.3361 51ZM34.0027 35.4166C32.8076 35.4166 31.8005 35.007 30.9817 34.1877C30.1624 33.3688 29.7527 32.3618 29.7527 31.1666C29.7527 29.9714 30.1624 28.9644 30.9817 28.1456C31.8005 27.3263 32.8076 26.9166 34.0027 26.9166C35.1979 26.9166 36.205 27.3263 37.0238 28.1456C37.8431 28.9644 38.2527 29.9714 38.2527 31.1666C38.2527 32.3618 37.8431 33.3688 37.0238 34.1877C36.205 35.007 35.1979 35.4166 34.0027 35.4166ZM49.5315 54.1931V43.8564C49.5315 43.566 49.468 43.2938 49.341 43.0397C49.214 42.7852 49.0232 42.567 48.7687 42.3852L45.0584 39.9011C44.8587 41.8627 44.4943 43.9877 43.9655 46.2761C43.437 48.5645 42.9549 50.2661 42.519 51.381L49.5315 54.1931ZM34.0027 9.02838C37.9151 12.5011 40.782 16.4132 42.6033 20.7648C44.4252 25.1168 45.3361 29.9644 45.3361 35.3075C45.3361 35.5257 45.3451 35.7528 45.363 35.989C45.3814 36.2251 45.3724 36.4702 45.3361 36.7242L50.2505 40.0371C50.9083 40.4475 51.4252 40.9959 51.801 41.6825C52.1769 42.3692 52.3649 43.0938 52.3649 43.8564V58.356L41.1024 53.8333H26.8486L15.6406 58.356V43.8019C15.6406 43.0392 15.8196 42.3146 16.1775 41.628C16.535 40.9414 17.0427 40.3929 17.7005 39.9825L22.6694 36.6697V35.3075C22.6694 29.9644 23.5803 25.1168 25.4022 20.7648C27.2235 16.4132 30.0904 12.5011 34.0027 9.02838Z" fill="#0B80C5"/>
</g>
</svg>
