<svg width="68" height="68" viewBox="0 0 68 68" fill="none" xmlns="http://www.w3.org/2000/svg">
<mask id="mask0_253_2538" style="mask-type:alpha" maskUnits="userSpaceOnUse" x="0" y="0" width="68" height="68">
<rect width="68" height="68" fill="#D9D9D9"/>
</mask>
<g mask="url(#mask0_253_2538)">
<path d="M18.4167 38.9583H38.25V36.125H18.4167V38.9583ZM18.4167 30.4583H49.5833V27.625H18.4167V30.4583ZM18.4167 21.9583H49.5833V19.125H18.4167V21.9583ZM34 59.5L27.5103 49.5833H13.0772C11.8183 49.5833 10.7407 49.1352 9.84442 48.2389C8.94814 47.3426 8.5 46.265 8.5 45.0061V13.0772C8.5 11.8183 8.94814 10.7407 9.84442 9.84442C10.7407 8.94814 11.8183 8.5 13.0772 8.5H54.9227C56.1817 8.5 57.2593 8.94814 58.1556 9.84442C59.0519 10.7407 59.5 11.8183 59.5 13.0772V45.0061C59.5 46.265 59.0519 47.3426 58.1556 48.2389C57.2593 49.1352 56.1817 49.5833 54.9227 49.5833H40.4897L34 59.5ZM34 54.3674L38.969 46.75H54.9227C55.4313 46.75 55.8493 46.5866 56.1765 46.2598C56.5033 45.9326 56.6667 45.5147 56.6667 45.0061V13.0772C56.6667 12.5687 56.5033 12.1507 56.1765 11.8235C55.8493 11.4967 55.4313 11.3333 54.9227 11.3333H13.0772C12.5687 11.3333 12.1507 11.4967 11.8235 11.8235C11.4967 12.1507 11.3333 12.5687 11.3333 13.0772V45.0061C11.3333 45.5147 11.4967 45.9326 11.8235 46.2598C12.1507 46.5866 12.5687 46.75 13.0772 46.75H29.031L34 54.3674Z" fill="#0B80C5"/>
</g>
</svg>
