<svg xmlns="http://www.w3.org/2000/svg" width="68" height="68" fill="none"><path fill="#0B80C5" d="M34.01 59.5c-3.516 0-6.817-.67-9.903-2.007-3.086-1.339-5.789-3.167-8.109-5.484-2.32-2.318-4.15-5.018-5.489-8.102C9.17 40.825 8.5 37.526 8.5 34.01c0-3.526.67-6.841 2.007-9.945 1.339-3.104 3.167-5.805 5.484-8.101 2.318-2.296 5.018-4.114 8.102-5.454C27.175 9.17 30.474 8.5 33.99 8.5c3.526 0 6.841.67 9.946 2.007 3.103 1.339 5.804 3.155 8.1 5.449 2.296 2.294 4.114 4.992 5.453 8.093 1.34 3.101 2.01 6.415 2.01 9.942 0 3.515-.67 6.816-2.007 9.902-1.339 3.086-3.155 5.789-5.449 8.109-2.294 2.32-4.992 4.15-8.093 5.488-3.101 1.34-6.415 2.01-9.942 2.01ZM34 57.32c6.487 0 11.996-2.267 16.526-6.802C55.056 45.982 57.32 40.477 57.32 34c0-6.487-2.264-11.996-6.794-16.526-4.53-4.53-10.039-6.794-16.526-6.794-6.477 0-11.982 2.264-16.518 6.794C12.947 22.004 10.68 27.513 10.68 34c0 6.477 2.267 11.982 6.802 16.518C22.018 55.053 27.523 57.32 34 57.32Zm-9.59-13.73v-6.26l15.11-15.04c.28-.243.568-.422.866-.538.297-.117.594-.175.891-.175a2.627 2.627 0 0 1 1.812.73l2.62 2.675c.244.28.423.57.54.872.116.301.174.603.174.905 0 .301-.07.605-.21.912-.14.307-.313.6-.52.88L30.671 43.59h-6.26Zm2.507-2.507h2.691l9.824-9.84-1.275-1.402-1.346-1.328-9.894 9.879v2.691Zm11.24-11.242-1.346-1.328 2.621 2.73-1.275-1.402Z"/></svg>