<svg width="24" height="24" viewBox="0 0 24 24" fill="none" xmlns="http://www.w3.org/2000/svg">
<path d="M21.3333 -0.00244141C22.0406 -0.00244141 22.7189 0.27851 23.219 0.778607C23.719 1.2787 24 1.95698 24 2.66423V21.3309C24 22.0381 23.719 22.7164 23.219 23.2165C22.7189 23.7166 22.0406 23.9976 21.3333 23.9976H2.66667C1.95942 23.9976 1.28115 23.7166 0.781048 23.2165C0.280951 22.7164 0 22.0381 0 21.3309V2.66423C0 1.95698 0.280951 1.2787 0.781048 0.778607C1.28115 0.27851 1.95942 -0.00244141 2.66667 -0.00244141H21.3333ZM20.6667 20.6642V13.5976C20.6667 12.4448 20.2087 11.3392 19.3936 10.524C18.5784 9.70884 17.4728 9.25089 16.32 9.25089C15.1867 9.25089 13.8667 9.94423 13.2267 10.9842V9.50423H9.50667V20.6642H13.2267V14.0909C13.2267 13.0642 14.0533 12.2242 15.08 12.2242C15.5751 12.2242 16.0499 12.4209 16.3999 12.771C16.75 13.121 16.9467 13.5958 16.9467 14.0909V20.6642H20.6667ZM5.17333 7.41089C5.76742 7.41089 6.33717 7.17489 6.75725 6.75481C7.17733 6.33473 7.41333 5.76498 7.41333 5.17089C7.41333 3.93089 6.41333 2.91756 5.17333 2.91756C4.57571 2.91756 4.00257 3.15496 3.57999 3.57754C3.1574 4.00013 2.92 4.57327 2.92 5.17089C2.92 6.41089 3.93333 7.41089 5.17333 7.41089ZM7.02667 20.6642V9.50423H3.33333V20.6642H7.02667Z" fill="white"/>
</svg>
