<svg width="24" height="24" viewBox="0 0 24 24" fill="none" xmlns="http://www.w3.org/2000/svg">
<path fill-rule="evenodd" clip-rule="evenodd" d="M16.47 23.9976V14.7036H19.59L20.0568 11.082H16.4688V8.76956C16.4688 7.72076 16.7604 7.00556 18.2652 7.00556H20.1828V3.76556C19.2541 3.66673 18.3207 3.61866 17.3868 3.62156C14.622 3.62156 12.7296 5.30996 12.7296 8.40956V11.082H9.6V14.7036H12.7284V23.9976H1.3248C0.5928 23.9976 0 23.4048 0 22.6728V1.32236C0 0.590359 0.5928 -0.00244141 1.3248 -0.00244141H22.6752C23.4072 -0.00244141 24 0.590359 24 1.32236V22.6728C24 23.4048 23.4072 23.9976 22.6752 23.9976H16.47Z" fill="white"/>
</svg>
