<svg xmlns="http://www.w3.org/2000/svg" width="68" height="68" fill="none"><mask id="a" width="68" height="68" x="0" y="0" maskUnits="userSpaceOnUse" style="mask-type:alpha"><path fill="#D9D9D9" d="M0 0h68v68H0z"/></mask><g mask="url(#a)"><path fill="#0B80C5" d="M17.556 49.54a32.57 32.57 0 0 1 7.666-4.111c2.703-1.008 5.629-1.512 8.778-1.512 3.15 0 6.075.504 8.778 1.512a32.57 32.57 0 0 1 7.666 4.11c1.87-1.936 3.376-4.222 4.514-6.86 1.14-2.636 1.709-5.53 1.709-8.679 0-6.28-2.208-11.628-6.623-16.044-4.415-4.415-9.763-6.623-16.044-6.623-6.28 0-11.628 2.208-16.044 6.623-4.415 4.416-6.623 9.763-6.623 16.044 0 3.15.57 6.043 1.709 8.68 1.138 2.637 2.643 4.923 4.514 6.86Zm16.445-14.123c-2.387 0-4.4-.82-6.041-2.459-1.64-1.639-2.46-3.652-2.46-6.04 0-2.387.82-4.401 2.459-6.041 1.639-1.64 3.652-2.46 6.04-2.46 2.387 0 4.4.82 6.041 2.458 1.64 1.64 2.46 3.653 2.46 6.04 0 2.388-.82 4.402-2.459 6.042-1.639 1.64-3.652 2.46-6.04 2.46ZM34 59.5c-3.556 0-6.886-.662-9.988-1.986-3.102-1.324-5.8-3.134-8.097-5.43-2.295-2.296-4.105-4.995-5.429-8.097C9.162 40.886 8.5 37.557 8.5 34c0-3.556.662-6.886 1.986-9.988 1.324-3.102 3.134-5.8 5.43-8.097 2.296-2.295 4.994-4.105 8.096-5.429C27.114 9.162 30.444 8.5 34 8.5c3.556 0 6.886.662 9.987 1.986 3.102 1.324 5.801 3.134 8.097 5.43 2.296 2.296 4.106 4.994 5.43 8.096C58.838 27.114 59.5 30.444 59.5 34c0 3.556-.662 6.886-1.986 9.987-1.324 3.102-3.134 5.801-5.43 8.097-2.296 2.296-4.995 4.106-8.097 5.43C40.886 58.838 37.557 59.5 34 59.5Zm0-2.833c2.612 0 5.182-.457 7.71-1.371 2.528-.913 4.713-2.164 6.554-3.751-1.841-1.479-3.972-2.648-6.39-3.507-2.42-.858-5.044-1.288-7.874-1.288s-5.463.42-7.9 1.261c-2.438.842-4.56 2.02-6.364 3.534 1.841 1.587 4.026 2.838 6.554 3.751a22.528 22.528 0 0 0 7.71 1.37Zm0-24.084c1.59 0 2.933-.546 4.027-1.64 1.093-1.093 1.64-2.435 1.64-4.026 0-1.591-.547-2.934-1.64-4.027-1.094-1.093-2.436-1.64-4.027-1.64-1.59 0-2.933.547-4.027 1.64-1.093 1.093-1.64 2.436-1.64 4.027 0 1.59.547 2.933 1.64 4.026 1.094 1.094 2.436 1.64 4.027 1.64Z"/></g></svg>