<svg width="24" height="24" viewBox="0 0 24 24" fill="none" xmlns="http://www.w3.org/2000/svg">
<path fill-rule="evenodd" clip-rule="evenodd" d="M20 6.21393e-09C21.0203 -5.6829e-05 22.002 0.389767 22.7443 1.08971C23.4867 1.78966 23.9335 2.74681 23.9933 3.76533L24 4V20C24.0001 21.0203 23.6102 22.002 22.9103 22.7443C22.2103 23.4867 21.2532 23.9335 20.2347 23.9933L20 24H4C2.97972 24.0001 1.99798 23.6102 1.25565 22.9103C0.513324 22.2103 0.0665233 21.2532 0.00666683 20.2347L6.21393e-09 20V4C-5.6829e-05 2.97972 0.389767 1.99798 1.08971 1.25565C1.78966 0.513324 2.74681 0.0665233 3.76533 0.00666683L4 6.21393e-09H20ZM7.33333 14.6667C6.8029 14.6667 6.29419 14.8774 5.91912 15.2525C5.54405 15.6275 5.33333 16.1362 5.33333 16.6667C5.33333 17.1971 5.54405 17.7058 5.91912 18.0809C6.29419 18.456 6.8029 18.6667 7.33333 18.6667C7.86377 18.6667 8.37247 18.456 8.74755 18.0809C9.12262 17.7058 9.33333 17.1971 9.33333 16.6667C9.33333 16.1362 9.12262 15.6275 8.74755 15.2525C8.37247 14.8774 7.86377 14.6667 7.33333 14.6667ZM6.66667 10C6.31304 10 5.97391 10.1405 5.72386 10.3905C5.47381 10.6406 5.33333 10.9797 5.33333 11.3333C5.33333 11.687 5.47381 12.0261 5.72386 12.2761C5.97391 12.5262 6.31304 12.6667 6.66667 12.6667C7.90434 12.6667 9.09133 13.1583 9.9665 14.0335C10.8417 14.9087 11.3333 16.0957 11.3333 17.3333C11.3333 17.687 11.4738 18.0261 11.7239 18.2761C11.9739 18.5262 12.313 18.6667 12.6667 18.6667C13.0203 18.6667 13.3594 18.5262 13.6095 18.2761C13.8595 18.0261 14 17.687 14 17.3333C14 15.3884 13.2274 13.5232 11.8521 12.1479C10.4769 10.7726 8.61159 10 6.66667 10ZM7.33333 5.33333C7.08 5.33333 6.82844 5.34178 6.57867 5.35867C6.23233 5.39038 5.91208 5.55617 5.68625 5.82067C5.46042 6.08517 5.34688 6.42744 5.36984 6.77447C5.3928 7.1215 5.55045 7.44583 5.80916 7.67827C6.06787 7.91071 6.40717 8.03286 6.75467 8.01867C7.98768 7.93605 9.22411 8.11808 10.381 8.55255C11.5379 8.98701 12.5885 9.66386 13.4623 10.5377C14.3361 11.4115 15.013 12.4621 15.4475 13.619C15.8819 14.7759 16.0639 16.0123 15.9813 17.2453C15.9651 17.4225 15.9845 17.6012 16.0384 17.7707C16.0923 17.9403 16.1796 18.0974 16.2951 18.2327C16.4106 18.368 16.5521 18.4788 16.7111 18.5586C16.8701 18.6384 17.0435 18.6856 17.2211 18.6974C17.3986 18.7091 17.5767 18.6852 17.7449 18.627C17.913 18.5689 18.0679 18.4777 18.2002 18.3588C18.3326 18.2398 18.4398 18.0956 18.5155 17.9346C18.5913 17.7736 18.6341 17.5991 18.6413 17.4213C18.7447 15.8729 18.5289 14.3198 18.0074 12.8581C17.4859 11.3965 16.6698 10.0576 15.6096 8.92427C14.5494 7.79097 13.2678 6.88748 11.8442 6.26979C10.4205 5.65209 8.88521 5.33336 7.33333 5.33333Z" fill="white"/>
</svg>
