<svg xmlns="http://www.w3.org/2000/svg" width="68" height="68" fill="none"><mask id="a" width="68" height="68" x="0" y="0" maskUnits="userSpaceOnUse" style="mask-type:alpha"><path fill="#D9D9D9" d="M0 0h68v68H0z"/></mask><g mask="url(#a)"><path fill="#0B80C5" d="M34.144 55.25c-5.928 0-10.976-2.069-15.142-6.206-4.167-4.138-6.25-9.152-6.25-15.044v-3.928l-5.95 5.95-2.005-2.006 9.372-9.372 9.372 9.372-2.006 2.006-5.95-5.95V34c0 5.122 1.801 9.472 5.403 13.05 3.602 3.578 7.987 5.367 13.156 5.367 1.119 0 2.26-.115 3.422-.344a17.602 17.602 0 0 0 3.389-1.03l2.125 2.126a21.065 21.065 0 0 1-4.354 1.547 19.863 19.863 0 0 1-4.582.534Zm19.692-11.894-9.372-9.372 2.005-2.006 5.95 5.95V34c0-5.122-1.801-9.472-5.403-13.05-3.601-3.578-7.987-5.367-13.155-5.367-1.12 0-2.26.115-3.422.344a17.598 17.598 0 0 0-3.39 1.03l-2.124-2.126a21.062 21.062 0 0 1 4.353-1.547 19.863 19.863 0 0 1 4.583-.534c5.928 0 10.975 2.069 15.142 6.206 4.166 4.138 6.25 9.152 6.25 15.044v3.928l5.95-5.95 2.005 2.006-9.372 9.372Z"/></g></svg>